<mxfile host="app.diagrams.net" modified="2022-09-18T13:45:51.320Z" agent="5.0 (Windows)" etag="itRZfKskma_2tCIf8rpg" version="20.3.2" type="github">
  <diagram id="xZfFwY7MKwCHQ2jlt0gH" name="Page-1">
    <mxGraphModel dx="1422" dy="2952" grid="0" gridSize="10" guides="0" tooltips="1" connect="0" arrows="0" fold="1" page="1" pageScale="1" pageWidth="850" pageHeight="1100" math="0" shadow="0">
      <root>
        <mxCell id="0" />
        <mxCell id="1" parent="0" />
        <mxCell id="XrCBsZc2MaONhhPfoXOV-1" value="" style="shape=image;verticalLabelPosition=bottom;labelBackgroundColor=default;verticalAlign=top;aspect=fixed;imageAspect=0;image=data:image/png,iVBORw0KGgoAAAANSUhEUgAAAfsAAAF6CAYAAAAeZ/GvAAAgAElEQVR4XuzdB5h0WVU9/CIoBhRMCGYQE6CACkgGkRnJQUmKATEAgqgYURDBQBAMhEElCCIM44AgQZIgSByQnDOYUImKCQPf/A7fmv/mWB3e7up+q6v3fZ5+qrrq1r3n7nvuXnuvHc65Pn72tuitJdASaAm0BFoCLYGNlcC5Guw39t72hbUEWgItgZZAS2BIoMG+J0JLoCXQEmgJtAQ2XAIN9ht+g/vyWgItgZZAS6Al0GDfc6Al0BJoCbQEWgIbLoEG+w2/wX15LYGWQEugJdASaLDvOdASaAm0BFoCLYENl0CD/Ybf4L68lkBLoCXQEmgJNNj3HGgJtARaAi2BlsCGS6DBfsNvcF9eS6Al0BJoCbQEGux7DrQEWgItgZZAS2DDJdBgv+E3uC+vJdASaAm0BFoCDfY9B1oCLYGWQEugJbDhEmiw3/Ab3JfXEmgJtARaAi2BBvueAy2BlkBLoCXQEthwCTTYb/gN7strCbQEWgItgZZAg33PgZZAS6Al0BJoCWy4BBrsN/wG9+W1BFoCLYGWQEugwb7nQEugJdASaAm0BDZcAg32G36D+/JaAi2BlkBLoCXQYN9zoCXQEmgJtARaAhsugQb7Db/BfXktgZZAS6Al0BJosO850BJoCbQEWgItgQ2XQIP9ht/gvryWQEugJdASaAk02PccaAm0BFoCLYGWwIZLoMF+w29wX15LoCXQEmgJtAQa7HsOtARaAi2BlkBLYMMl0GC/4Te4L68l0BJoCbQEWgIN9j0HWgItgZZAS6AlsOESaLDf8Bvcl9cSaAm0BFoCLYEG+54DLYGWQEugJdAS2HAJNNhv+A3uy2sJtARaAi2BlkCDfc+BlkBLoCXQEmgJbLgEGuw3/Ab35bUEWgItgZZAS6DBvudAS6Al0BJoCbQENlwCDfYbfoP78loCLYGWQEugJdBg33OgJdASaAm0BFoCGy6BBvsNv8F9eS2BlkBLoCXQEmiw7znQEmgJtARaAi2BDZdAg/2G3+C+vJZAS6Al0BJoCTTY9xxoCbQEWgItgZbAhkugwX7Db3BfXkugJdASaAm0BBrsew60BFoCLYGWQEtgwyXQYL/hN7gvryXQEmgJtARaAg32PQdaAi2BlkBLoCWw4RJosN/wG9yX1xJoCbQEWgItgQb7ngMtgZZAS6Al0BLYcAk02G/4De7LO3gJfPzjHx8nOde5zrXw3utW207fH/xoj8cZWs7H4z73Ve5eAg32u5dV79kSaAmssQQa4Nf45vTQTroEGuxP+i3oAWyCBBpojs5d7Ht1dO5Vj3R1EmiwX50s+0gtgSGBZWCyzgCTsc2vfTtbAi2BzZFAg/3m3Mu+kpMkgRMF8hPd/yRdVp+2JdAS2CAJNNhv0M3sS2kJbJIEdjKK9vv9Jsmqr6UlsJMEGux3klB/3xJoCRyoBIB2Khrq61afZX+v//u//3tO6GT+v373sY99bPGv//qvi3//939ffOqnfuri0z7t0xYXuchFxmtvLYHjIIEG++Nwl/saD1QC73vf+xZ/8zd/s/jABz6wACof+chHFu9973sX//zP/zz+P895zrP49E//9MV5z3veAWr/8z//M0Dqv//7v/8PyBnouc997nP+UsY3A1z9fzffOW7dr/6f916NKyWE8z7GbcvrVmOYP6/HXzaG+n1uVIA+3xlTxjaffx5/jmH///zP/1z813/91+JzP/dzF1/2ZV+2+Oqv/urF3/3d3y1e+9rXLm5wgxssfuInfmJXc2O7cspdHaB3agmcZAk02J/kG9CnX08J1Nr5eYRA5LTTTls8+9nPHp7ie97zngHon//5n7945StfufjoRz+6+JRP+ZTx2fnOd77hPfo/nwFz3wXU63ug4v+82sf7Za/198t+l+NkvxzH9eScPsuf/WJs1M/nffL/Tvvu5hjL9qnH9T5AO++b7+p46rUAeffnC7/wCxeXvexlB9DbHvWoRy2e8pSnLN7xjncsbnGLWyx+7ud+bnweJiDGQ+RRx7Ces7VH1RLYWQIN9jvLqPdoCQwJvPnNb16ceeaZi9/7vd9b/PVf//XwFK9ylassvv7rv35Qwk94whMWn/VZn7X4tm/7tsUb3/jG8d0XfdEXDQ8+GwBZRk9XEc9ebcBn9vLr/9Ubz7GWHacCWgCu0t0+263nnt95nb35+pn3O+0TCr6+Lvts2bFy7IzH+P/jP/5jcYELXGDx4z/+44sLXvCCiw9/+MODXWHk3Oc+9xn35zM/8zMXL33pSxc3vvGNF/e85z2H2HLt1YAwjgD/dkZgPyYtgXWWQIP9Ot+dHttJk0BN/nrTm960+P3f//3Fhz70ocWf/umfLi596UsPEPnyL//y4a0DdJ7iz/zMzyye9KQnDfr+R3/0RxennHLKABg0P2ofpRwaPwBegbwCzPz9MrDMPhVoQ3cHyOfjLBPoMgDL9VeDwW8rnV097hx32ff1nDMdXg2WHH+nY8xGDCCeY/f/9E//tPilX/qlxfd93/ctXv/61y++9Eu/dPHZn/3ZY/zvfve7Fw95yEMWH/zgB4e3j6G51KUutfjN3/zNMVTG2VbXVoH/pE3OPnFLYA8SaLDfg9D6J8dHAn/4h384QIA3yGM//fTTh5eIqn/DG94wDIB/+Zd/WZx11lmLb/3Wbx0xYBT/0572tBGjB/zA6Bu+4RsWn/d5nzc+YyDUuHwo+kqzz8BaJb6V5599tgPq+bczyzDf2TAGMyjX48wA7hhhMOIRz/vUMc40vd/zwHOcKpf8LvH7yKmex3uePYC/znWuMwyvy1zmMov73//+I9Rie9e73rX4xV/8xXEvb3rTmy5e+MIXjpALI8DvhQBq2CBG01bXc3yeiL7SoyqBBvujeud63Acugcc97nGLBz/4wYO6v/CFL7x46EMfunjMYx4zKGAg/zmf8zmLa13rWiO7Gx0M5K9xjWss7nrXuy5+93d/d4AGzx6dfN3rXnckicUzDFjNCXEVJO0b0Ev8PcCIbq7AExCcQXaO2wcc6/ljeFRwrbFv73Oc/D7XUT3dgHJ9rfkHM6gvyxGI4VOvOzkO85jq/zWngUEF1O9973sPJgaIC8Fc6EIXGvfo27/928fckaj3Iz/yIwP4GWlvfetbF+9///vHPZdnsQzwq9HSXv6BP4J9ghVKoMF+hcLsQ22OBB72sIcN6h4tLx4PzHmJPMFLXvKSi5vf/OYDbGXg8yJRwve4xz0WX/d1XzeYAJQ+cH/84x+/uNzlLjey8wFsTZabwWpOpKveP/CrgD8fZzYGDvpO1DDHqs+1ymP/0R/90eJXf/VXh9HlHsm1uO9977v4yZ/8yTFs9w/V/5KXvGTQ/piYt7/97Yvf+Z3fGbT/ToC/jNVYtTz6eC2BVUigwX4VUuxjbJQExOh/4Ad+YPE93/M9izvc4Q6LJz/5yQO8xYF/7Md+bAD66173usVnfMZnLC560YsuLn/5yy8YB1/7tV87gMPvJOtJABPL/5Zv+ZZdy2cZvZ0fb/fdrk9wSDvOgL1KAD+RS3jWs541DCxMyyte8YrF+c9//hHD/+7v/u7B1PifAXeb29xm8fSnP31Q+5ga7E1o/wr4YTaWxfRPZFy9b0vgsCXQYH/YEu/zrb0EADyK/la3utUAegAAFMRzeX68wOtd73qLW97ylufUpD/iEY8YnuDNbnaz4fVjBND3f/zHfzyofdt+AHCVYLnbY+12v5N5Q7cao89R8tiWBz7wgWOIP/VTPzVCMmL5jLUv+IIvGMzLN3/zNy/+7d/+bXHb29523K873elOI2zDKMACYHYAfg2bNNifzLve596LBBrs9yK1/s3GSgCgv+hFLxqePFC//e1vPwD9Z3/2Z4enjgb+5V/+5QEGdVO7jSoG9Chix+H5i/GL16/7thdg38tvdiuHvR67/u7FL37xSLxzL7P95V/+5QBw91JjHSzO/e53v2EICLPw8B/72Mcuvvd7v3eUVorj2/+Lv/iLz8nSn4G+qfzd3tXe72RKoMH+ZEq/z71WEuDJ3f3ud19853d+5/DSATw6Vzb39a9//cU//uM/DhCom0x8TXXucpe7LG5yk5ssbne7242kMFS+78SMMQTZgFH9i8ef7Pa5hGz+fjf7zRn2c837PIZ6zPn4qWuv47BPjpnPvc7lgfNv6rgyhmVjk3w4j2neL8e2L7Cdx6PygZcu9ALAdThEz1/84hdfSLx86lOfuvj+7//+YdA997nPHSyNz92zH/7hHx6Mjg57yisl9/3Wb/3W4mIXu9gnleXJk8g4G/DX6lHuwSyRQIN9T4tjI4GdvMU73vGOQ3lT/KhfYCEZ70EPetDI5L7EJS4xvve5P1Swdrgo/6/4iq9Y/Nqv/dria77maxZ/8Ad/MJK9JH8pufOdvuwBxAqMQCKNXAJgFbjqbyqwBizzWUrkco21NG1ufjMfc5mBMQP1PElmgyLnr/stK9urTYXq9Sz7fT1WrmsZqNbPUnPvMyWOMvFR9KkQcK3uJRZGfwTd9SRPAnTNkcTpxfAZevIt3D90v+oLSXvmgzr8VAtkjA32x0aNHNkLbbA/sreuB34iElgG9PWzRz7ykYuHP/zhowSLp47W9b2krr//+78foK5ECwgAZwCvIYs2rD//8z8/KF+b5jmO8w//8A+DHQAK4vyprbfPnFW/rGRtzswPmNQ2t8v2qSVo9bh5v9X3iUcvG1uqBpaNM9fjde4XUH+X7+s+8/f1//refcjvHCff1ffViKglfdrlqpaohkdkyQgA/srsfAb03VMGgAZIz3nOc0ZIR+4FVsC8QOl7D/DnMVXD60TmZu/bEjgMCTTYH4aU+xxrKwFA8pa3vGWAu6z6q1/96ouf/umfXrz85S8fJXQ65fHm0PkAG10vI1/Sli3ldHnPKAAwar2zxQsOGJzIa913/t0yOr563DO1vdsQQvX0c121JW2l2HcTIph/W8cx/76OOXR+QgkJH8zHWzYGn6VtruS6Gnqo+7u+nEepJLDXTQ/d73dnnHHGuP/f+I3fONok29D8W4H92k70Htixl0CD/bGfAi0A2dfi9cqz/uRP/mQsjKJbnvi85C5A8eu//usj9mv7q7/6q8Vf/MVfLP72b/921G7zEAPuPETUcej5Cli15/xWILcMlLYCs0rl7wZ067GXGQrbxdxjAMTgqL+vn8U42M6gmY2JOgPrNc2GTjWedqL9l83qyuRU2t14MBo8+q/6qq8a4Rr3Hs2vux56X96G8koJmmL77nfyBSrT0E9TS2BdJdBgv653psd1KBJ49KMfPeLrGq9oqXqlK11ptMK9293uNmrodWKTTS/Ryz7PeMYzBq0vkQuNi6q3j+xuoMGzFw/GAjgOOrhS41tR1fPnlYomiO1+N9PnQG0rOn4Z1X6in8377xQ6qCEE11I79tUOf3OL3DlssF3HvTqmHBN9nz73c0hjHpPfSOpz/xhrAF4Gvox9xuALXvCCEa5xj3n/+jBUsM89OpRJ2ydpCexBAg32exBa/+RoSmCO26PvZd6jbJXIKZlD1WqOI4sedWuTePcrv/Irg5632f+GN7zhoP0Bv7i+GH0ofbF9sXv7aMAD9ANykVz1LOOlLotLZ7/qPQb0lh2z7p9Y97L9QsUn1j2PZx5nvs8xZ1nW49QxbHWcOe6e/XKcHL++1vcB15qImO+tPOheuQfAO/LK2Gur4ciGYaCXgooKCXnyLHjvkiyV673mNa8ZhoP9HNd8sdXzN+AfTb1wXEbdYH9c7vQxv85lCXqo2Ze97GULyXmyrcXrKXilc1rjoueV3D3vec8b0lOGJbbPQJC9zesDJpZQ5QVK0uPVYwuslS72m2SvAE0o7Jo1XoG35gBsRTsvA+b62Qy8oalzHvsGpEKbZzxbgWj9vo49x+IZ55j5vholFQjn8W8F/LudstUQ0dsA1Z4Fh9yfmjm/lfFkH6WV+uYz0AL2ki3dy6te9aojO18/fQaeXgvmQTLza1ihXt9ur6H3awkctAQa7A9awn38tZSAMiq11r/xG78xSuPQ91axk20tQU9MXua91exkX6Ny7fvOd75zlOL5zG+ufe1rD4DPtsyoWEsBbOiggLt7q20xD31mCLa77N/+7d8e4P1DP/RDI0NfPoY5YF6g8Hn3VkH0HdYH+9Pe/YZOpA28rAb7DbypfUnbS+BVr3rVSLzjmVn1jEIH8rrfaZ8qLi8xCxXMENAK95rXvOZ4Dd3P4z/IbTdGw272OcgxruOxdc2TZKkrHi+8blVeYSF44bx6jMCd73znYcSZGxroAHdNkt73vveN5E0xfY14GHc8f+fQeKep/HWcCT2mWQIN9j0nNl4CMyhS2GheHrrV7KxDr1+6OmqKXaKeGLzmKyh82dnKrRznAQ94wEJMeF22E/FctxrzJhkNViqUPKlfgmqJStvP8f3IA3hLwPyFX/iFwdZYJEc7ZEafRkuSLeVyoPKVXaLz/UZPfSGb9u7X5WnocWwngQb7nh/HSgJq59H3XsXYeeyvfvWrFzzCK17xikOh66duO/300xe3uMUthsIHAt/1Xd/1f2S1E1Du9P0y4e/lN8fqJm5zsfe85z2HcYaZ4dnX+Plc1pfD8Njdc546T/6UU04ZBp1SOwaAhE1rHai311rXfPA9757xJ7+jM/N7Bq67BBrs1/0O9fhWJgGNcsReAbi4rJI74GBVu3vd617n/O+EN77xjUcnPJSwJWop+t7WTwLVMBKvB87K4sTrlT1mC9AnSdHn+e2XfMmXjBbH4vES765whSuMnym1FMcH5l4lW2q0g+63HK7YPSNQeKd697UKYv0k1iM6rhJosD+ud/4YXrfFadCvvDHx2Ktc5SrDm+fV8+7F4VG/4re8PN/pqiYLv7f1l4BkSsYZA04YpmbIz90EXU28fiGce9/73qM1rhJLYRzJeSovrIGgJNMxUymhjS7vXhtdIQOL5GADUtLX2fjrP1eO4wgb7I/jXT+G1yyT/lnPetYA8a/8yq8cjXLE6yXr8dopdjF83uCpp546lLcyLJRwb0dDAjxsII+9UX43e/XxvvN5Sv6wAH6jft6rxYze9ra3ja55Six/8Ad/cBgA5oMEPt79He5wh8Wf//mfj3g+oxELVL37BvyjMWeO0ygb7I/T3T6m1wrUUfWWmr3tbW87AF/GNWpWwpXYvAQsnp0FbiTjWRJVy9xlcfpjKsa1v2xeuYZHqizUwtsqfZ/38fi9ZlEbLZJ1xjM/5HKYC8BeDwWdFMX0/a+NLrYHjW/dBPPFiobK/SR61iz/tRdYD/BYSaDB/ljd7s292DmpLf9TvmqutbPl3fPYxGTF4WVuo+2V28mw5hVa0pQnZ/laSV48/N7WXwLuM8Bm0InB63RXgb72468Z+tod66SoS+J3fMd3jFI67Y/R99geXr4e+Ve72tUWD37wg0d9vWQ9Hr3cAP0YvL/GNa4xyvNiYLRnv/5z5riNsMH+uN3xY3a997nPfUYGtTp6i5xItkLdA3oemti92nmeoPIr2flAXvMcXn/H64/GhLE40WMf+9iRaKnFbYB+XuFupvABOUPvoQ996GimBNQl3qnWMGf0yBfTf+ADHzjYIUl8/lD6T3va04Z3zzjg3QsD6cLY1RRHY84ct1E22B+3O77B1zsrWdTrPe5xj0HF88IAP+9PFj5lrYe9WCug//CHPzz+bnSjGw0FzzOUmd3b0ZAAABanv+td7zr6JSzz6l1J4vR51TQJBQ/wZd+rnZe34Ti8e2EB3rxVD1/5yleOpjpXvvKVhxfPo0fro/y9R+Pz+ntrCayjBBrs1/Gu9Jj2LQFtT9H3MqaBPGC/9KUvPRLzAL5kLE1T9MFH3euRr5c7ZS6rWq97jVl6OxoSEK9H36PxGW/LPPpQ6+nZr3Oe31jh8K1vfeswDCVr+r32yNrkaqwkdwPLIxTE+8cgWE8BS2T+yNaX5KfjIrBnDPTWElg3CTTYr9sd6fGsRAKUv3gqoOeZybC3Op2MbQaARWzQtL4Tl73//e8/mqdIzrPwiQzrW97ylisZSx/k4CUg4VLMXdjFAkbLGujMS+TqogjAtUtWkomS5+nL19Bch9FnJTwJf4wIBgSjgBEJ0CV1Mhh03GMsem+eYQpsTecf/H3vM+xeAg32u5dV73lEJIBWpcApaBnUT3ziEwcQoGIlUvHyJVu9/e1vH4pZ3F6ClgYpPHvKHtD7v7f1lwDD7VGPetSg3jE2Fehr5n2oe6DvD9Bb6U4jHp0ThXt48s9+9rPHvOH120cIiPEnzCPvA+PzuMc97hzvXm0/716LXSEA8X/LH/fWElgnCTTYr9Pd6LHsSwKUvC5qt7nNbYaS1gjlIhe5yCidEocHBpLwlE0BB1n3GqJopvNnf/Zn41X2vdgvY0Eb1d7WXwISLNXDo+Hf/e53nzPgeNY1Th+g9xnq3Vr1SjEtiMQrN2+wP6h9S93qmofCl8gnjwOgv+lNb1po0MRAkOjpWIxDSYK8e/S+BL/eWgLrJIEG+3W6Gz2WfUtAktULXvCCUTZl+Vlemx7nFPj5zne+xetf//rh4fPQJHXZZGAzAm5961uPGmsK2+96OxoScD/Vu6PTLWSUrcbogXz17L2Xl2EOWMxG0iYmh4Ego/+0004bYM9IFKeXA4LGNzcYjyh/JZva7DISnvCEJ4w5xxiwrwQ+IaLttqb5j8b82pRRNthvyp3c8OvYzepuOpqJvcu0R8O+973vHcqaIkfDytLmcWmYYy1yC6UAf4pZuZV++dqfysC+/e1vv+ES3ZzLu8td7rK43vWuN5riiNcH1F2h99Wbr6DPW5fTwbsXxpGoKQyAkleuyRhQiikfIO13/Z63L3Qgdu97tL3NmgvaLttueMMbDsagt5bAukigwX5d7kSPY0sJ7MYDouTR8mqeUayXu9zlRhKVGKwWqGKzT37yk0cmdTKreYO+t449owCViw5WQnWTm9yk78gaSmCeC2984xvPqZEXL89CNwH5+lqBH2ibK7x2sXghHkaefA7JecBdwx25HuYFA5FXnyQ/iYBi92ecccaI3WORzjzzzOHdMyIk96H4VYD01hJYBwk02K/DXegx7FsCauIpfpnTN7vZzUYTFB3zkjHNE5Ohz8NHwfLcJVlpjHL3u999NENBAzuGJL1W0vu+JYdyAFS6WLl4PUCeqfpl9L19hHTkd/DarZXAUOTJv+QlLxlgbwnbJOdhioR5ZO8nNGBfdffmDKBXcofmZzhK8LQxGIUYupveoUyFPskOEmiw7ymy9hLYybO3wA36Ho2qjt464+Kv6Ptv+qZvGgl3KFVgwLtXG02po195+c985jOHByfhilIXr1eK1dv6SwD97l7paV+p9gr6roJXXhP1eO3q6CVxuveaKWF6NNIRFuDl+99ytkozP/rRjw6v3jE00DEnZeszHHn0ckIkdzIgJXcyBmzyRXp55PWfR8dhhA32x+Eub/A1irGLtauPFkOVeMd7561RxABA8pSMbXX1euLzvmTsy77nmYndK6/SPtfytpR1b6uVQF1HfpWeLmDW9Ea8XVObrTz7ALWrso9EOiVzSjB595gdIG5xJMvd6rkA8DVgslhOlq91HIaDDaC//OUvHyV7gN6xJOdhloSD/MZ7jFItAVytZPtoLYHdSaDBfndy6r3WVAIoeLSpmKs4vfiqBidK6ixF6jveG6+d4rYWOe9dpjVlzavT+xytL65vSVteYm+rlQCwz3rwqwJ7DW6As7g7YA2QJzYfjz5x9npeJZl62WuTK/tem1z97ZXc8e5VZZgz8j2sbe+3QD4MQeL3cj54/3o58O5R+jL8zUeev3P7HDvQW0vgZEqgwf5kSr/PvS8JqJen7HlWvHoUvV7lPuPZ89jFTIG4xDzUvcQqGfhWvlOTzftXIsVIUD8tPquUqrfVSKCuPuh99bB3e4atwjhA2fLFwNq9nuPz9f8K9PHsGYo8cAAvQVOYB3CbH1ge1L75YWXECvbVu5eZz7iUFMq7Z0BIFJQ7ohMjT19zp15nYbd3u/c7KAk02B+UZPu4K5dAVfoyqLW2Rd+jcmVWU7yULvBH30ve8qfcTsKV31jRTlkeb188lXJGA4v3U/xAXyigt9VJIF49zx5VvqoN3S5pDiujvn6rDPxaihdvX6klRkC8/453vOOg7K2GeIc73GEAtHAOA9K80CsfwDtX9e5dl/8152EkCAtYWIl3r/7eKnlYI7+Tse8cO+WfrEo2fZyWwCyBBvueE0dSAhQpT5znhW7l0Wt7q2ZerbTsex4fT50yVyIlQx8boCRKfbXFTrRGZRygcf1OVndvq5UAkM+f+PeJbNuBo9K3a13rWuPepb6+1tTHm5/BHsADcB698kxeuJCOueGY4vkS+AA/BoiRGJAPfV8NC4bmWWedNZoymW/mmfE4rt4OwklyQySM9tYSOFkSaLA/WZLv8+5JApS/OKtSJ/Qo78uCNyhX3pMWt7w8QC8rX2KebH1KXRtTII++V15HGduHN8/TQ90yHnpbnQTSp563nEz2VRz9ne9856jA0AAHwCdEELB3jhnkkyTnPuuyiPGRqKkxDuaHN45u54GLt6uZ57UD61D3Kb9zrLz3ncx9lR1CSbx7bJGyTwySYyn106IZE9VbS+BkSKDB/mRIvc+5Zwl84AMfGB6XlqU8cx6ZZCp0qz/0vQQpCVMoep6YWGy8Kr/RaY0CRulT7Dx/3fYue9nLDg9sVQlke77IDflhXVMeYLoXq6LxVVi88IUvHGvQh2ZPlvyyhLwqUnMGIJ9++ukjaRMzgHnQl8Hn5paSTd/phz/H6wP89TyMTAswMSKVf8obUSkiAdT41PQzTCXu9dYSOBkSaLA/GVLvc+5ZArKjrVbHA1dLL3MehQrYAYoGK7z6G9/4xqOcThyVEue5MwQAuxiv+CzPDU3Ls5e1jx1QgmXr2Oqeb9E5PwzYA1KePU/Y33623BerFZie6VsAACAASURBVAJQDXAkYC6j73Oe2lUv9fHK4STWCQdd6lKXWnzoQx8a/RV4/HI/JNuZH+YMI8K4c45Q+ZVFcC6MgXwQiyrx6nn3ejmYjwxSc1AffnH83loChy2BBvvDlnifb88SANyUKO9bfJRSBdCoed5Z4rCABaUvBktpa39rSw90ZXkPeMADxrF4YQwDmdOSrJRk9bYaCQTslcW5J+L18b73ewa18bxvMXse9FaZ9xXwA/oodx62RjmYHmVxDEjgLgSkc54QEUNSlj82IsdPkl68/YQQXCPK//nPf/7oxqdXv3km3i9cxCCRpS9sgDHorSVw2BJosD9siff59iQBypLXhIIXG0WbypoXbwX4F7jABUZilHg+EEe/8tYwAdnETHXPk8VNkQN/3r8GKrzEXuluT7dmyx8lCx8Q+uPZriJEIizDW8buyJqvS9kaTD1HDA6fYRiAteY7EjEvdrGLjaVped1K+MT/Af35z3/+AdgMRWGjAHzo++rZO1+u03uAjymyKBOvnnePddLpz3kcW5ipjcrVzrU+2s4SaLDfWUa9xxpIQFe71MVf8YpXHAAv45lnBkR0MkPN8sjE7vW851klruoSfP/+979/7HODG9xgAJDfo/8tXsKY6G11EggIkq/NfVrFJgnOqnR6KPDEwxYsMyTizWcswFwdveQ+cwgzAKCf9KQnjex8gCy7niHBmGQYJBM/5Xc1Sa+GKhgTMvlVeAgvOD4GicEgds/4ZITq+IhF6K0lcJgSaLA/TGn3uXaUwLJYueYpMqXR98rkeOgaovDkkymt1h7dqqzuqU996lC0MvDrxlsT51dWpY2pLnpYApndl7/85Qfd2tvqJFDBHlCeaNldHUmdF7xkwK5MTuhmq6x7v5/BWMc7wC52zrjTdZERYt5IquPtY3pQ7emBH5D3Win9ZPcD+erdA3yArkqEd8+gYHhq18yYkPlviWVj6a0lcFgSaLA/LEn3efYkATFTsfQAM69KdzxenYx6cVC0KE9eJjXvyWez56Te2XEocUoYva+HPgOAp4cNEPfvbXUSqGC/ykx89xE9LrlSi9uAfbz4XMEM9Jgcc0bZJprdHNE5TwhH3gfGAL1+jWtcY6yPIN5eS+4Afdrl1nOkh4Dz5RzPeMYzRjIooxOLIAzFmJRfgC1A9TNWemsJHJYEGuwPS9J9nh0lULOms7MuZ9qVolV531e72tWGd0Tha6JjRTuKWuKTpCgUKg9t3nyurlr8VO0zdkDpnbisY0j44vH3tjoJBPwAYOLeJ3r0mel5y1veMu4jYy1g7pih8Cvgx+N2/gCyTHvMgFJLc0gOCCBOkya5H+aF8A7WIJn4xh+vfpkxEcMm43UegK480AI5vHtVIWh981eSIO9eBn/dugrkRGdI779bCTTY71ZSvd+hS0CrW3Sr7ng8byDuTw29tcTFa31PEVOoku9Q/Xrdzxs69XnPe96oyxaz93sleMqgeG+MiqrEV5FIdugCW7MTVrBH4e9FpjP4WUL2Fa94xQDsrF9fwd77ZR49sE8GvTnAsNNaGW2vEyNPXkhIdz1Jm7xwCyaFwgf0dT37nCcL8NQugc4P0LFNjFTePaDHUgkfyTXh3QsjMCrmedeAv2YTeUOG02C/ITdy0y6Dty07Wg20uLoyKe9PO+20oUgl5Im9qpeXfZ8SKdTpMlDhCVLclrXV0lSiFs8OraqrGTq/t9VKIGDvdVXNdHS4A9TWRUg//NkzjpcNgKtXLzbPW+ddS/LE6jD2lMuZH2LoPHvzjcFoziX8EAo/hkVYg3oun2XzO8czTgswYZRUjojbM1iFEyQGWqDJOXtrCRy0BBrsD1rCffw9SQDQo1fFNdVT625nLXqeEK9cC1wevhI6SpTCRu8u29R42w/NTyHz7K1/zuvi1QkNMAJ6W60EKrW932Y6GRlj7iY3uclYipiHHPCNN5/XgHxefQ5UAa9kT3PAfFLCiUGSA8LosyoiLx+97rdAPkCfrP96XTVeP4cQGKVKQc1lvRzud7/7jZAR7x6LIN+AYaEjZG8tgYOWQIP9QUu4j3/CEhDLRNdqL0oxanUL2ClpCXhvfOMbx2dKo3hKEqtkPwOAZRSo/dH0qF/7+q0YquMDe3SuBMDeViuBGlNP85m9UPkZFSMPi6NGPol5AdhK3S8Det9LvjO3NGMCsgw+PetVdZhbvHzZ+fotSPJMBUFd6S71+jN7kMz8KsF49+ambn3Oo8GTElBJgs4nts+7V3/fW0vgICXQYH+Q0u1jn7AE1NID5njeEqmUy0mok9TEm1N2B6QpaGVzF7zgBQddutUmli9mb0U8x+bJaabCoxeXpdyXdXbr2OkJ375P+kEAuGbL7wfsH/GIRyze+ta3jgRL86IeKx52GvhUCj/j0BNfCRzjD9gLC4mdO542ubx8/RfSJleeQVr81n4NtdSu0vm5+IzLdwCdgemYGAnGqcqQlHkKFWCYJPP11hI4SAk02B+kdPvYJ9xjHm3/wQ9+cND3l770pUcrUw1JKEelUGhRMU9UK3qfxyT5abuNghfbl3FN4WqNStkzEsRxnWs/INS3eWsJALwKlPuRFaMMeErCrPH6mnUfsBe6qdS+MYj1o9KV2snRUE+PVhevF8vXjU8yqMoOIaTQ90nMC4tQwT4evuuqc6h27NOkh3cvz0RPf949dgJLIXavoRMmS3Jgby2Bg5JAg/1BSbaPu6MEZs9ZZr0GOlYOA/Di8zKveeQyry1Hy4O3Up0kKwl6QFtG9bItx+c5SZZSVy8pC3Ua740xgcbv7WAksB+wr/MDrc4oc6/EwnWim+PzAD6L7iRZLvtgboC8vA7hn6x4aH5pyARoJW3KkL/2ta+9+MhHPvJJZXcV1Gewr5ILnW9/BoZ9Abp1HZR3Oq9SUQanChPj4t0bg7yS3loCByWBBvuDkmwfd1sAnr+0EE28dVnyr371q0dC3ZlnnjmUOqUo1q5u2WdvfvObhxLliW23MRB4VeLzKHuGBEbAOdC5mrOI329nLPSt3LsEVhUKsY6B2LZEOszPXEMP6OPVJ2Zv1PHGda1To/+whz1sUPWSOnnUmCKMgff+ALKmTYyLrHRn7tWkvDkZcPbqI61cu98LQZmH5jWmyfm159UIyjz2Z8nd/XQZ3Ptd6l8eBwk02B+Hu7wm1xjFu4wyTxkc701XM8qPZ4/yBNia4vCI7CeLGi1vQZv5WDO4WPKWUqVgxfiBhdI7bXcpf0wBT7G3g5HAqsBe6ZrlZtHf8jTc90rZV6CvyXMBYmzOM5/5zOFhu+caNDEAgD9v3xww7xiUdSlbv69g7//KGszAvkyK8e4ZqVbbE0oyl80/3r0kQd49Q4NR2ltL4CAk0GB/EFLtY/4fCWwH9BKvUPKamShRQtVS7JSwhD2xerS7BCoZ9drdoj15YjvF2nlLj3nMY0Z8VBMdyXpisrx7VK147bxK2k7H7Nu7ewmsCuyxPsCYV46hqeDOq49nX4E+cw54A3PLHr/4xS8e4YDLXOYy4xgMRgaAMM+pp5468jpUfATwlxmTNXaf72s2fn2ffRkMSv8YGtozm9va8mrfrN2zuXzRi150ePerynHY/V3qPY+DBBrsj8NdXuNrlF3N29GXnhLWs5x3YzEbShetqZGK5CbJVVYQE2fnEW23BWQYBwwGtc5q6RkR3vOmJGyJ0Ta4r8cE2cowYOyh2hlr7pl4PaCuIJ+EvFpXH68e0MrEl+chEU+t/iUvecmxAqK594Y3vGGUvt361rcezJEGTemBP5fUhcKvEltmLM77GReDA5irJpGTgmUSSlIZIjlQgyfGpwTEnpPrMSc3aRQN9pt0N4/gtUiwU07HU5doh77XzlTpnbIoHj/P/+Y3v/lQluKoJ7LuvIYlsq6VWYnNi8fyEpU/+Yyi7e3kSWAGeHQ275vnDQCBsKTNrA8vURMj43ca08Sjr6V3Adp45wxGCXiqNnjXQjjmhPJN80583veMACCMOUi54Oyxp+3uLLF6HfHmK+An74SxwmiRc8J45d0rB5WPwCDxDMjMb7A/eXNyU8/cYL+pd3aNrmsrjy3L0SqDQs/6UwrHk+eN8+LTMldNvAVxeGe7XbBG+ZT6Zdn44qPea5MqFwCVytP3f2/rIQHzREWG5jOy1oGw+cDzBurA2z20eA2GJp79XGOfq0kzHAYDALd+gnyP61znOqNT3nOf+9xBo+uW50/MnJEhR6R69ruVTp3nc1w/Y9SlT2Mftf0MC8zTa1/72uHNGydjhzHbRuhupd777VYCDfa7lVTvt1IJoC/RmZQv6vSMM84YHjf6Hqgrg/K/emrfy8LneUnYyzZ7U7M3JIP7Xve611irXIKevxve8IYDSBgTQH9edWylF9kHO2EJAHNsD5od8AFec4FHnvUL3Ede+dwpz/+ZE+ZCFrERj9cmV+4GUE2bXJQ6sMUmKec0HxmSjIj8vsbkczH5rOahVG/efrNXn//V7rsejNPb3va20WSHdy+EhcG48IUvPMJUDILeWgKrlECD/Sql2cfatQTEytGwKEyJd+h1LUQpXopRlztd74A1hU9xU8zb0afzd7LvdS9zXPFYnhwlS5kKETAmelsPCbjnYuW8eu1k53XjjVKdvEx29ehCMLx1v6ugbz9gXMvmNOJBjVtPgcFonQWg61yS9rTR1YNBJj4Dw1YT9ELp5/MAe5XcHKPP/3VxnHyGVZCUJ1ylHbTr1QqYIaLRk1bAxsLzj+FQDYym+Ndjzh61UTTYH7U7tgHjBeLPeMYzBiWLUr361a8+Gp2g7HncKFrUOwVMsStZkk0/9w/fLtPbdxQmQ8F51NNL7ALwQMOKY92idL0mkyRMde/COABNxrpETJnq2XRPxNgomdP9DtUPoBmOAUFAHQo/yXkofGwSsJfVD1AZktrkAlgdGs2/JOdVsPc+nn7mXAV872ssP6A+e/cBboaI8AQGQ38J3r1nANMkRwUTIZygBr+3lsCqJNBgvypJ9nF2JQHxScockFN2lqylwHnguoqpfVZmJxGL90P58cRQuLv1aKKQNdAR6wcWjAqL3QB7CtYSpsr8elsfCZgDcimSgIna5sHPneWEYSx6dIUrXGEYbtrRpnteQDqevVdgLhmOQaDs0jxgKIjXy86XnOccSj79Xxe+yfEC+JHWdrR9egDMBkH19iXiYZ4APQ+e4aGbnyZRQglYC2zUda973VF6KsnQn7HlNSV6EhnR/72YzvrM5XUcSYP9Ot6VDR4TGp3SQ99TXLysrPqFWrXgDY9G/TN6HwMgnr+dF79MXBgCxgTv/kUvetGI+wN+4YPXve51w5PTe7+39ZGA+459cY9sVqdz/xmDdRPbBoryNwCePAwGoVLNSt9n1TrHFOfHHt3oRjcaISPAKiEPcDIwedXmh+585mX64ed4ycrP6n3LQH/Owt/OIHBc58ZgWdRHGZ7zY5uwGwwQjAVGyoY5qAZMwhcqVDAdDBlhCvkAvbUElkmgwb7nxYFKoII0KlXc/Ha3u93oP8671jZUMx2elj/Kj4JDt6LuvaI4T3TTcY83x3jIoiPiozwlypWHr9a+t/WRgNI4LIzSuGzK1MyBLF8csDUntJ5VQifPgxHJw+XpVwqel6wSQ/lmQkZi9E972tNGQh7KXMkb4Pc6t8kF/NWrX9YwZwb1tPK179yj33UFqDXRMS6GCONThr4uf1gs7XX9Vhz/yle+8ng26nkc23XYX0hAvwqVJYza3loCDfY9B06aBChmVKXMY56bpKQnPOEJ44+nTbnxrnhWqH10P1qSB7dVxvx23j7DQqc9XiFFKhtbTbVkLUoURdzbekmAUXbVq171k9YqQHOj6DW/4aEDXwwQL5bhJmvf50ARva9cs2bSa5OLHRAiQNXrnGheAVkJeuhv8XGhg8TdE/PnSddEwe266W3n1W+Xme9c5qXwgQRU16+nxPOe97xB5zNkdN3TiyKNgzACngmMmCoFoQmsiDBErVZZr7vboznZEmjP/mTfgWNyft48xcmj1hSFt4Ku5IlRvla2E6O///3vP+hKHhZ6ludFoe1mq+AfihbQYw948WmFynvsFcZ2I9HD3cf9AViqJbKh8uVtmB86zJkb7iWQBO5a3YrrA225HhIv0d/xxtHckvle+tKXjrCOsJHsfawPAwBoWivBfNFRL558gD4sgfEkK38r8J49fL+Jlx+PPp5+VucTuwfUjFPMk3yWpz/96WN+AntVI2L6clwYBEIOrl8VgTAU4wBL4flitPTWEthKAg32PTcOXALW8Jb1zKNHv0qQknwkfqqO3sImvBur3PFq0mSEl7+Xpjfil1ruAgNKW7mWjnxpjXqlK11pKPje1kcCDECLw0iaq02TAJmOelghXntA2D6y9dN0yZUw7ACj2H28e1S3RkzmmXg4JkDyGwpfsx4xbmED39nHVjP5A/6R1FY0fs3Azz5zVn5N0Mt7LIWNEWxcvHuGsOvg3QN3jXhQ+zx6Hr4afPMXa6Fkj6HiOmNQ1LGuzx3ukZxsCTTYn+w7sOHnlwgl+UirWt4HUFdixYtH7fPaxWQpMZS7ZDreHcqSxy+p6kQ3JVZAgJK38A2Qd350KAXv+JK0elsfCbgvmt6YK3UDbJrPoPhVaAB7fzLwJeopzRPPF7fmxVtGFgii9u0HTBkF5pl9zScNeRgVvGaJcOalborANo14QuXndQ4ZzfHz2YPfDdD7DZYBmAsryFHh3bvWJz7xiQPgXacyQTkJ5iwWgEHsM2WleunHYFifu9kjWUcJNNiv413ZkDFReBQp2pH3IUNeS1zJc1rZyrbn9WugI0kJdc+TAco8OglVJ7oCmHMCeHF/rVfF5sU2xf7lC6BCgf+JZvdvyC1Z28swJ+RV8Ljr5j4CYTF1SWq8ZuAmFOO+itWjr3m9AF3ip7h1+t3r2eAYuub5jkHw/Oc/f8wB+6PxGaDYJvR/vPpk4wfsZ8++Jt/Fo670/jLwT8tc++V7r64H6Lt2bJZmO9gnYSyshlAWwxfLpepAiarr8Jxst/UcX9vpflIG1mB/UsR+PE7Ko6KsJN5Z1Y5CVXJHkaFaeeD+R7+i8Hn8vHFr0PPM0Jl72RwDa0BpSuKSqcyTU29NmYvd9rZeEuDBMwDnxElzCBCaQ9ooA1n3ENjJ3jd/VHUAZYAoP8Nc4vXy8F/2speN7nmo+std7nLDwFTKKWTge332AT9mQPinlu6Fwp9r7Cu45/2yz2bavgL8/N718O4xXsJPvHsGr/CC7xgBDGU5CZ4j77cD8wb69Zrf6zCaBvt1uAsbMIZZuUiIkmzHm5JshJKMlwXMeVXKqvxOspRaYSV4Yqr648uaThxyJ+/F9zVTWlhAFjMPT+0yz4jy1B1NQlQt7doA0W/EJTzoQQ8apXPmQN0YbIw0ORhi6mmFq+Usbx/tD8QZBBgkIAjs5QAopQPsVswDmhLaeNE8fSWZKHLzQ7xc8p9tWby+gv2y2vmMt3rsdb/ZozdWWwDfvsbF2Eh7aIl6jF3MhXUhskCP1s/APsbFskZTDfQb8Uis/CIa7Fcu0j4gZQbIKW8eNXBXHqQUTvyVElZSJctanF6HMHQqhSxZT120BKQT7ZhH8pQ8wHAs2dWUJcOB9ybxLwZA36X1kECACagDY7HzummKxEDT7RCdb0PZ83Z5+xY58ru0y7VanPCPeYDql+VuPgknydqXGyIJjnEpZMSLdpy0ya3Z+MnE91nd5jK7AG9ea7w+gJ5FeirwV+PA9wwYMXkGiutloKpGMHbGKybCZ5JNdwL0nb5fj7vfozhMCTTYH6a0N/hcVbmgV1HyGuRIiFLuBNxRppKiZBBLLALEsvO1SOXd22Qg8+TEJveySQjk8em/T3GGytc6V9iAEaBMq7f1koCyOwAn3FM380RbXCVmjEIGILAHftgiwMjTFaP3nfssGRPYJ2MfkMrZMP+AuvnhVXKe/SW8YQ1qh7q8j1c/r3RXAT0gnzr92cMPwC+L2dd9MRPCV9gKRokYvpI7BoxwhOuRdzJ3FFyvO9mjWVcJNNiv6505ouNCOUq2EytXXkdRUWLa3/LweVMAV4xUYx37YwEYBRQcsEet2m8vm/isrG59x4UP1PJLZLr85S8/SrckCva2XhIA1ICNcTiHbsTkeeq8cgl0QNd8sh9jUXMdnn8a7rjXANK+DEu0t7llPtqPoQnseeti/LLcJb4xJJLpn3a5dU37Wk63zJOfO+UFxJd58vNnMRyqd69/AOMHs2EOG6eOe/pSMKZdY28tgRORQIP9iUir910qgXj1FJFaep65BicUMfpc9jMlS1mJSepoJgtfDJ+HhuK36aSHepdktdeNAaFESxyWh4f6vdvd7jaUu5pqlGhv6yWB97znPaPsDAuTueQVgJs/jEaUPKPAxiOX86FMDZOTNrc8/ixhC1Df/OY3D8Pv1FNPHYDOQDD3zBFhI79TookeV+oZkE8t/9w9b5k3bzw1876+z9K7fhcaf87Erxn83jNkGL0A3fWbu6m7F4Yyh3n3DOplW9P36zW312k0DfbrdDeO+FhkOMuCp0AlP4mV87ApVkpIZj66lseNrlVCxOPPpvyKQXDxi198z5JQZy0EwBMUIlCbzMBwLn3UZf7vNhdgz4PoH56QBMwLPd4lpdVNdr75kb734vI2Hrn5pFmScjytlhma2CCVFjrwMQjEu/1J7hPXB5TAX4KerHbzhFEKiFNfX6n8CvZbxemrAZD3c6b9siz8CvphDbJanrp7uQhKSDWewnrIb3Ft2AnXqkpBOeF24N7Af0LTcON3brDf+Fu8vwucFcYyBeIzHfL0GqecKGE1wpQuD/tVr3rVSNYDxIAfjap5jjIrSUk2Hj0vTfb+nBC13RXU8Yi7onElBYrPOx+FyDs0BlnaDJDe1ksC1kdQHik+Xzefyb0whwB9qHJzCCtkrqHqgTgABODmFI8duyTjXujInBDXN1fEu5W0+d6CS/YX3knPfVnxc7x+GaAb57LPK32/03vHSAveet1CXKoDePeuy/PCu/dcaT7kWTJ2eS4HbbjGyMlY12vm9GhORAIN9icird53qQTQq+h7JW5W3RI35z0peeK1iZny6MXjKVsKyoI06NVsgJ6HJRlrr5sMayuHZZ1woQLZ1vIGZGRT7BTlQSvIvY7/uP4OhQ/I5xDLWWedtTj99NOHxy/hLglwEiwxSFrKup/AGSjK0Bf3Zwzw8mXiA3JhAMl54vIy8XXQ4/nrqMfrxyBkydlK4QfQc1+WxeUr4NdSuq28eeGCAHxe67K5OZ5rsR4A757hLHavY2CSXh0HlY8hO0gPvsF+c57KBvvNuZcn7Uoo0LSopcDEys8888yhhChjoE9hi6eqo6ekeFfx6g38Oc95zsjaFz/d62ZxEMqRNwjglfoJKWAYNFnRKa2Bfq/SPbjf8WBR18C73h9zwpLIDDisTUBNnofYuwS9JPSJbzMqgSGgZziq3ddEB6MjNCSUYx6KiQN74SRMEkOCRz979dV7X/a+gnul8LfKus/4U9KX7pC55mog8O4ZJ3pVAHash2ZU+ghgPDxXp5xyymgOVLeDBP6DmwF95MOQQIP9YUh5g88ByHnxYuGoRYpVLbtadwYABapECrWKTpd9j3Z9zWteM5KRULGaovCoxCP3szk+lsH5JDFRkoAC1SuuS7lHGbZS3I+kV/tbteOSMuVY1I3ByIOXUKd7ng0wStbTaU4Vh5wMwK5XvE56DEpA/t73vnfQ+JgiyXmYJI2eJAGaf+YDNgq9jxUwTyX41VXuKsBvFbOfvfmtvPtas59yvoD9sli/ucu7Z7gyjIG82D3WjNGKqXDd2CsNd9qIXe2c3MSjNdhv4l09pGuiYDUk4WlJoqKYlAlRTih7ilSpGyVLKcmO5mXLvlfnLOkI9U4xS55D4wL+vW4WuBEaQOMyOhyTcndeCVo+6239JCAmbU7MiZmYmqxlMIO9ucaLd48Boxi3uLY5BMzlhJiL4tySNSWM+l8YyXvnSlgH6Mazr6vcAdP0wA8gk952ZXYzrZ/V99KZL732K4Wf5MCc23euifGBddCjQrtcZYhyUJQRvutd7xpjNqfV5bfxun7zet1G1GC/bndkjcczKxQeF0qRp0EpUazoVXFSgKvtLbClVGXZA3X/e6XIeGgUHe9NXbEYLfqS0gbcJ0Lp67zHU6P4UL/GxFP0KjlP4xTA0Nt6SUBpJKqa14qarpuYO6ZGKAboZ/6h7gGg38QzB/YoeUaDbH1Jf/JFNNNx33n7jAc5ALx63j5jAeuT1fGAZwB3WSw+QF+Bf07CCwOQ45jP/pzfq3PYB5vAWPbcoOslqAL09BKQkCjs4DPGsn0Y1lgQ6wgAfoazYwlXCIH11hLYTgIN9j0/lkpgK08hn6uhVx4kyYm3ob0tgJZM9I53vGMoIdnwaFYlQzx9wCuGSsGF1rSfmml/FB0DQbmUGC3GQGMRFOZOm9It2ckUoWx8SXp64BsPQ8BnTXXuJMXD/56hJ/GMEThvYvm8dHQ9JshcAZYSQc0l1R9yQACnuSMkZD4KDz3sYQ8bRmU65wFPuSIMAMBrXpifDFOGp7+68E2l1ivIe18p+ST05TMeufHIITAmRoj57lXeCID3x4ixj32NV3WAa1NK6PmxUBQGQYWB9rieCcaC+c148bzpJ2Hcng/lpYe1NYtwWJJe7Xka7FcrzyN9tN0+xJSWrHsxdvFxilrDD96UWnneFm+MIrcCnXIhJW8UsWVu5wSlCC3rlHvl1WiFyqtBp6qJjuJeJmTejZCA+mPKz7nRw2nGYry9rZ8EMEHK49yrecMcYYQkWyq1swE3nrl5x0vn3QZczS+0tv8ZouYRA0B8W8a9RFLhAPMcAyDPhEcdsE8HvZqsFwPAHGQwSO4D4sCY183j9gfMfYcpsC/Qr0ZBzgGwGTByWMTkncuYGCaO6RxpAKXqgHGsTa7cGMYNw8fzhqWQAh+HFAAAIABJREFUtAf4GbFYkEtc4hLrd4N7RGsjgQb7tbkVR2cgqHIxQ8lQXiledfZZ5IanxivTsIQXRqFSUPatyUmJW8bIqP3HKUTeju+wCE984hOHh075aZ+KluehZePpycLmsemjTkEaJ5pYOICh0NvJl8BsUEqiA3KMsZl5QdPL4ZB1zgO3hQrHIsnWxxwBSOCqxE4lCBZAAp/sfImaDAbJorzfxMf1xJf9z8MGrsYVb5wnbkxA3HvGLSD3vf0D5n4TA8F8FT4w7xgjwlhyAzBWPjc3zV3nd0xrRzBIhScc23UxAFSo8PSdk1EReZnDDFrPmOt2TWL3rtUYhNBQ/Ls12Fc1ExK2aNZsVRI9uOM02B+cbI/EkWflsJOykA2spI33nJ7jmp6g8nkoFCJ6VAxR9jtvm9cGmNGXc40xIdXGIlVpGAvlSHHyjHh3DAkxeYoQgyDrX/Id7w9t7/w8PJ/xDGX9i8+qEOjt5Ekg82qeX5gY91e9+7yZVwBNLTmAtAFNXrT7jU3iHWcdesfQM17uhxJMRgJGCLsjjCTMA3CBsex8FDmg542naU+y6ePRxyOXTwDQnR+ge/Xnc38JAxijYzAIeO2uzbG0BNYyWo4LI4IcGLOMFfPYMXn3FoXyW/97TRc/BgPDwDUwdMgNe6GdLu/efqpisBgHvdV72GB/0NJe3fEb7Fcny40+EgWqdSmlyyuiVHle/n/EIx4x2p2Kn/L2Zb9LupIYZ1EbhgFFls54aSIC2Gu3vAr0eV9rkHk/lKcNvf/4xz9+hAiwB6hb4+PR8XAoerkCvCcgIP5v28mY2eibuIYXh5FhiAH1ev8BnVLKW93qVqMGn/fr+4CizxmXqG5ePTA0L5XaPfnJTx7Z+AwC1LbfCAmZp0JPvGEA6X0AHPD6Ywjwxn0eAAfejAFevb8YBpm/idt79VsGhd8AdvMP0DNOHc94jUn4gTGA9QLiwgyMWd8pYfWM+L1mU67dc5KSQwa0VfDMabH7dADEVAD/w9wa7A9T2vs7V4P9/uS38b8WKxQfpLwAuxgohUqJ6Yqnbh4lycsHtEqbJMNRvjww1Cn6fV4qNB79/DkFOtP62dfn6WNOqSZ7W2Yy0Hd+rILMfi1SUbgUrfH0tp4SEKJRGgfI6iYeLsaupNO9ziI4ABlbw4DDFAFncwLNzePF6AgNAEq0PlC16dInpwTN71jYHyECIGwzvxkN8crrwjV1QRv7pnwOuKPcGaD+jMc8tKCTBFNGAaOBsYJhUO7nWMCdd4+F8gqsXa8+Ade//vUH02D8PvfseI7SB8D4dNOTuKrDHm9eoyDGi/H4DFswbwdl5DbYr+dztWxUDfZH514d6kjRoDwhipG3TsHxiChlnovkJt672CGlxBCQPESB8qhe8pKXDC/D7+KZVM9tGchXj7+CfgX7SgdTfOKcxiEm63w8eiyCZjoUrf2Nv7f1kkAS3rA1yzb5HZLO9GkwF7IIDnBnYFom2TEYlUAakArjmI8AD/BaFY8RKv6N/jYneb82zJSYujlUs/Dn2HOy8jNG3wtJCQEwQuSEMHzF0j0Hvvd8AF/gLcxg/vPcgbbnCQsF0O0P7F2HzwA9z//Rj370GL/5Sz6p9TdWZYdPf/rTRzjLef3Pu3eN9pPLInFv2XXs5rP1miU9mlVKoMF+ldLcgGOhxmU5U3LWgJfYxqsQH+Sh8JyAKmoUyKLvUY9q3GXaS4rj6QNddKRSIh5HjcsH6APiNY5fu4ptl/STeL5xAHPjkvEvbIDelCDIq5fwRAH2tl4SEHMGtrzxZZt4/GMf+9gRKgJkANEG7IGdao/E04GgLnIpu3v4wx8+wNgc5OUyHLAEABfbY+5IaEuv/Xjqdf36zNEYl1gkx3RO8wq74LiAnHcvlCSMZRz2A9aS/HyfcjyA7g/oA3rf1Y59zpH8AUZMEgHrc2CMvvMMykUhI1n68lPE/hkHjJ3aiprclnn2J+Ltp3+GFsW9HU0JNNgfzfu20lFTRihwNe4UjBi75Drlb5SP0iiKibfiPUpUTBTFj4L1PwVDAYX+9N7iM1WBUlq1H3iUWBRe/b/G7OeEoHj9lKyYp6x/f8ab5XMpP/FOtK3kwf1uoStjoOz3eMf19+SoBl6Sp/AQ8AS6mReRi+8BjCoOIF1XvJMkKjSDOg8oa8TEk8c+MVgZqlgmhh/jkxEqBMAwdU77pt/DvH59MuwTf8cqyEORPIeCB9gAl9fOewfyvHDPURrlePV/PHnH8DuePCOgluZlTvmefIA+AydMmnHYP6DNSJKzoougpD/jYNgkARbDgRGpW+RXP6sG+LL5KByBRfGXrH+5Dwyu3o6eBBrsj949W9mIAbjmM7LbAScFKBZoo5R4MB50SlHsk/IUK9V5jMKhyMQmefVoUSVxYpY8fkrY97NCqaCZC5kpe/sEAKrXPxsAvBhenmYpvDneor80TEFz8vop+b1uVUnWMMNej3fcf8cTlVMhrg7UkoMxszgMT8aaZEtAEy/cvOPJygUB5D7HPAE7oSXJa9gmuSU8XZS69s3aNWN+/A+Yefa869o1zzPg+PYBtkJDQD5lf0BOtrvqAOEB8xRwi72j32tIQqzd8xPvnNGcDnnmQIybOqeSsCexlVHh+jxXPmcs5NnxikkQqzceCYn6WVgUxzWTKwM8SanOl1BBlu+thnfmpH0Y8xoPMZAY6zbyEP7wuQY/WJXejp4EGuyP3j3b94gBuXi8h5fSkMyGfuRByboH2JrjUKRioRSbhx11yXtmFDACKBa/5V0rr+NtqLm3OteJUITzBVE6tY1pVY4zKKg9Tjc/GdpKrBgjFDuFKXlvP1sF+2ps7OeYm/TbE7nPQIlRxsDklfNkaz/4KhdGgbCQjHyd4pwHUAEeQM+ok03P4wVuDDwA73eMBMl55i4Ax1qJg4uJ29DsGB+ALv4O4L0CY+DuvMmel/injDQsAWC3X+rznd/xlOGlFt8+8kY8Z75PEx7XW8MDAfrMb7JgWOug573nzrX5nS1gb04yPBghwhOMG6AvbJZKAddfV3n0W89UGgZF1j7zzMvuJ7f03GcoZDxkIxdCYi7GZA4RbNJ83uRrabDf5Ls7XZvSHiBPoQFqdB+lQQnzJjzc1vpGz1OSlBXwtrgI75jHji5H4aMveUs8NFn5UXTAVUyS9+Q1HnqUXGj9xEnjudeEvWXefL2UxOuNyfkoOFnbeuGjMsXrA9LGvlXsfzdAFZbB+SvYb5dPcIym1K4vlfGoUkPuh6Qy8wXwzCGcHBDVb/5YV0GJHQMQ/c5IAGK+B4bANJ6nEj5JfZgA8XtgD3h9BhAljjovKl/jJd8xJCTXMXSTPY8WZyya445tHP6yFn3mREJWwM+x0PyAPYBr/7TKDYNRwxVhtGrSqe89e2HGkphILua05wr4Gq98GMauNQGwF5IQzX3hNmEGsq5VDjkPI4dh7g/75Tjp6peqG+cgP4aOSgIy6zm/6+m+ljs22K/lbdn9oGbAWgZg6ERlR5QgL8YDTIk8//nPH4qU1c474bWLAfJaKEV0pfi9PzFw3pAHnjJCU6pjp2j8ORbDgHIL5RrlWAE9IB8lH88uq4LVGH9q8OdsaceLh6LxCq8OQyGMINyAZcA8CEn4bD8beSa+GsDfKda5n/Mdxd/uZDQxDs0foMsbBza1F/0ySpkhaZ7JugfINr+RkIlNko3OmzWPVWQAd/kjfocBULfvXAxcAIiSB/bODZzNU98ZO6PRvtgtz4b/GY0AvBp5AVyvSboL4NeOd44J9DEAOUbtJxEvvYL9svseT95v02QHtc4gd2xsgqRZOQxW9DN2z2gaA+k74Bm1qRoIPS/50bW7TuEHz7twhHOQKaqeocOY6m1zJNBgvyH3cpnCRWOLj7LgKSPKkMWOJgS2aUVKEYjxSb6h9G5605sOZSixTXa7RTh4EuKcqakH7LwdNb+oc4aBRKUkU8X7njPtZ5D3fQX86vFv5+3zXFCOFLk/CV28QGVIjA9shaoCXuR+toD97NXPCWX7Occm/5bxyPjCCvEOsUXud42Vz2BP5u4pr1T2N4MUgKVTHYo6rXKBrox7Wf28U4miAEumOlAH8mLZqHBGISMQNe/P74CaOR9gZSikHC9VJAFnn6ce33kZGmmhW+vzPQNZyKbOkxpzz/PhNZ/X3JV48emcJ4QmNOBzBjtmjpEOsBk4rg+YC5NIakxoQTUNwxxNT/Y+x1YwRugEzB4DGcCj6NH3yzz4ZWPc5Hm7idfWYL8hd7WCPaWgm5z14nlHYnm8H4qJggPiFJzYpJ72gB6dx/OhlClZBgDFIGEHZSr7WSKf36ILeROSpygMio1SxiBEMVbl4LNK48+AHq++GgLLsvir4UBZS84788wzx0pgYrtCFIBAohYFiMZ0nXXbyQtdNh2SHFXPP3tqGzKNVnoZvFAGmBg7WhzY2AL2lcJPf/oAjT4JPG0L20gCdd8An3uhlJIRAcyBH+CzsI39GHi8W4Yttsf8lrymPS5gR1nL6ZDhzivn1To26h542tI3ApNQgT7JdsmsTzc9hnGa83iOjM1zYnxi4vWZyPVlHgbg4407p7EBbx68kJvjS/7z7DKoyYEsHdvnANvz7jqFOeTX8Nh5/o5jHPZLn3/GAsOLfAH8iSwlvdIJ0gc7VAk02B+quA/2ZDxsdClQpgBkzqs/Z8lTfhQBcOaRew/keeZoep3nKAHeDEWQhjQoU4oUoDsmBURZUsJi5DxqdCFlF8WZePmyjPoo+Ars8ewq6C+j7rOfV8obLcxrkY3Pa5NgpORPLbX/JWZhI/a78eISc43h0mC/XKoBMTQ4A9ACN9e85jUH0OS7gL25Fg83HnD2YUgyUhkJyYYHgt4z5hiqAM1cAFoaOgF2Hr/vUdBA0QJK5jmGiuHnPjJqzWeGsLEAwxiFDGLfJZmueuwB+dTLp9pEQqucANfsOXBurBmA9ZsAOolVsI8R4LPE4rEYaPYs6ctg8eya785HjqH1HV9yrPFiLLzy0skVve/65RH4Ddl5rsXfJdp1+dx+tcLR+32D/dG7Z+eMmNJBq3ugebkoS0k1vFuehQeaEuUFUERzGRnAl8FO6alp9nuKBD0u1i3jmafBU0IjUorq2IGfLl2MCkrNOSnhJC7FS6ne/VZ0/uzdVZCv8f3595Qgj5G3I+ygRInyM2Z0L48SABjnfj1711MzqY2FQt1p2wuLsNMxj8r3mBVxYZQyAExsO/kWtQSs0viRGerf3ORthxEwnxl3qkF8Zv76LeNOgiZmx7PgdwFvtLb4Pprf/HBeni+DN3kDQJBBDBSBrOdBmME8D10/A735kO/Q9p4PnrbxYtF8D5yX0fjuoTkVL97vPHta5Ca5VSjCuIw5C+eIqRuXZw1D4bxpu+ucmDhy9l2MBYYIY91z0dvxlkCD/RG8/yh2XitPhqJAQYq58dB5ALz3lAfFe8hlBoCzeAhvXp28zx/ykIecU5POa+a1y/ZV86xpCdZADoD6Xh4FxUTxChtQuvGCAvrzuWui3py0t8zjr5/VLH4Kz7lQl8ZOERuHLGQ12NgHytfGq9tvfN311J4BAftlsc39GhZHcDouHTKPHugyOtMBL/kZ7l+Nh88xe/PKvWWsATj/24AZ49Zx/YbnamPsAXOxeefC5jBAeboqADwnd7rTncZxhKh4+cA4HfgcRy6Le+wz7yWo+r92vwvgB+QZMY6ZSoE8A47ts+rRB+DNRedjUABlXrzcGvvKL5FkB7jTSQ8V7zeAndfvuWOUGBtvHbvhWWAEOR6DSJUNlk+GPi+eLFD8dUnoTZlnfR27l0CD/e5ltac9d+Pd7WYfJxcPFJOUYCcxh8fNo81CIZQbhVQp0Qq4AXqfUUb+KBOKRxwUIwA8bZaOldzDaEgXMpnvFCtqFW2Ivk8tcRKN4sHFu5/r1AOQs6cehb8sS3/O4Ddm8WBlfzw3HdOEI9DFXlG5lKa8giy/u6ebV36UrOrIFmDZdgL8/Z73KP5eYxvVH8Ir6SSXuRegn3Myqhx5pbx09w7oAlVyx+Yo4ROeyrx1PJ6rUjpgz0P3XPDsASCjAeVvXgNMTFS8fsBu7jt3VlQ0fxmL/neOJOB5rvIHaAP0qTyp9Hye5xrOcjzPKeNAZzrPsGtLBjz6Pe1y7esYmBF5CDx5Rgwjwv5ZVQ/4uwZgjgl4zGMeM+RtXQtjxc4BeL9T1eCvt+MrgQb7I3DvldWw0nn0vFclZV6BO+UR4MylVMUZLztgTGnyqigUcUIKicKjTLTYVEeP+rM/r8B7HgeFSrHw2ChcyhWLwBjIsePZJ2s5ny8zZnbj5c+UfgwBCUXkoRkI44cHCFwYKOK1xkexoYIxEij93RpUW02H0Lah70ND7zR99nvenY6/jt8LrwBm98C8CuiFwk99fQy8WUaMN9n4ki9581nd0LWKwWfJYr8HfnJIeLTYKIZoGuDIQAf27pU4PfDk9ZvvPotn7/y8YvMLSyWr3TMm9s6YTYyeR8/j9sxV4y/5HJnvMbAzvoTGPEsMDufhvTNIMQ0xhAC0Mdon3fbCwAlZ+D6L7TDAxd8ZEJL2GDBCcRJphSn0vpC/IrmWIeCZ0czIM9/b8ZRAg/2a3ndAzjOleDzw6FBJZ7wNoF8TxkIXVs+9UqaUG4WZZh2OR2FRKrweXgZl4lyUg+QoAAlIJeFZjET5HfCkDB1HiZv3UXDp3V09+zl2P3vCuwH8ZYl8FCSPHmgYq1I7XpxuYpQg1kGzHXFKno5997uFzm2w316SvFUGI69ceCmNlfxqLrmrDFTek7NOd+aRTozA1XzjzXoGeK3uKyAGwgxOoGYOe16ANPAD/gxC+4p9Y8AANzbKnAjDEO+eN2++qyhxXt34jNe+oe+9z//VwM5zl/nOm2aEeIZ58XJgXAc2jpGuesBz7LiMIQDvmTY+8nM8VL9jkId9zDtzO1n0aXKTcQut2dTVC3WY88ZBljkXdoNBfBwN0P0+/5vw+wb7NbuLHl5Ky6uHHZABXIqNtb/Miw/NzVunGJPZm9g2ypFHQKEAd8oHVco7YQTwCsT+eAbajcoHcG7xfJQskOcZyQqWlOc95SN2SCnHk6/UfUC/evfLRB0WYo7Z18S9mcY3NvXUKgKUDlHkxp/uaZK0JBJa0lTiIiXOA9rP5tqScBVDajcZ+cdNsfLKhZssPFMT88jenJnr6yOfzANGJiPBqzlvrgrZmLfmNu9U1YW5CHhVm8gl4fFr7JQ17J3HvsIBDAAGouOZF54j9y7sTPIHnItxIpPd/fY+tfRAuJbRxXDNnHeMxNc1pzIHxdeNg0HCC5e8Zwyoec+f78nIc+j6/R7Ip6mV51hSLIrf9TJwloWNsBdkJlaP1RLK0k2QXHj6wl0SWZ2fMU+OvR0/CTTYr8k9B7Toesk6Htws5JFEuKzMFfqREgkVTykkhuxyeAiUCWqS9y22x4tPv3nAh5qnhLxSBPaRuc7T0Y6UUnJcngBwFb/XyYzHpiMahWuctVZ5Kzo/tOZMc1ZPP3X4c+x+9uwpKgoSqNz3vvcdXf80+JGgCOwlJjFCxO95RRKTXBcmYj+bsWdVshgfuwX7mdHYzzjW/bdCQcI/cjuqV5/wUcA+MqlgLxTjGQDS82Y/x1Nm5xnhIftfeR7PngdvLkjUA47munvveBZDCh0uzJPGPpVZcHzPE/D2fdreOg6jwr2PoV3DErxnAM2YZuR43uyLiWCIqO33zGKeGBMBeOMhC8+i8zoP0E83P94/hmKrJjdVPrL49f4H7Mai54SkRAax5zmMoPkq5KHbYG/HTwIN9od4z2cvj4XPG+E9UxDijWg3CsB36YudnuCUQsqF6rApJ2AdSh4VyXtxTMpI3JNnA9i9d3ygGa/c/mKkFMRpp502spV9x0PgyVMeDAeAyZu2ofXRpJQRBUNZJT9gKyq/0voB/pqotyxJr2bhU5rOJfaZeD0lLxFMMpJwgy6A4pMpRfI9+te17DeZLlnWySXYbfndcQF7gGYeZdVD4BWKm8xqi9w6f4Gu+aqng2Y6KOr0aKj7mYc8eOALFM053qweEWhs805MniHgecgyx0AQqyWRzVzgpVfgDjNVy+uM3X6h1bO/63Hfhb2cT8mc+QjsGcfOgYkzBzESvnfuHAeTZuyOwaAwpxzL71y3PyzViWzGxEAiY0a5KhohLfoEwyKkJXkPg4chUGFTnYMTOVfve3Ql0GB/ku6dB1SLWd22eEFKxygLXikgFnMEzLxvyoBHkIYflAflQ+kBeEAs7uf/rAzmdyhAoIeOp2QoVcdgHPgd7593zuBQooQSl9Rk4y3xjDRGSZIUZVsBU3mb0jYGBdB3/mT5uz7vbTEC6uucXxCgD0UeinXOznctVrmj6HXIE1Kg3HhvSg8pNbS+jdzQ+DxARsB+t5RcNdgvlyRmRXwZk+K1GnS1kY57mvsf71qsGU2tRG4Z0OvamLIz9xIguh+WW5WEyUjwezX3mCpzUz6HuDlvlkHrO7+LEZ0xmKdJwvNqbgHnuXMimt0fQ9xz6xkyVs8ZAzllcMJHvmecuz7PcjLoGQXOIYFR4hzvHcCbq3U70fCPZxngS6T1vAJ7C1q5J4AdU0i/GD+ZeVb2a/zu93nq3x+uBBrsD1fen5Qco1QIHU6JURAeUkqRghJfA6I8aZnvvG4KFFj7o6C8UkiUChCkdHgIXh3L74Gm/dD4aEQ0I2OBJ0WpOaY4nzHIfpbJK8aNrqeQ/M9L4iGkrrmKzLEYCih+ytZ4KOE5jj8DfoyAKLVlMfraMz8ePqXJu0Pnou8pcAYSb5JSdQ3YEQDv+ilmIRJ5EAyg/Ww1bm+8u/GOAijHQbECbDXw+tLXLPyZwk9CqXvhOyEZBtxWiZRAKy2RGcXmrnvLKDYvzQ2gpuSOAY3BMqdVBfCwGYSA2WvmpnO7n7VxTmLlnpcYHJ4f88p+PHh/rs1xXSdPWVgBO2fOGZNwgufWtfHePT+O6TfoeXMXyM917ycK8PNcth4E3SEJ0XiEuRgS9IwcCHLOUrW+q8zUfs+9n+eqf3s4EmiwP2A57/QQiX+joSmE9O0+9dRTh3KjwMTX4lHGUwrQ8AYAGID3R8klSchvHDPNNoAyr4JCohwZB2g+yXiAEHDylO2ntMniObxlio0XQJFutRnXQx/60HMWJ2F8xCCZPfyAfowBx6xZ+cvq7NNGN3kLwgc8QNePvicDiUdil2L2wg3G7XcMFLFLGeKriFUmmarB/pNnA3ZIw6XU1idEZK8kwyVen3nsc/NN9zueaFZZq88MQ44B4bhA1VzERjFU0zJZFQkD0H5yN9xzzw8jFKWuFM9vgSCjtoab6oI2jsnrtqHasWGMYywBY1b4SwzeH6OWoW7OeQ+8zUcJrsIKDAHX5Dj296wptasA69zmk1djqnM/yYzLjMStdArGTuyejDB6DGBGFNreJsThmhjx8nLomf2wCQesOvvwK5ZAg/2KBbodIAbYvHpgxcNluksySlxZjBklKAbJEOAJ8E5tQDTUfgCewksdsmOi83jwofZ59BQKBYhmzIpfiQuKc0tiEl8U16dcUaY8Et6AYzMM4o1t56HyoHlnEvooFMpzWab+Vg135oz8gHxe0wuckhU+4PFRWrw5uQYW/nHdMp/T8c71ysim8MWT97sBA+PPmEJDb3ffj4NXb76S9e1ud7tPovCTzAi8EpoJsJEZgxJQ+t0yOfncvDRP1Y67h+hvHizGS8dEYKbcDJg7lvvjM4YsIxZIm9cy9YF++kGEvg9blli8/1/1qlcNILfJAeCNm9eMZ96958NzIRkQaJqbwgUy+YG+eSIZ0G8ZOQwChoP5ycBJpn+AO2GOuSSQ98+Ad27X4X1lBGK4JAzG6HIeiYr0B3kZo4x9spYEKXZPx2A+tss72clR2e+z1L8/XAk02B+uvM85mwQzXet4obxigC5mbpU5ikuykjgbbxyNiH4D/P4AfMpnPJAebtQhReY44ve8BUpHLJ2BAHxZ+2hwQOi4fqMsR4ggy1sCd4oM/ccT2E2yUJSC13Qt42Vk8Y4K+Mvo/Qgl8fqa7V7j4xQeRYvG5UGlrMg4hR0wExSi6w4N639Kj3Jl1Ox3iycYlmEnsN/v+Y7C7+VqMLrkdJhv5k/CF7l/8epjNJKb/Ar5FliZZRvDUc4FZsbvgJV7CFDNAeAuP4DBzKjl2aPVfacnv06KDASGgXGccsopw7NPXglABsLmPABlJHv+sELYA7F/z57rU8fvOOaTczAePVPmgXObf8YFWB3D/94Lz3nOPJeeiXS4TCVNwhG1JJHsak9+711/EnWTcOvZNB6yTHY/2WPq9AoQztMC2yI9jKK0lXZOz6bYvRK9eWuQPwpP3YmPscH+xGW271+ooUe1ofp4H8CXF8C7Fl+jKHingN0DiwbkzcSi99BSPv548hQJBeeh510lqQ+FyCuiFCiTLEdL6VBcserFM5UNof3TmtSYeDjJgGckUDIMhiT/GducWBThMGAocr+Lco1HtSx+73c1SS9eYKXwKV7AbQwoUsYQxQpkxO6FPSjhJGCRBwXJq8MCAJetapV3e1MTt6912rv97abuB1xQ3bxHc8xWczHi1adU0X1mmAJvLNK8DLHfy2LXrVGSnflmvurIx7A1r81PQC68JJkU6F33utcdnjRwxQTklYfuOfBdSuqMKe1rzaEc17OCBfM9g5jhLLENY+B5ZQRI3vO8pdWucfC4zT0NnYzTvI+RmWfIcfxloZ1qMFYDNwakucYgMWZz2Dn9OT9ZOgcDg1HiuU+DIAaGpXE5E1gwLId9st6A2D6ZA3pyih5okN/UJ/QT19Vgf8D3d36AKBW0HyAXZwSoFAmPmLIA3l6Vy4jBAzYPMUr8bW972wB4oGy/JKEFgAEvRQgU/SUbGPhRFhRmOoAFeCmWrAaWLOkspWl/Ci9sAa8oSYJZ/INXRGnycoyXskSrYyJQ7ZS5SzZwAAAgAElEQVRNwgB+UxcTqUZAboMxbOXhU6gUqCYplDyAtz/vhZzR9WQbwMlxjA+DwZORj7DfjXxsUdb7Pd5R/725ypPEsJiTiclH/nMjHderxTGDFoO1bFOhIrzl1f0E/owD883xAZ2YNI/WCnvmnDGYd8AupZa6xsmM90xhhsx14wGGjGvvfe6Y6TBp3ptXPHPhNYAKdLPojWcnrXaFL8xpwCkpkNHuXI5ty7MVmYTZyv/2qaGOHNdY/KVc0e/oCs8xJsHzzxBhCNjPGDkEXs1LIS2y8D8WDMshh4EeYQQwaHznmZDX0NvmS6DB/hDvMeCkwIAfxUCB8BQ8nLJjlbnxVmXNeoDTKpPnIQmJ0vOwAi9eNY8HqPufwqIYHIuCoRQpIV68P79L0hQlXDvcRSl7TbZy4qqOl17iROV7CoZCFHsMs5B+3lktjOHBi6H0nJtCM6Z4N+nyZ8yJ1VZF6FzGEA/afr4XSxVrJIssZQrIyUftPwOAQZOkP8dhiFjmlBKm8Pa7kSv51QYx+z3mUf09A1TynDJNMmcIpenMnFgZYHO/GG2MwWVbaHmZ9o5vrmNlACsP1XzmZYtHY2zcW0aBJjbuNc9Vjb2EONQ9Q4GRJ8nOKnPmjnuXJlOexxieqcV3zix4k2ch9LrrBJZYOICr+sPcA5rmn89qZ8n6TCW8EScgz176EOR5M9/TETMGQPX4PWeeQQyJskIGuWPSCea5Z9R1GxMZKstzbeTCwBIe4d3TR5iJ3TSIOqpztMf9CQk02K9oJuxEgVFQHizACeg91IlpyyCXPcxTUVrEU+dFeKBR+Lx5hoGEJN/FgweYAW1AyvNNqR1FEC88yjcJcKHRA6R+Zwv9Xb1/v63AWf+PRxJGwO/9FtVY19qmiBKzNCb7ZAnPyC1Li6YnuFd/rtGrMQg3UNgyjil/oK/GGn3/yEc+clCxvLG6boDr8ntKnkwp5b1uUdRk4FpDT+/1eJvwO161eSp/AsAk+bKCWO2ZAJyAJEAXFsqWeaDSgkGGek5jGwYxOl/ISxgGwwS8ee8MDWVmEtJk4gNIDI/fa7jD283CTeh889IYk0gXgDSP0s42PQKMOzkGtSLG82LOCcfx5CWmYurk3zDoY/AsM163CmHl2WSE5C+0PJ2Rhlo10ZHszHXPk+dL2ELegecaW2gsZIdxE7cnJzrGc8BQ5iAAfN59elNswpzsa1gugQb7A5oZM/irQQY4vBpegzpcDWxY3KHnPaiUJkudwuCl8G68V9YU2jhlbWL4vHqvzuchBvKUbsp54jWHHk/Nc9bU5p2Lt1KIwgPq6vXjB7IMFIokAB/PolKQCQc4X6Xlc/1Z4cz/ABIwJGeA0qZ8vVJMKErXUOOqrpkhgya1r99T5sq1yETHMJQwL682D4qBksQmMmNUkT9FuJ8tYB9ZHods+xmU878SSEArwbOC/bIkS58BaIDOq+eJV4/SXARCnhVGLsPO/DEXUfhYHWEi91Jinux68XogB/yBvXmoMsM5jMuzBeTMDSEu+zCW/Y/6Zwz4TcIP1TAxZ81p32dte8cIM2GsmAVGi5a0WWe+lpXmfVZNzDK5NVG1lp7m/ImjJ48lnj/Q97wn9h8jIKwKY0qIgsFt3AwGIS+ytIgQ757hZI0AZXmYEqGvuWHWfp6P/u16SqDBfkX3ZTvPnifDW5AhbJO8hvbURxyAUVS8BApMJn42cXzJehSq7HiAmF7cwNqDTAnFi0+p25whTlHkd8bJAxbHlJTHsLCx7ClBSXUUEUXsM55ywgEU30z3xVPxmwr4tbGO49c4bq0npqQCnpQ4ObnOXJP3xphVxIxLSSAviiInW16VRC/UbvrXJwvcuZ2PcscIKI+i6Pazhc71CoyOE9hXuTGeUOa864SJzJEKULV80m/NcXMqazaI2/PAs/4CT9P9BVihywEVsDcP0yMCHe04OueZPzxs5XHYH7Q04DUvjJGhaF8eLmof4PmNuRaDLU2b8pr5bD55xrwCenk2KHAhN8+qOQDoa7Mr47Z/PkvWf1iPMETkUYE+TFtN/qwhrjxfMb49/2H0yM8fFsB4hdfIjSGUCh5GvTHTQ+RD7q4J4OtD4fnpbXMl0GB/QPc24C9uJqanNEmykNIxST88DAAsfiZhBsWodAyI85J49UAJ3SkeyWL3YCYjn8ftgY0XnLhiaMck3vEAKEnK08NuPBSB71F8WTWOAvQZ757FL6vYOY1D4pMQAhaBV57GMlGMFczTQa92Ksv39bV6NnOiHq8GiFJmxm8cyq8AP2+NZ26hG/kK6HsGEwNKmIRcMq6qSBPLBQhpMrKfW5/rO85gz0MUVlLLjnFJSKmGd6qHL69Ch0OGro2BK3mMocCrR487JpCKfHnyQi+MXudKvB5gmQ/uZWLP5oWEUJUaDERzR/IglkC2us04baHKYxTWEFf15tOlEpB6LuTTaM5k6VrPlAY6nknPYio1PJOuKYmcMX4y35Yl6cUoDdBn/icPJx5/DM2EOJwjISXyY7Cb667deRg/nnmVCGTqHnjuZeFb5AozQX68e7qmt82VQIP9Ad9bGcq8VM0sZBDzSCXc8ZqBk5IgsUiAKrkHoPNAxaNl1ErYozzQdTwEYJZlMZMEVL2S1Azbz0POg7fcZowFoI6+pAApBQoh63RTBpQExUipGCd633GcW7zU+LEMoT6Jr4J+vPTQ+5Xyj6grGxDFl2sJ8EdBkpkxYCF458IfDBLlTRQY2T31qU8dgBDPPgCTY3ilrENvil/udwsgJEyx3+Ot++9n5grtDUjR6EA4tfXZr5aVJX4vCRUw8tLdd/PG/ro1MoYZu+YvCtpmH3kt4sxyA1DuDDv19cBfhjljwXPk3qeZDc9bMh/DQa94jWxq1QkAXTZHKm0frzwJsTL8hY948eaf58nYPK/i/wwPMqhhrxgSOW6eiRhFeY0RnPlas/MTo69x/BgEfpfQWEJg/gf6jCTjY6DTAYwkzxI2QzgRIyJ8JgyWEr6sWLjuc7HHtzcJNNjvTW67+hV6E72sDlnHqixUwSvl7UuMQZ/xrj3MQJniEhO0v5ggpZOFObzWWHyNv1OijAree9p4UsgefIlHAJ5X6+FP57C6IIjjZotHnPIfylIM1HEpC4qEscIb8D7Z/vldAL5S+aEuK4VZacmA/Az2mrRI2OL5OReQBwqUv1gkINB1EFshFyLGR/UovSdf5wYQlDZZ7GcLzRuPaz/HWvffzkDvf3PafOVF85ZrnLpS47kPrlEsPssRJ++EcWm+M8R4lhiuhHacRzwcrc9Ac38BKppe6Avb43Oxe+EAzwADVtc9r34HhJPVnuqJOcST8+W54C3HMzc+1ykPwHPrmVJhIpGWAayqgKdsrP6PkVMNh2rIxojJM1JfazgoTENeayy/Ml+5JvJP/b9nxbON+RK+oANcA9bQ/mTsuRKnZwxpqkVHaD0tzNLbZkqgwf6A7itv2MMDnDxUrGieKO8ESAFKCWaUFGUVK91a4Lx5NBsPguKpJXMUQl0HW5kPEOaFi/FTUh5ycTrHEo+j7EKvRwnFM62veZ8VwEJh+g2Py+e8JuCehCXn4e0ITQBviiYdv6oiq/HKfB7ArKCfZWQD2pQ9sOcxuS7epPCGWKzEPHFH3qX9XGdixMvAHgBgAniWAGE/W+jUCmb7Od5R+637wCDVHMq9CVsT7zSgl//lgjAYJVLW+D7jEyhji8x7RluOxdi0L6rcPAfmPGl5GrLnGdK8VnQ0pioAJgzACDRP49GnDW0SVWviao3Px7j2mq56us85vmNgmDzXxs24dn7z17OdkszM58yReO7Ok/de03cieTAxhCvoV3aq5rrEu6+ef5L6gD5948/vjc25yBLgG6dwIuZDFj/DCZvHmAL2HIPeNk8CDfb7vKez15PD6ebloUIxow2BiwxksUaKgjHAo69NXig7Dx1Flb7cidlRPOg2gCa5Ca0I5BPfBHaS1yy44aGlDBLPo3ySUVyVWUA9GcJpeON3KY/zCsB59I6BGhRuoIjFXCUAUaq8hyh/iVCUMy/IljyCCvJ5HwMjpU3JWva7NBMSAqHoKHqJUWqnUb1ivwBchnc659Xa7uoVUdT2BTiStMT497sZe4yS/R7rKP2eZwsA07MAiOR+hrKPJ5r/MQCMNQZaVsRzfxmojsPr95usPQAYzfcsyOR94vUqVBxLWACtb04AYOVwQl88fvfe/Qk7FW8+QJrXAHI6RroWf54zc9jY0ikS0PPuPWtZc8LzoYqGdx/jZJmRG5APoGdsWe8h8yi/nefDDPq5npoAWeP9fg/0UwpIXuQu1CGkJZYvhKj6B5VPn/Du6S0hkt42TwIN9iu+px5W3gtqGbDw3L2i7XmgQFF8GQ2tx3Y23j3AQ2lSHjbglmVvfYaCpnAoIRtPhsfBEgdkaXjjIc9flFcF9hqjD3WJHqUMvOYvHlgUIoUms5mX7xgME2OgUCQsMUL8RgxTbF0cldLmPdQwQbz8Gq+PQVIzlyklSggFSW7yDRgbMYr0TudZoeXlPPhtjXdW4AcsjieD33glW81VC8umwlbGnH1zHXOFwokeZ8VT8JMOt93493pec5fRKMZbmzU53jIK371VBcHg5cGbZ+YdAEePuydi7OZ4BUq5AL5nIKOjMV3CAEJfngFhMp6qeL9jeL4YIeYkQzNlaZkHNcwU8DU288bzkqQ3c8UYHcucMQ7PnTkmlMRjrolx+mAwlBkFjlGN2hqSiLwroDM87eP5yfytMqj3KOOfY/sz5e/7UP2+C0Nn3puzdAq58e7DIGJHXKc/YRJ6pbfNkkCD/Yrvp5g5ih7Yi7lThjxRn1vwQ2tXnq9yOnXDQFpDHXFxyUYeRg+ih5T3L57Gy6cAePcyZzECDAXKDJXoL014krwXsE8pmgfewx5q07Gyxn2USzL7KcAo7XTyopwpQKArPCC3gCKk+OxDwRoPbz8Z/xSOfQE/Q8G+zl8z8WcqPx6+8zEmyIwMnctxyIznQRnx7GXjC2EIjyTpK15PKM4ovtD84rx+hwXZzxa6udKwlYLdz7HXyWCYx2LuivW6BzULP158wNXvvCdvhiojWCJZcjmADiOAAZCKk8jUq+dEuECHPPPe3FFyJ16uRwUPnuHHAARavFThJExUbUJTE+Wq8RMmy/wK42Vfz4zn1DjNK3POtZrDjp2lcBOu8lvZ/wwBhnCy8HOu+TVzxBw3Tl43piorNS5jwCrFH9BPSCJgHyMgRleuOyEM10WXeF6F91wLGTOeVLl4jsiSY9Le/aqf3pN/vAb7Fd8DDWmUAAE5FCWvlBdJsQGd1CEDdw8WxcGattwtpaE0xkPHW6BIgRyvRkIZmo1CkAlMOfCu7RPKPcoiy2dSAt57yIGwLFxKg3I1Hr/LUrjpVFfL1vze/l4D+o5HYcd7V5LnN2mGw1AB0kkWdB2UNKVCNmKtlJJrSMJhvPoAfWKexsiLzMpegIGXJ+6u+Q9KGD1sf3KqYBMFmCzm9EQ3Nr8HWBrzHOZ2EF628dda8ABYrfGOFxqq2nfJjQjjU0M+NYad6gr7pZ+6uSeZLkl2AeiwKjWPwZxXWULuykwZnPY3n1DJvHOJqvYz9rAlCQOI1wsbuL+YLrQ64JXvgiFDO2N2MGOMAGEthmwMvHTBm73qORkv5aTmkHCbcfK6Ab3nhbGRpk7Jf0kujXOYz47hmfZ9vdcB4RpKCGDnWOZp2IZq8CzLdbHf7OVXmn+O+ee5YIgAePfPM+WZlBjJUGKsYE0YNO6Vz9q7P0ztcPDnarBfoYwBDwXE20gdPLCTIAO4KDjUpYdJnT2v3r6+9xnvP8lO4mkAHqhSxFmEJpn5UeahHgEwarMmuKWznocbzWkLVee9GCMF5NgSo7ynEKJ04iFUZZX+9pSbsVIIvDLKMIYMoDcung4mQFyf0YPmp8hcO7bDtVE+/pLwlwYmuS2amJAF1gFt7FyMFkmPGA7xescJGxGvMrkO6SsO7P1RcMIqPBsx3t1s24F0vpuTG11H/iqg1s8o+lwveVWjJ+GMGD7Gme9TshWKeM6ErzkSNbab+xnWpmZ4p667xn19Zg7ZHzgIFynZ8soTTJlZZFATyHIO+/ASxeSTTW9/ZZS8Z/OSAYfCr+Ed4M4LZSBkxUa5IpLyPEsqW3yPisYySbpkuGZFuVpeN4NoDBjyz3MUA8RxsygVoDe3GNuA3hxMTkllp8jbsTxDYuLmvHs0h5TiiRtPfl8p/RnYcx/nORovP9c1e/oV7LNvpfp95jo8D67J8yVJUu4DHYSlY0RJ1jsoA3U3z13vs1oJNNivSJ5oRZn3KXMTX6aMeCbL1oSnGHg1lAugpCDE99WyJ9EHgFOWtfyOB41O9136zEdh8aApG4BeKT2K1P5Z/pbiYjQECLMoCKMgXbkSz64UYQWCLF1LWfu9WD4AT+Y/cABkPCQGAgVinICaXBgYPDWePurVeXhlri8LlGAjjB1AUzroRZn/QI+HZzySGXleaWpSDZQAf2rhnYNsGR1kIAwA8MgtSjwZ1endXysFasOgKGzjqoDsf+etyjwyzFTLPgHiyHpOLpyBt4J0bbZSwxW13WuOF5CpyWmVKjauWh4Wz756+PYxN/WAwIqktj4Z5su8V3LXYU+DJiAdrz4hGkwNFgxLw3iMR+uYAOiMM84YhoLnQ7weE4NydlyGGg9cNQZmgKHrekNZ15LImRZPFnyMLf+bo8JoAN6cFENnkAiXMUbNr8wR93v2vp03lSjmuu9rBYD/I+Nq1GUeVU99Buh45vU+5l5G/o5Tj1HnWjUo6hzyDBirZ1icnmNCXzGEk/i63xLVFanXPswKJNBgvwIhepgoQD24NdGhFNFiYog2Skkcm0eEdheHB9SAh6KTSc6DYmXr0MULBpRZ2SqtYxN/91DHuwu4AVLekBhjlLcHm7dDkTImjItSdDxAG6UTESRRieLLKnrVG6zg5L3xizdS4rwhxgTAd50Zn+/tl3W47eMz4yITcgKsjCQhAd4fQ8BYTj/99DEOhgOF73rI2TUCAd+rc2ZMMYqiXBNDj6cUkE85WOhMgMJLdK6AVcIW/geoUaK59niM8drmTmwVeKunW7PT6zGr9xYln9fq6c6ANYN1Ve5V8c8gMMd35/8rHeya4wW6D5obMSYlwqWJTn18qnHhc7Kxr3srASxgTxYMOwYbwE+L1wr2WfxGgp777XmRfS9vQziBN08+KjXSBz6rM869D5aBfRLzEgJyHKE0q8ShtoW1VLeYi56XME/JN6hldDHeyE4yauZ4mK5qJNbKl4B/ZDhT8ZUZqGGJma0JwxMvvHr2c35MzmUeM6xdp/nvWdDhUzjEc8mYI+uO3a8AINbkEA32K7gRWnbKok/PdcAjQzitcoEt2hkwnXXWWSM5DHXPsrYPi1r8EgB6T3mlrMsDX1uyVqs/SgZYUgDA3Oa4lLJjAGH7ATVKwHcedF5L9d4DUn6flrgMAp56BfwqrigVypcx4Rp4N65NKVSyk40fWNgvrVGNl1fhGDx9Xjy2g8JG8+vUBwx49UACxQhs7n3ve4/YP08R5Yjmz5rhicvXGu+AXdYGD10duVbwnpVtjIaqjJdNlxgIec05I7dKs1Y6NfkRM/1d95m9uYwp924rb66Cf+5TBdMZACsomDcJS/hcHJqHK44rdIJhAb51CzAFiMKYiO1LsgOAab5jLip95FFKuJuz8B2XgYfCl8NirvqN7HiGsYY+yu8Ye+Yd0KqGXsZQZVCvNzQ+4DbHlccq2TPnssKk5E3PobmXJMTE4iPHGaQZkeQCPIFlDITkUdTX5CdUzzzHq0Z1PHHXV9e4N29jaGYuVA++Goq5n2EXMk/dI9fHkPYM0lFeVU0wsMhdvkWtGlqBuuxDnCQJNNjvU/CS6SgJyWIeDg8kOp+S0jyHMkI9evjFioE9MKPgKLvE9pIABxA9hHNMr8b7ouBDv4cWdQxKUu9u3ojmI//6Lx9dXPYbL7348Ac+uHjt616/uMjnff5ouHOeTzt7ffjFuRfv/+AnFp2xpdWm44eS5IWz/uM1zIARYKOg7GsTo7dJUlSXnEYeWaoT8LsehgdF7XeUuXGIwZILowDlL+ub7Cx0Qq6+w54IG/AuydmWDnmVqq7gPRspzh+FOINxBdAaDqkeU/apCjbv59d4cJXKnRVw/t/p1ZjrPvE081nmTf0/55+9POOpnmoMyQr07ot74F4yrOSlBLQyJ2LUVCPLezS858M8nCn8NNJxX0PhZ25huXjU2ACGM9B0v4G83hLi/0r1hABivMZYndmF+f5Efq6BQcybF0pTQZOVF3n0DF4sWM28jwHuenPtleExv80LIYesSsdQmBMoE/ZZZjTkecrzHsOvVpQwKtIWOzkKvs9v5zkQw6KGauybEkM6wz4Ma3pMFZFnmLfPu5cr09vRl0CD/T7voQQ1CTzaxwIxNBhPQWxZvIshwFr2PwDlmfJYPUh6fKvdBVRRJDNY5QEO3Tt79tgAD2k8BPFL3g/P59d/9dcWX32xiy6+6isvunjFWS9fvO/v/n5x9ctfbnjc/744OxTwKedd/PfZTb3+878+NpQ+xZmaeEoktcdZUctYQs/nNeMJKIbaF+MUGxfbR43ylLJvsqWzYhfQdm4buVBwZOb3FC75yoGQ/MjbAwBoV6wFzyw0Zk1wyviq0TR7r9X7WQaEc8JUlHOuo4J6ACCvVZFXmjXf59h1/+p9ZlrmXPX4mRN1btT3FSiqIZN7VJmDfD//PudlwJqjjDDJpNirNMWpczXx8pzb/xK8ALJngpfsmoESMFRlAbTNl4Sncg/Ei5Xq3fnOdx4hGnPDc+N5AfqMAJ37MEnn+5RPeLjnPu8n4vUB+//HZvzP/1/3fq7xGkPGvJRng5UD9OYZr95781GYIYZGDKJqOESWrie5L5FhjAaGfsr6Qt/P8f78pj5H9f7GkPIaVioLRIUt8xxlDDVfJNUtCSOEmciz4RqM370Rp0/LYvdawiOngCG+lXdfjb19qtH++SFIoMF+H0JWA85zQZ+jpK1el/734s8UE++B0uDlo5kZAGLyFIv4MyMglGil4yoo1PcBdQ91yox4ETxkSlWW9MN+7/cXt/+RH158w9lU3I2u+a2Lv3n7WxevP7spyHnOpmev9E2XXXz83OdZ/N3H/mvxP595duvMswH/4+c571CSFAZFR/HxrKIsKKy0Kq2AP3smvgsFGSBnPFB+lAl5eKVkKC77kInxU4wJM/CqfE7RO7eV0p7ylKcM7xJIqK8m93jnUY6zATLTmrNntkyu1XuvADt7+7OXP8e+Z0CuzExlSUKpVoPA+2r8BQhS112vo157ZSsCEjkupZ6KBcerce3E5mNQ5h7mPvGsGaryScxz92c2SgP2ARBzSOa+xC+eY5rvAHIUPmMOS5AsfOON180YlTwpRs/IYxC459ZEcH6xZUA/aOyz5+4A+bPncZiFT6a1/y/YM2AAGgPCnCQPxkVWUvRseiZTGjrH1qu37ZkxPlvyABgvqW4hj1RaxJjJtVawnOdd1FI19uyTpM2sa8/YJV/A7xmNwVMZjBgaqdSp1xPv3vNn/J45SXq8e/k0mB1hm+Qf7UNd9k9PsgQa7Pd4AyhAnoEHH9CKUWukw7MG4DwEcWhxRhnMkpQ8lChCdfcofQl9KP3Ux89DqZ5j9TKdkzLyd6ELXXh44Fe44uUX9/zley6ef3YP8m87mzpXQHf/u/7C4tpf97WL1//F8xfve/fZffM/8s+LL/7CCy0+draCeuHf/PXinz/j/It//fSzV9M77/9bkz1xb8dOMl8qAigGlr7zL/NQAjyhNr3an4JK6V9q/KtnVJPcQvXn/DE4xOwZSZQa40oWPuCguAPyOX8FoirDKFeyrGxA9bK9N+7KDEQ5+y6eUwydAIv9gU0F8tR4x6P9/9i7E2DLz7M88J+kbi2tVmuz9tVaLK/yIi94geBAAiHBY0IKyJhMYBISQihqCASqGGYhM+OZCiGVYYaaSVKTmqrY2IwnOAUUY8DsBixblndb8qJdrV3drV7U3epl3t/pflqvPs7tvleyIcL3VN06557zX77/t7zP+z7v8rlOjtGXHVwjxH0X8Ihwz2/u1YMG088Bbr915qdT2on7iNLS/cKhgNP2zgAYP4wK5c9c7lkPnTWIzzzP+K53vWthKfLJO9e1jSUWCoXPauRuSi38WN3eAQ6rH0Mm9Q074OUz/z8lN8rFhg0nL/p0w4ZTF31z0kmnHF1Gh55RjS/zwPNgjP7Zf/8ziyyQ8y94wUJxlFOvPzFlR2pYPHk0jfVIznxeUdrcMz70AH020PGcCaoFwN1l0681z9e+/nNcVxCiwMWPn8wZcgVT4Z0CneyT9Ln2JMUz2SZRGDOnrHX9a52i7WUjYFb46ykCmEJrtyshKykoz1Kkrp/2Ve6BdbBfoYNPRFEBHtou6xywCx4Tic6iR3VaLIRaSn4SboBKWo/zlIGNf36lMe4LPsIqVh8q1OLeuPG0hfb9L/7lzy6u96Lrrh8PlzD829/218YPf/ffHh+v1Ketn/n0OFzswsm16BepeS976fh4+fBv210Fd84qf91RyyRC3nvyq4EuGpUwSGoewULYEhwBLM/Q2xigCiCx3glAwkQ/AGqW0+xfzHVcXxtYlKyM7/me71kE5FGgBDiy/GQ5CBhjOUUQBuACsAGkHiUfy7aDaSyifBfQ0v781i3i3Ce/OT4BdwHnxBF0q78DcLeg00/9907H5/t+Tgflfo8I4ZzfWYkwCX1udV9ujwkwvixpMSdcKVLfUgGxA0+etz+/Oc51o9ANZgfg6A/+eSmngMT4zhS+YxyLqjfHReWz4q0xlnjcAVEuNm485ahFf4TCn8G+z0tWMMXjv/3p/2a8vIDLHPzDCpoV2X/6pjMWxXuST7937/6jxXGO7H/QFbMZ6PueEuZ0gFVbtYlSEOXR/7PisBlOXgoAACAASURBVAw0s5bidsh4ZfzS5wF8a4oi4xlD60cR7YxD6jd0Kt84UOJcy7NQtsRpSGs0BmQG6359R7yvMhp/lS+/DvbPEuxRXIKLUIp8ifxaaMkEs6hGJYrZCwVJWFqIQEv0K6FDU2Y155VF363DWJDdYmMNeVmEzsEmoCNZSu+roKiXvvDq8Ys//7+Nuz71yXHzb/722LOtLJUSuDvqnQB4ZSkcj5x08rjt4aqxf/Y546nyd3Zg6NZLQJ+QZ1ERvIQZC40Q69XCAtydFo4Frf0ENGD27InEnwPJuiWeyntoX/emzMjb5melfCjGgkXpaXfJPw9Y98CtHkDW2YcOsN1a7XRtPs+gHOVgBtiATEAiSlrGc44HmGMG4q5ZFlfQAWxmLvp0ni31zKE+zzqI5F4Bf+NlDNDnKHmKa/fXx8Ls/aePWc4oeEF0xiOV9oCItQBUQ+HnWXJPa4RSZ105XqCYPRa0If7vXmPgGH1f8zljtwDnMsYXfVPfe64jmSC7x8/8d//9uOiC88fVV141fvHfv2tcd8OLxqtvqrK/Be4PPfLw4nkTVJf+mIE+1L3vYzWnWJJn9dm5KVmd6o5Rzub5FmWig37uHWarxw10JS9+/BS7CqXvebF0aXuu04s1Zc65hmOxGtalPqfgqTkgq4jr0e+UrW7df5Wxaf3yX+EeWAf7JR06C8Uc0q19WjuLU0U3UeIquan9bRc7aSvyh/NihVpEIlvRmuh7wo1v0uLLYp+bMgtyQoKwBZaxrgUqYRcIQ+0oCTc+VLTrS887d/xG+bo3HD6p6Psd4747vjS+/MUvjd1P7hk3VPGee/ftH3dt3zFOPqf2tz9qbXRLsoMbAU6YEBzuzbom0FlGFA7CrVuK/XlmdsJ1XYOl7xm68MnzRgixCClSgvLUJpDSh1LGoChAxG0CFObUqxnUlwFgv1cH4BlIZ0Hc2Y9uMT8DaKqfZgVu2djOrEjufTww7+DcP/dz+73S3q4sdgZm7occBwCwUVIc0fE2HQrQxw0yW/QBf8wLpRDYG8NYkdLvKKbGkcUvnqNbsK5rnTjf2AJVc0RUP6UTMzQXExKYt2A7KuC0g2WUTLvKmrvu8z/+s58pJeDgeNWLXzLe++/+73Gg1sCVpRhfdMXlY+PZW8YTe54c25/YcWyTm96PnckJiMYXnjLEibrvKXosZscDfK+kzGWOxtLv88dxnWFJBcbUxUj/R9EM4LtP0mDdzxqL+8bz5/y0u8d+6CPrKMoLRctueGSc9eq6FGvW/WyUfIUxaf1yX6UeWAf7qWMj7GYA7kDvN9YkgcWipgUDejnFFgghSajlhc5n5QNj1cRY/4SahXiiVzT8+JGBbDbPwBYIWBOVzq/Jqnjn//Q/jL/3N//WeF8Jy6vK17aL/7GE5PaKxH/koQcqannDuOIVN46bi069Z0+xClvOHgcKgDuIhY4N4HdamgDRJvek+Xt5FgIpQqj3YQcTx0ZhIVSc16OUu7ULWFh5crsJfJY8QYkG1lYUo/24BRO5d/z+oXePR3tnbGM9z+3tYNuFcGjRbv3PFGz+n7/PPZfdq7MfJwL6rgDOx3bA7+3on/s87m1xbuaVvkPfGl/70BP26s+jiQFCrtEt+/SJc81v7irR+/HXGxfXlIlCOQUumTOuF8veOsGSKaaDAeP7F6Tn3F40J3Oyuy/680eBW/jVK2L/Z3/uX4yHaw289Y1vGr/5//6HsfuOu8eph6ps76UXjxe/4fXjgaf2jgd3VVDeU+XfruyUwweP7D3v1WMjzjjt9CMurIP7F+3fv/9pf3j2F4iyCtDjx8eE6d/EpIQdyDPNbEuo9+xj0IvxJNAu45C+cC1KUfa58J7Nn9I3YdIC/JlP2so3j3URB4O5ZLCIZxAnIevIMWJlKGvrr+dfD6yD/TRm3epZJrD74Wh8IMuCUeebHxLYWwzA3iLk2xdNDpjRkwQmK5w/k8KwDBxm6y1AzBJKLWsWNaHougSrfHPMwb/51//H+L5vf/u4toTrt5Y/+8uf/+w4UPfZ/fCjReNvG1sufMG4tlLzfqeourvKkjlcwuHQ0RzdTuXHNzzT1r4nQFLMBEvBr863Ggu/91sPnotw8o4ZwQy4VoqPROh7d02sBeaERUeQoRlF8ytEJB1MkCMmhSDsQX6dus8zBfxXWqIBh25tz58D9o7NdXO92ao8niiYQbYrHTOYdxq//zbPkQ50USx62/IsnY3wDCw21C9QIegBPBrX+Jhr5jjAx6QAadR07t3Zn8wTMRkAHU3vXikxa6xlr2CFUgu/A1CCH80Ha0g9ChkYslgollHiesR97tkVqWNMweFD49QKPN286cxF9P+nKhvlbxQjtPULXxo7vnzHOPmureOJB7aOU2tebb7qivH4uWeNHadtHPu0+VCVwz0K9n3+Lwoz1TUP1rX37z+ymVDAfk6ti9Wd6pHWPSYPyCeVNVR71lr8897jFogroG9U1IvzRLHQzigQAD+0vv7s67ozKXOWgTUd5jCFgRIvQ8lzXTJGhsX66/nXA+tg38YsCyHCYyWwD2gRSrRgNH0q6El9Y9kDfgud9Sl6nEVPaFngUntEvnZ/dwRf7tkBgIAjeFk37sfiFQRIEKPV+NLOOff88eE/+aPx7/6vfzv+z5/9ufHTZfm+tQT0A/dvHft2bBsPf/GO8eW77hybSuhe9ppXjQ988tPjwb17xsmnbxqHTj5CgXaLtVv13UqOYPLuWVgsct6lUlF8tJPVoM09kriDE8GN3vUOBOLjjGJACWKVoPAJSf3kf0DyDd/wDYu9xflW9e/b3/72xf20JxRvopG7b7RbgH1cw0Z0KzlTIuPcgXIZkC4D/H6NZWJhBusZyKN85Lj05UqAv5Lo6cqkPtA3idoG6BRQwaRiIoxdUh4prCxrfch1ou/R6e4f15PPYYHc35gLmqSUYmTmQjr8v9YCADGX84yhrIENcOOmYU1mn/oeXxFFLgpw7+f0TRQHz/med//i+J3f/K3xHQVSZ5b//uTde8YpD9VWy7d8Yuy+6+5ivh4dDx96ajxw2cVj/6UXjZMqhuUg5bfo/vSd+8cqd48A+5P79o6nyhUw+9WdF6XEM2mPOU3BR49bvylH7drpB/O/58THLZDdLQP4Aenuh/edsYj/vRfdiaugy7XMp1xLm51rvbHmnY9F4yb76Ec/uggqVr/DcQIsU5b7+Qd5X7stXgf7JWAfIXaiaSEIz2Il4AhCee7oZaBHWLGQbKcKoOwihfLPnvArWZCz8AoA84G6l6IzrkeYyg0mGLX3F9/zS2PzmWeM7yi/2osuuHD8wn/9U+PMEgBb77t/PFGBeI8U0D/yaFnTFU+wqazw9/7B748nRuVbn3p6BTEt3zKzA3v3WcZq0db47fUB65AQILAIiqSQdWBzjucgyFgL/LhxUUQAseRlNbDqHBOLRaQ0sAAI+tXv/IjuR7h2Cr/7RPMcHSA64Hclr1vd+bwaq73TsH3eRGGYlYn5nv3/Xi9gJcs+18u9ohx2KzdMROh5/3MDAXjKGdeI84Ai5VPwFeUtGxgBGeMEsGw8Q+CLitffXTnNs+tzLi3z3HwPhe979+LqklLX93wP2GgHdsi8Nl4UaApIagN0FiFrovdB+ilKB9D69V//9fG+X/p/xjcV83XjNdeNc8sq31LU/c7bvzQe+/BHxsOf+/zYVq6tewq07zmvYleuuXqcevml4+Bpz0xh1P5YyMci2w8c2bHwYNH+SWfLGEQhMf+BujluPehjBaaiDHifafU5YNX/1lW2sQ5T4nt94p7x6fucdRDlJCmeswGzTGl0vTB2ZJfnIm8YFeSadrgexo3Lcv31/OqBdbA/Ol7LAOlEQ8kXT4jZLQvlaFEorMMqshjkpqLZf/d3f3cRQa7MK6uexdSj8Gdw8H8sTosXyBGchAWw46f3kgNLCRALQIh+UxXQebSA/bv+6l8Z/+Btbx9f/NhHxxduu3088ehjY//2bYvI5Je9+Y3j4DnnjV+ulKN9JYwEOAWA894t/G4dzwDqN8IPtQ6UPWc22CHglLsVQU3oObb3sWux/FjswCZ5+wSK44F4rpWSoNoH6OVE22BFzQLg4pyeWjfT+N0lMfvdjwf0y8A+Y9WVtWXzZFYauoU+A3QsO30gjZLSwupOFLvjuwIwswLz/T0jQMW8uAarnPXOD0vZ1D/uY25iofQ/q14wWWdZQisDAPPbu3ncWYb0gzZzr6DMlcdN4KVjKYTZDKpH4ec6eW5BgB/+8IcXhakAjTXSKegAfoBrfu4oDp7nwx+5eby7ou1vfOlLxg1XXDlO2/PUOPtgpZ4eBfutN390PF6Kz569T46qAjAePffsseG6F47DBfb7i/qOApw0uwDrU08dPAquT29JnH7Snu4/B/TiTax3/WOtUlDjNulA3/uix66ESegpfYnM74qd7zJHtHVeA8tkTL7r8xyYW7vKCBtb80UanlTh7I3g+gIoyaKV2M8Tyc713//se2Ad7CewD8gGFI43JCh0Ak462G//9m8v/Fl8zCq9se75HVlC6C8WeKjoBLRFUHZgcL/8T3AQvhQEC5Dlw7pSDEQKn4pmrDExAb7/1V/5lXF1Fc152ze+dbyjNov54kdvGQ+WdfTY/VVAZ+uDY2fR9pe9/BXlmzx9/IH69WrUHwX7CI5Yv3nvQLkM7APiFj5/LEWHFYP6w0DwAbMiQ4VGaDovlD/giVVEaZDq4xkJ+1gqhBDwUnFNpTMBXIQm0CeQImQ76Hf3w0zjL7PEO/D3cVjJal9JgC5TIObvZj89QY3iZY2q7vaNtXe7eZJywLHuenBWvz8wSUGVZEyIokeppwKi61EQKWf6KVXiOrjM9G4AFPhir8SmUBJ6JLdncz3WP/cKRTdWfZ6LYoz1MW+ljuaerusZMQ6eXZnWbH4UF0Gfk10R7XPWZ9c0zp77X//bfzPOPmvLeGFF2p9RaXhbP/uFsfveyiA5dNI49PAj4/CDD40NFYg3Cvwlv24/q6pJXnLROHDVZePg2ZsX+0Yk0j/W8RFf+lNH4xCO0PcdZEOFU07NVS43fS7o0DtFxm9SCbFX6duuyPXPeab48HsFvO5iiBskSmNXSLuClDndWZAue+IuScVDrkdjgGUjw7gtk4rr/uTe+uv50wPrYN/APgI51sSJhlHusQWhIh7NV3EOxSe8UwJE6wtuIvxU2CMAk4IzMwkWT1+E7k2As8q0h3Xgeqx41pMNK7x+/dc/sAgC/Imf+PFxxSUXj3PP2DT+1jd/0/iBv/43xv218c3uh7aO+wtst5V/ckdZ2Rsuv3J8vjbH+WjlFJ9yfm1cc3JVfSsaP3RzF6YRshECAdT5f8eFKiZoVVqTT/3+979/4VNn0dx6660L8A4dGsEDHAj71EgnWNHAvsvWs0lXAmaAgjLAUiVogYNgvm7J9M+z3z7PNwP4PB7z2Kd/ltH8XTHo9Gi+nynT+RjPwfpNbXKKUyrlpZwwRUAVRqCR0sLJBzce+kCfoF8BiblkrjmH9e583yW9qlPhc/sD+HkHyCxUAXa2LxaHkrna+1NQKoWX9WquO8YcpnCI4jZWFN7OHhh3/SGehXIIaJ7Ly7Uo3naY9JJP/6IKjPuNX37/uO2PPjwurFLRV59z7rj0zLPG6eWiOFBK8MPV1nv27xvbzjpzPHXtFeO0yy8bG6qdJ51yxEJOcaT4yOM779Xo4toybp5RAC2QF5THpeC5sDXaxRgwNmH35vmxTBEMfd+t8KzDgH13ifT1HMMlykBnZroSmusZE/OFu8cfQ0ORo9/4jd9YpEUCf3Ec7373uxcs2/rr+dED62Bf4zTToj2g5XjDiMqi3QJ0QWOEFUue5YP6ssAJbtenEROYoby7gJ1Bwf8WHAuZoGQts3T5PCkRqsYRFGi1N77xzQtF4vTaxe5VL3/Z2PHQw+O//JvfMf5qWfC3fvC3x86Ht47dZcWMXXvGxrLoz7nh+vGxEnB/8vCD40DRsgF79+wAEIUnAiAWQiz9GVwJEBYZlwOho9SpTYAICIKCAETzo5L1hZdrAXvvrCA0MmCS5sOSzTgk+I7QJfQSxSwDQWQw0Isi0t+7ctJ9vnnWGeQy1hGUfeyXsS+zgrYSqEd4u95sRTsHQGirVCeFkWQYGGfWrgwECg7w9JxeiejW30AFc+I4/QNEgAzlMDR+sj4yphnD3g8zyxTLPTSy8RZUJ07kfe9732JuOyYKIQYH/c7XjjEI1QwoZJ9gK9SYAOrpB+dTXCjMgteUju5tmteetnRruH/Wr56LYmleaCugpWyeUpb9b//Kr41bfuf3xjmVKvfmYt2uKgDeXlH5d33kY+OuatOdxSg9cnoF5l1z1TjvxS8ap1fhHVkqmefaEtdEfOQJptMufZvgOIoqXzdFKzth6ifKqmfVN6x7zFafc5ljfY74PXR/rP6sHW0LU9aP6cpCX9MzazO7Y3Jdz0FWmW/YHGuRVW+Mlf6W/UOhJI/Ms/XX86MH1sG+xqkvsgivlYavAwHrlaaLnpO2ZBHQelHrPR0PpU9AWECEWwKcIiwDOmmHBewYApLAAPYsIxXMkmbHeiI85Zmz7Fm7p1ZU/Y6y8N7x7W8bF5R//kMf+PVxoKz5jQJ3DhwcW4pavKYKinzqgcqhLn/5vhI+M9hH2HZ2I0KlW/TdL5jfPY+2SseTGkfwE+KsA/Qtut6+4UCdMqOv9QuhwvoBYoRgttycAwTjPxUnYZfBXym3BWFOoXKd7mboEflpdx/b7mucgTx9sMyKn787HsCf6LcIW+DMWqYEKc4E5PVPNhPybj5QpICZP8FrLEV/yfJgZVEAAL4+jFIVC9RzLVN6el8EPDInuy8Z+8AfL54CLR9L0ThJt2PxyrEXi+E8oKY9ouqBgjnQo/ATjyKXXuEkANn3gO8+7W5F9yC2AJv+Ap7mnv4xP6QKPlV++i987rZxqNbBrb//h+Op+7aOl5xTdeTLkr//U58Zd5VS9VC1t7b2GfuKyj+l8u7Pvv66sfHS2nOhWDIV+k45RT2MpwPhtGVvnb+oE1DrqoOk9U3BEV+jv4xBlNa4Tlj3GBKKABfL7PdOv3arO+MQpSyMVRTOGci7/OrzMOPSWYAuh1w3WTKUSJk25Nl3fud3LmSaeWdNYy/tV7H+ev70wDrYPwewFxFOyLEkWOAsbn8Ai49eehygE4EL0Fi3ec1UXV/YqFvBbYQ8S5fQQo8SmgAUMAoKtBBRq4qOUCT27to5niqL/2+VpX9O5Qk/UJbL6TatqSCkHSXQ9paP8vyi5z5XAu+eiiY+UNH7tQXegsbvr9lvH4qyA0WEzQywngOzYe9zdQD+SsUOUEzQyxQhx+uvHiXMSnBtFr3nJfA7/d5974Q6dgCbwXWir7AoM5UfZWQlGj+AHlDr/6cvIli71dvHaRbKs1Dtv8dCyzERumh57g7skLENXduFeT579uwQ6LM5RfFh+Yvr8Od/bAkQ0desTPdg5aauQXzACYoMzRvQyfvMQpiPFFtKaPy1UX6xEgAByAbstZuC4rl+8Ad/8BjTkOsCRs9NaQP2lMD4wENNd5fCrBRnnDwnFkPKGCA1hyjHqGiMG4C6/oVXjy/c+onxxQ9/dGy/7QvjUGWpHHy8glYrmn5Ro+G02rCm2LEDVSP/5IsvHIcuv2SM888ZG04vsK6iPIcrFS/57cYI2C9SZ2ud6QNtMBcxLWJr3NtYmef6N+Puu1tuuWVhLVPce92CPu/6vOzPHRYhazJ92V2A/fM8JzvYh33pzJPr6g9KmvWFrhc/Yu1S8CgowF/cjKj89dfzpwfWwf4o2GdRrJbCN8SsVIAmchVA0XhZV4Cepc+3zuKm5QM7QpcQ7guwW1C+J1CBGdoWrSmFSfCdIDw+ey+CjGCRA2vxAXvC56CtaIuy/Af/+TvGZWWlPPnYoxWFv2M89sCDFaVfW83W70+U8Lm1gtz2nVo73S3o9JOfMVs7c5EAqVjGDux0/gz4+Y3gJfTQ9uh8z8NiJXSjHLBIczza130pBqzSFMlxbIRazksUf9wjBDwqH8B0pWAOJsy9Oq3ZLaoZ6GbAX8lK7+DdAb1TpLNAzm+UNlYoOjT1GPRLb3tXsLprJd8nGEyfe5lf+tl8Y/Gj9ykAfPVA3vEYFowRBcA46TcAlo2JMge6YhNr2viYf7IguGm8KADvec97Foqv9udYyoUIe8yT+BbBlblmAvewYwI71VTgtpqV4Pyfccv5PVbAWqAwsupdQ5oY5SE7U+57cu8iYPbe6pObf+d3x0d+84Nj/721yU49+w3XXjcurSqSp1TGyuOlsD9ahaa2bTp17Kj4l9Oq2M6WCto77Ux7SB6h8ZP7rspewN5vxozyAiT9+ZwtZ/sCA/4AHpDKJtFHM+B319kMJfM81R+d3g/z1Ndx5l+n+qNUReHr/RywB/TKVAs6xszYCIk7EQODUaMAzKzE8wf6vvZaug72DewDZqudBgLz5NPzSwNpVcZEHItcfe9737u4jIVCyLEwUgt/1rzzP4FB42c5sY5RfaKfWTzYAX5cqX38uiwlCoF7WtjoSlb9BbVH/U/+4x8eh8rK/2L52B65+67xeFH7h1gwVS9/Z7XzjyuI7lDlEm8sq8WGITMA9gXcLUzti3LSKf0Z9AkV1g2rDsh84AMfWNRYRwuywP0PnFg5oRNRsKxCwi958x3gu4XueQlIgoeFqZARC1Y/ziAfF0NXXJYBfgePefxXAvoO4vFxd0u0W8ax8vOd5yf4sTXKynoGwB9LMC6MGexjhc/KS8bMeQAd2KQcszEwBwV7sv65CZLa53iUPxeR+SmmxHnmVrfw81yUA35cxyQFlLKiPQL0jK9nBSJAgVLguuZsKPyMObqbsuxYioM2Bawyz/pY9XHJ9/GVW1+CQD2HLBlKtzZ/6A/+cMF0vOwVLx9b77l3fLbWxGf/+OZxoOJYXn71NePNN712nF8V8R6ovPsv1sZR99VukPdX+x+uinpn1/bQl73sxWNzbYObZ4pSBOwXQFmWfaxhfQPo9ae53UvhOj9j6jdtpaAk6yTzJ+tK/yaWY5lSmvmUfupKUo7vStsc6xCw7y6RyD/tNDYMDO3kryffKFBA3rhSztYL66wWKf7TOG4d7BvYryRYVhoqlCHrGp1OyKChgZyFAmQAtgVPOHpZRN3i6zSvzywBEdWAi9ZPaBEG8vW5DFD1XAMCoX7/93//GVr1QpjUPc6r+/3Uj/2T8XhZLp+8+cPjYCkAB1T62rtvXHj1VeWX3DI+WDnIu9CPRx9sthY6kCTITbtZUKxC7ZyLdeS4gC1hIs1LOykqSqQCNPQ7i9MzpYa3a7PMCQ9MCAuTsIv/MNeOsHRv11DXQOQ1BcF1ewpet/JzfoRZB/b5s2O6FRlh6r2D+2y5LwP5fozz9R+h6fkEzalEBhwoQizwldwls0Xfga7TuitZWcYkqYv6Vbu4nYA/BgDzAni0y2eBprJKuAdcs1uG/gcQArW0H2ulxoOxxWxl4xt9DvixADJIEizoWgE2bRF3gqXBTrl/7/98zvpLW2arnpKQoLy/+/3fN37wH/5geeCPvMwPz2YtKjD10P33jYe/XMzW3VvHZeWTf0n1f2kZ496PfHTcc8eXx4OVWre90lF3n11g/+Lrx2WvfsXYdNEFNSmqpsShSr0rliBb2MYq1p4E4Fq75nXAPnPWMVHUPDdl1dpgMVtTCaLMnE9RnFlhyHzsrEsH/llWZbxyTAd5SnUf2yha5gplkcFifsTFYpwpbdosswIztf56/vTAOtg/B7AXnRrwBWyEnUXCb88CYNmyyhNRT+hE27YIQ8GFXkV3OodFzw+tQp+Xd4KBNk0JYFGxVggYNH6E32l1zetK6772kkvH58rSOVD0+JYK2ttTxz5SxXZOKiG0syzK21VO23Dqwh95Upn2s9LRgStbdsYPnCp1njMpRd0CiVCLkIv/XuaCz56F8kNBYgkCP5aQvnFtQBMrPCl3M3Pgf1YiGpEFignhT9R3c5ZAp0S7EhMA7cA5Kz2zYJ3BPuM3A32Oc4/sLe75MBvS6/QpXzWBzl8da7G7LWbg7/0apaW/z9bcMhHUGSV9mF3S9DOgBdTqI1DElHs2XsmXd71YgRQUCqd5zmXFsje+njER6gDM5jmUV9Y75SzzLPMd2yDmhKIWRXgeg3m9dAXAOdpuHfpjcdrw5orLrzgG9r/1W7+1WCsACsX/6CMPjV0PPDQe+/wXx/77HxybaizG41VM6MEHxlO1Zk/ZtHmctKXy7DeXZX7FpWNTWfanlw//pFKigf3+UpqzOU3PRgDuXBypSZ9xz5hm7qUffc8FpU3YOdf0rAlCTcplFGvfz9Z8wLkrZH3cI2M6q6TNs1XfrX7tDLskLkjfUdbiiuFKFBPxkz/5k8dk2fMH7r62W7oO9kfBfrYiVjMtWEY0XVXFRJ+zwllDfPnoUIKdVmwxsYBQ1RG4EWq9GhYal2UL8LgHQsPK02dJEb6i3Wn7qFkLc8vmsxYBdovKcwX23/+27xgbD+wfn//kJ8YZpbk/WZba9vvuHXuf2Dl2lWA8VNbznhJK22qr25MWgUdHKNdlkc+JlLfgtYtw5ofPznfu6XkINqwD8I9Fo22uSSlg7QA3/j+b1wje00dSzAC/cwhuljmFKZvqEHi9BG4i7F3bvQlCggeVLyvB/aJk9Gj8fDdbWcuo8Nk6XqYIxUfaI5ozru7reZxnLpgDqHNWLosQ1avd/NwC19DNBH6YjCgnAfdO48+KSQfGCPZZ2Of/2XWU5+rnARR9D4AJeu1Lvrw5EqDyrv/FBhgzrBYljrKQcrKAl4tCbIA14tgoRfpNP6jKZz6J6qYoLGMm+jN2cPO9+fF4+dr15f21qQ1l2HpbvNBWNQYf/J3fXjyD9uhnFvTOSk994PO3j3s/8amxd+tDY0tZ7RfUmri46uKrUzEK1MXASOW65wAAIABJREFUPHHmqWP/NS8cZ1ZlvTNKIT2pIvPVw0+Z3M5QGNP+lwJHnWFKX8fvr++wg9qGDXTdgL1rWTsYkUT0d4Uuimgf707lz/Kr9/283jOP07/uaTxY9u6tXxU8sv8HxYycw2iuv55fPbAO9s8B7FmXSUmRXy9qlQaMOmSBs5bkGKPsROfGDxfrM5Yry5YgAqrSmhyXtCnTiY9V2gsBwqpKEZqFP7psGJW+FlRifX7Di28YjxXAf+7Wj48d9xY9W2Dz5EMPjtMrfej8G140Dlx3/XiwwHKfgiFl2ccq79bzbB27Np8qYUDpYEkLQMRYJHo8KVOuR5ADf+0EVhQfNLVjWFqEOz8uXzV/IKUpwgtwsHQIIP0QGjPt8532aKP+FxPBOgb6zksq07IAve4H75Zzp4WXCdTuew8N3enoWGHGmUKUHHnj6ThCO7nvxk/RIalLLCbHB+h7+8JuLAP7tFefhRpeBvYRRTPle7z/XQ/g2+cBCAFPbYzyZlw8J6WM5W4+yDgx1uh0QOJYAIvCdz7lJ8F/ARb9gKGiBLAWHb9M4Z7BPv/Hqv/kxz+xiIe5tArh/PN//s8XQbAd7H+v9oAwTzyLdaQdYltQ+Z8v6n73XfeO6y6+dLyh5s4VtZnU4VIeHqvj7ytL/759e8beSsW76FU3jnOvunJsqvr5eyvVbn9lsqiJH8s+bTH3zQVr17s52JU4/WI+6L8ETJor1j554XqxrK317I6XqP5lylCHm66Y9vmQ8c6cjXUfQ6ODvfOMJRaKUk5ZEyckkJJiwiWHzREEuf56fvXAOtg/h/EizAEW/xWBBfBRcwpnWOzoTYLeorXQAlhdgMefHCvB/6hQAiHKgQVIIMRKDgh2oF7QnXXe5grUe7g2vfl8pRk9WZt8KA0qKn9fCakLrnvR+Et/53vHt37v36ndvbZAij/19KFNl3VL/42QtvhZVdIECVJt9pzaD9gXzEM9O0sBW6F8sH6SXSAYjxDhI+b79QLWhD4fPOXIyzP25+yfMSF8y6xnAp0Fwrrs1H0C9Pp3+thrBv+ATac/fdf9mj67VgSw9lJ8/MVy9DuFB5sDZNwHq0OIEqAEuWcWJb+Itajfl7kbVnI7BOBnsJ/HLEI+FttK/0fRyjvXEDZCyie61nhEcfH8xlZ8BaofsIna5q5K0RmKHivQvJCFQVnoQOOz/hHHoU+kqgK/lcC+A1cAz33jdqBIUhoFrR57VRlca+qPP/wnC2XyigJrY4UJkG73hKp5n/7seOJLd44XF9h/fYHtmRXHsrU2x7n/nrvH1mrPw5WyuqHYqitvevW4+JUvHxsK7J86ZcM4UEr1odoGNxZy/OxZl6HeOysV5c3aoHDor2xuQ2aY7xRdfWiOuwYjQP9Y99lfIs/XgT/jm/GLEpJjZ/dTB/tO4Wc+ccHIFpBJw1UjI0gBL24y/wvSkwq8/np+9cA62K9xvDrgWZgWgmIhaEwBYyxX4G8Roa2zje2iAEcJOQs9lHmizhPwoykJmnFMSqb6PsV4Ump0pmH9f2pZHN9W7oS3VbnZU0vYPVUgv6dA+KEShg+W1XXO1S8c3/6Pf2i89C3fML5cisAtnziy+1na1tNxtNX/KQ2KckTTs+gIJbR+Kp4RWjfffPMC/EXvCupxfK7hmV1LXrE0KxQxl0SiuBUmAnyA2zsFQEaDcyhNAXggF0tfn6AaASpwEuGvhDDQ6Fb7rGB1gF8GpgGcbiVF6Yj7Arh4Dn5ogKOPtCvFVLItr37J+AO3BMTZFCbWbwA4tH1vb6ftA/Bpc/dld5DU5wGC0LoBgWVzpgNFloK5Z3z42gl9Wyh75gC2Npoz+lu2iHlPGUgeOuDihsJmUOic20HF+eYENwH3l35zvRnsj2fVA1LxAFgFa0Pan7nQwd78ufUTH18cc/GllywUru2VW8/vfqD2o9/1YGWL3HnPOGPXk+P8atPhHU+MnVVd8mC5wQ5X3v2GRcZKWeqVhnfmS64fp195+ThYipqWyrv3ijW+yNU/+tfdT92y9zzaZF4Ae2vEizJk3mc9JdaDopy4mJnK72KrMzW+XzbuJ/Lb5xxjYzxkGMk2YsVTzI01JZViZkxR+euv51cPrIP9GsdrtnyTb8o/ybIM9cXSBDwWrMUfwAjNlwUNLHxHYPku6UeEAk2aYPAbC5GwiNY+a/OihM8v4fStlZv/liqbq2Leo2X5PvL528b2EiR7Sxm4tOjIN/yd/2LcWYL2F3/5P4ybK6jpocrBD+sQQRH/HkGl/dpFGKN3tYH/WftQpoLkgDQgd7x2seiwGyx5VjeLio+XhQ8UWIoEtWcXiU5B4P7gvyZQBCPKi47fk6CLhR5qVDu0k8DkYpAmxI0CaLStg2cAchnQ+y3H9qmQ8QHwGIsE12Xfd8+pb/QB5ScV3ABKxihgFXYCbc3dYM7oT2OqvfrDtVInPi4R9+hWWtoZSzcKQPdl5xlWAvZu5c+A0ZUCbQY09p6neBljoO181iblis/d2Jm/5noA27xF4QsyNeadwvc8vnOeeA2Kco8K726JDv593cWqdw3zC1skc2V+HvODUkYJxTaYF9bXwtUj5bSUtO133TPu+dSnx977HxqbMTLVtkuqdv4FW6p2fl1wX5WZfqzYsl2XXVSpeJVdU3veH6oaFSrnZXzDyiTrIaAfd1jeHR/WzrzVZxlrCgmL2hrTzgSuGoME/oUd6GPcx2z+3I/LXOoMS4yOzBXHu4e+EltjHZqriuhgTgQ5KqZjTqyn3a0ROP4TOHwd7J/DINDOAY0Fge4Umc9fzyqyaFicNHbgSHgShvzXLNLsHkVYEfhRChSWATAEhJ3dsAM2zgD4XoRAUn6i0fv/iSqec2EJ3b9fTMNpT+4en/yTmysw757xVIG5YjvnXHrZOL8A9LHa/ObxasttlX+/uyycp/Y9bVF1cCGwPQMAziInqFhrLD010pPb7v4sV1Y/V4a/ZAlQehQ7YfmrHIZ6d7zd6hTpEEXtOR2nj1xT0BYBKhhRm7qlFLCPgGUVsTQoF34TDJYI8gB5QKNbysv89FF6tN0YAQp0tuvFek9BmlijlBfKQIL2Mp369QlPAYm+k6KmHwBOwDExGtlAxf31M2XA/Yy9Z3MP7Qjb0oPulll6AfaVLHz9swz8I/wpMvpVvAgwdTzlU7sUAdJGUfm+0zYKnXmMwudHR+FjP2aAMd9tomLsBWlGwZ190unDDvShzCmHlEp9qHgVQJr7wDzjXlL0KnMoKYaLsa42P15g/8Vbbh3jke3jxiqT+7JyT5y/6fRx0rYnxvatD4wHKl3vztoeese5W8Zlr3vNuPgVLxmHq5bFwcrNz7zKXOx0fvfX92yVsHuA3p++c172QMCYmQ/aG8s+imCU1W7JR+nt382GQI6ZxyFKfZ9HUUxZ9dYsYKdwiOGg9KmaR7mKm+05iM/1U/+Me2Ad7J9Dh/NjoaDR9sDeOz8X7VzFMJYmEENbs1QJJ9a/AC3+aVH2BB2BCVTRmgBOzrESs0qQsgYBRLaDJdRCux8DlrJSDj61ryyTU8a3vO714/6y5r/4yVvHwcdqG81SNnbvfGJsLipyYwH+53Y/OS4uy38fLb6ii7vAz/UIFQKGFUtgWuQEvGfjaybE5TUDMWCbHOHQlBQZudN2r+PmkJbo5RlY+yLzRdC7dtIVUff+J0S4AQQuqVsQ6j4+y241uZ+Id35EgEvRck8A7PgILp+X/SVAMr5V7SYoXYfwTb4xUEMR6xPPgJFwP+3tQU4d6PM5/nuV5EQyU3JyPmXRZ4oVhdBccP0AumvEfwvw9TcWAJMgwM3/lD8v7QC2SQujmHUh3/3eM/jnONcJsAbwKa4K4xgf7JXxNkaew/ykaFFcUjtAm6wFfUbx6vR/LMlFilwxOtoqIBUABzjnPky7owh4XsoXRcEcESCrguKxmhHtGdxP33KtaV9SPBfWdEXci3F58sFHxoO3fWmcVd99/Y2vGde98Oqi8reOuypS//6KfdlaSvQje3aNk849Z1z9ulePy17z6rHhBectNsk5WFkwXYFcFuTa563f9av7mz+s+7h6XMczUe7IAP9nj4MUYOqxGhmrbpWn75a5ZgLsGYMO9JkPrm++GRdKnlgCWS7mqXeUPiaGvz7Gx3MQn+un/hn3wDrYP8sOF4ksIMuiJAhFq9oExKYegI4lxOoHPCKWCWeC0jH8nHyVqZrme9Yci4jQJ9AJyp/6qZ9aKAAimlnEtG2af9fmF80v/+HuR7eNN9Vv/+yf/OjYVkC13T72d94xtn/py2PntsfH5rrm/hJYv1jbfD6m4kjVABdoNPv74lvFVhCsIu6BNQbCbmcUF89IUKHugRNhTTHQD9pPeCTegAAh3Pn6AD//H1B1H/Sq4C4WtHMBlGP9TtgANcDCSupUfkDaoxNM7kEJkrsPUAnMRI33GIeAaCzqnB+mxD2AAoXEGAA6FpYx9LwB0C7g3TvpUlFEAtCx0IwtH6hnF5zo/qHn49Pt0zCAC9Qoi+ZZajaELo9AjwuI9aXN5pnnz8ZCCag7Rl8fre8QcF3GDnRGANvgeVngWCeKH2uZ4kdJjQIUJcX4Uwiz6+Mi+l0N+eaS0GaR85RaSnAvptOVpK54aEO36rlVnKcmAGVv157dR5S7DTatefqlnylvGAaskbkasD/5QBX4eWLX2H3/A2PD9ifGlUXfb67zH/jyl8aDX/hyUfi7xmHZH6ceqXt/VpXPPe/VN47N11xdNfRPHweOMiOZDwH7buFrU6x8714J0gP4wF57zAOKq3VgXaXcbnZ4THbJzNbM67czNZ0p6ZR9j75PYHDmA+VEH1E8gD2FzmcKH6A3D8xjx62/nl89sA72z2K8CF6LQD6yiGWLVm1w1CZKEUgo8gIwvdD7FjHwt2h+6Zd+aZFqIz+fksD/yZJn/Vn8rKPv+I7vWFhPwF7wH2uXRQzUnkHdsS5YKI88Or6r9rH/p3/3+8uyr3SeUiC2fuH2sbdA+KQKOLrk0svHnrIO31dR+vdU1PGu8u/vrYI7XThEIBMs2krQALmwEgAL0Iui1hZ+Oz5oND/htHAn1PHACSBQFPRNinS4PhDy7KwE6WcA3QtIiO5Gz0r3wYIQ5o71Sp3xLkhD01OWgAuQtp0uq5IPFFAlQjopex2oXTeWeSyduA08R+oixBKjWCRo0ecI6sUuaPV/iuPkmEQ9R7hrA6vNM0TB0J5eP8BvqbTnmY1BMjoIWNcE+AQyAKeIaGdA1fmOcw2WrLlE2VCoiSLQA+ECFP3Z447oQaTGiA9XtTusFF+9+wqKc1wCzrRVpUdjaO5SUGdL0jMBNXOd8pdnCthkOS6j9Bd59fXM4j3ML/fF/hgr90m2iuc2z/zvHK60O8tttVDeTj1t0fZF/9c6OLnGbn8xYDu+dNfYWYrVgQL/UfEvm4r1urCe56LNFXNzYN84VH2+pzbKOVSs2OaXv2RsuPiicaCudejgEUVGe7vvvit+PXgvcy5zJkWroiArakTBNV6+6/M+LEfGbZkLJv3XXR/dis/49jHvCpa2Ypu4YfQzo0U8DNcdt5t1Rgb14OFnIULXT/lz6IF1sH8WnY7OZE3wXxGkglf4nVkrIswtBgDNcrfoBLGh+Flp6DDWUF605l/4hV9YKA2Eo2P8TlEQDe2azmFZ830Dv77YFdThe9xXYP8931r+8lffNP6oBPPOKjJy0o5tY3NZPBsr1WjLeeeP/WW5/FEdd0+B/MMK0xytyqUtERyEEJCUT8uyJ4wAFP+dgChtZZ36zF0RGpJgZakRqPzZBBNQYp2y+j1XIvQjFIGDGAb3QgdjLjAmwJ5Q1zf6EoBpSyjRHvjkWsBeCiQhBcy0F3VL0MdyjSXdo90TUJXSpAmeTLlT7+7bq6Llf8JuTodaJmjTt/oDHRrmQzu7skApyl+q0OV/ykZAwnh4lrAdhLNXFA39RtnS5+4Vip0yiRVKSmcASP8lxbPHRiQLIu/qIqiS5xruza2BztWeROEDWUquqHK+3l5IJ3OW4gA8KLxcWoDXK4pb5uEM9lFiABDF2bv+d0/PHjdNz3U3VqlXcfe99yyU01e+4sbF3Dq2iU2l0B3atXts/czt446P3VoR+bvGDZWm95qX3ziuqr0kNtaY7ahUvMfv3zoeqAj+xy+/dJx702vGha942TilNpviDug0uHbGko8bKW6iBJk6nrKhDfkzptpLMZHGabzIAf0RRiDzq1vj6a8erNmBPjT/7J/vjE7GJvexTikd2BCuRtsaY/QwjfLrxXKsg/2zAI4/51PWwX6NA8AKV1kKhQngFc0hAIEUq4dFw9oQ0MLKRFUDR6DFQlZfOi+CDrUoKhmIAinBbUCAIgHo0ZRofIVsXCsFZzpAn1wCZ2cB3TtKQXjVC68Zn6tCIueUVbylfPVnbNs+9smBLqH+WFnzHy+f/f0lJB8rkHjyqA+xU4GAhTWIdg/dzi0hyInwZtVTXAhcoByh4T2VwQgNVqTnARIAAygQIqx9FGysvlhfjqEkEHaEo/NY9wAXsLimYwLWoUf1A+GN/scySBXDnlAyHJt+CmvR0wsT6Ja6AGl//z/CONR7p0Nd23P3AK0oEAGfKAfeKTd59zl/XalIm9c4LRd9H3YhEd7aqv2UDJZwFI2uROTY5Mjn+fK82uE77dJOfU3BNUbmb/zQ6WeMCqUPCPe+iT+YgkhxBGRcLj04rwN8D85zbXPR/cwJIOQvqXZRfHoFu/SpOePeYgf0j2BXx1NEA9KHdtdWwV+6Y9xdfvrTan28tTbH+culzJ9Rx99TxanuLIZsa6XsPVgAvaNcYZe+9tXj2je8dpx+QUX4lysM4EdhCdgH6DNPu5KZvkpfB7y1U7utc8yENWis0i99neZzV5J6fEOn+/saDfjP7IA26Rfrg4IoMNi8sZZUyxOjw7qPgZPMm1kpW+u8XT/+z64H1sF+DX1tgdBsATpBjdLmJ0Xh8wuiJlHRclBFrKqQJt8YZQ20Uf+oawKf5owSUx+e0OPLV6AGrc8KluokfQm4KhZCiBKSFItQcVnQo/Lr95Qw+ielFLy1Av8ev/22sbF29dpZFsLhsvAP1badip3es/+p8Sc7yvKrkqAPlmW6uwqE5BWBQCCyvgTOASzChPWtSh3gsPi5JQhLx/Vgrwho10zAmN8JfgBAaSDEtB8Njc4F+hQHwh+IUCgAPoUjz4fNIIj0W3yXsUzd0/WAu7Hht/c/xYLQSjUzQj8WfEAh3+WYBPUll78XRdEPs/WU6OZep6ArDPnsvf/Fqovi0X2oGQ/PlWftKV1puzZ21qErDNlRsD8f0Hk2gjlKxKJEbPVr/jK+5gEQBtrG1H0oFfGN9zRC84d1TXE0poJSKbbdEk0bO9j77PmsgQRv6hPzym9xW+gPz9z7Iumb2kPhcX+KpDYv+r1C+w7X5jf7Hq9nuOOusuR3LjbHue4FF4wnKhL/ns98avEsB0+vHRorzuXgGcUmlOV/aW2Qw4e/v553X8mFDvadwu9pd4mmz7EdxH2X5zT/MWcCfI1lmJ2+1rrY6uuuf9+BPev7GaxgtbuzEtqa8RKTQRFnsKijYEwxO1hKBsrMNqxBjK4f+ufUA+tgv4aOB3QsE9a5IDuWpBd6i0UJ9NH3FgTLnmUrAA1NzQcm8hgjIHqYhowlkIIEpGjzgF8kM22eAoApkPbEVyZYRsoWyz5+Zvc+VDz+yRWJv7Ho+p/54R8Zb7r6ynFnKQUP33b7eLgs6FML9M4qq+yCskgeqnzh33v08XHnaRvH3QX0O6rMrt28usVAeAP35LyHsvVsAJjLwh+BJhAswqIL6R41HGsjYEcw86kDftY/4UzJAWIsGRaFZ6XwUAwoH1wD7hX/e7eeYtlIkdMuFKjzjRMrMAJvBqrurz6mNB0VuPo1Oc0R1l2Ad8Uh1H/eZ+UidH8svAB4LPj4ejvNmij/KAXpu9DlnTp3jN+jOPSiTP25fA7YpP9CN4eFmJ8BaEZBApqp1e4d0M5BWp4h909MgvFxjYCDcbBGUMHGP4rrDFgd7J3PyrSGjLMxxuTEBdEtep87m5INabSHUum63AzeKRqL+VsFqArlxv5iwfbcff84VIrjxp1VEKn2k9C+c19w/rj8qqvHZumzD1fNiMMHxqnXXjU233DdOFyb5OyrvHvrKGPZafsetBeQDxOUuZtnzfn6XY67OdOrC/bxjHKwkgIXBSrnzJb8rGBqp/ul6BfankImKNOf8ZYZRC6kDPYaROczDu3K3bO9xvp5a++BdbBfQ5/xUb7zne9cCAtBSsBbER3fAWLpZKLoBbex7FkiilDwPbPoRZjT1vlUBeChrfn/Wfxe6HHRzhYeOp+bQJob5YIy4TpcBL0ICbA/pTbnOKeE+X/1ve8YmypV6CMf+P+qvvfWcXj3rnFmCbXzahHfUFbIvgLaP6pNQO6u/++p2vg7ShA73yvCQLAXlwNLPMAFOLEWvqeEAFVAbNHHF76SsM73XbDFKkxQFaUIveoY1wTsfL+UC5Yc68a9A/YdgAOaWAJ9RwETKMmCA4IBuC5gO/Xcn71bPxGGsd7jZ+1Kg88B5hw/B6Tl+hHkEf7xk0cZAJydcYi/uVvyPod96IpPwDtKVgCgtz2U/jIFIhUco0xEgejPF2VkoWAeLf3cA9I6kHXFKEqCtod2V0EQgLhf75+Zxg+gARrBl4CeO8t5vnP/WPUzhZ/gxsQc6CMxHdxI2kFZSH36xZ70ldHyZIH9A5/7wnioNsnZtGffuLqOub5cby+69ppx8Zazx67aHvf+ysnfWjtIPl5592e94qXj/CpUdeqFL6g0vCOlp7tClc8Z+3kO5v8O9tahtrOkPbN14Vlj3S8D+bnflvVjp/W7Hz/XC3uUgEGBxmQZ9o7xIkYJ2CcFdTWAvZpj1iB+1w99jj2wDvZr6ECbrkg7YYGj1i0IQXPAmnWqGAyLnRIAnOQAs0ZE7zuPto7WZ52zOp2XhSnqngJBUKKyXYdQlMtPIXCfDvZPa+oF1rWD3fllrf/9ut9DBY63/OGHKrd+V5UErSjiou4rhni8sqz1U0qIfKo2+NhRltIjtYXOnsrLh/XHfJclxAlACgWAj5VEMIopoKj4zbOj3FHvgGElAdSBPsd00PcdOpXSI8AO8GE1BCYSNCx0ApoA4r5IGlIsp7y7TvzVaEfuD0F7AaDZqtGGCKIOlKHOu/Ud6zc0/vx/Vya6UM/zdmus+/sDpAnGi898tuJjtfec/kzZtLcHhQX8ojwksn9WHgKCxrjXG0gqYJ43fZV79mfwbMk86GmNURb8nqhzChzAEKkPxKwR1H+Yn2UAFVaAVU+Zti7Q2xiBPHsH+/6s3bqPW0ZbMEZe2Ctjmep+rPu9u3ZW2t0dxYjdMSrEdPylN7xxvPmt3zguqA2jdpff/q5bPjbuqsDAL9d6vrfW2wtuetV4SdV1OLsU6YN1LS6BBeAX8J9UynSeaVY4+//p5/RDlB/t5yfXh9yCWIgoczNz1udDVyr7usz1Xa8rplkjGXfjaC1hHLkZrU8KPlkmpZIyntoOawXztR6/BtG8fugqemAd7FfRSTmE5c3CBkKoeIuA5stKl4omQpgFD6j5vIE5Xz0aH1g7X849ZYG2zBIFnoL7FIPBGKA33UM0vrx7LgL+fIoEpsB1LcinQaSi6p/YPq4qK/if/sMfHAcef2zcUxT+tkceXgg2FgL/9eW1K9j+U04at5Uv/1Bti7u7aMf9cq6Pgn2uZ3GjDgnURKEDY1kG2Arto3wQ3n5fyWffaf0IoA74EWrAXR9ShqQcoVpTapXAyY5p0vtYFbGIQzsmpU77Abw+Fg+hvylV8adrQxiRWLw9IjqWaw/E69Z8gC20c45Pv3Ww6gpE2tnzrbt1HoUlgNRp30715/oR1rHOuv8/wBsLPRZ7gLhb8FEekgPflZPZdRFA7TEAUQTDNqQOQhiH0P9xh0glM9cFeQFsLBkQ7881K41+M8+sLQF26HsKAsDxylxI/ELa17Mp4orwTPosKYtYI/Mt6ZSLOVFZK3ttUFM187c8+dR4RVn0XEiHtu0YD5aC8mDFwmx/5LGxfd+TY/dZtSXujS8f173lTeOc668ZT51xem2SU0xZldG1E+WojJc+37tVP9P4XQRlPWmv/hGno9+019yMO6QzaV2pnudPlLXMmyiTUcjCZkUByVzhVjRG5ocUSwwlwNfn3DjdVXEiV8IaROz6oV/FHlgH+zV0roA8PnTAS/CIKldoAlDb75nlwfoVXCeHGMhm1zcWhMXDSgaYKojxiUk3s/C4ACxkQTDy2Vm60pP48AlIPnMVw9B62Ud+AZglU3ZXANFLKgr/f6+qfZvqnvfVBjf3febT4/4qDvJ4+R0fKwv/zApK+nJ9vrXyjTcULXiwaM2nyhCJth0QI2AoIgIPCUpCnMAVKCjgkECl6BCUhOwyn/0stLvQ65Sl77kNgHjK8qLjBQByX3CRuIdztENxnw4isUgDitkFz7H617gQVgGggGz3n69k/WRaRDHo1GdiJvw2R+n3qPaAbqx3fRxLvSsX3eJJf3YKOExD2k2A92jvKBRdYQgt2y30KF2J/o6iEpYhc6DT+cej/Ttw5Bl730RB0peCvLilZKY4FvMVarorhhkP78bR/GDhUkIBkHnn/ChUmQ+ZJ+YsF5P3BComV13bKJfYIv1MoXXcotyv8rdl3Z9UcS0HK0hvf+1zf/LOPWMTK73OebKU5IMV6LqxMlrOqnK5m5W0rTiYs1987XjBjS8bh6o65d76Tt59ANQzRNmpITvyuWJlFmNia2pfWsNHA/y6AmcsPBvFyPNiRbRfXwXQw5J1d0oPCAyzop/JH8+eVMwE4mlrrtnb4/4UjIxBz4Tpyl9XrKL4ZT120bpu1a8BaL5Kh66D/So71mRVQe7973//YrtWlaQAilx6Pmxlcy0glfEANZpQehAqjJVjKNZdAAAgAElEQVSJjkcxOw6Ao8KBnMjb+CMJNXmt6swLYnMOqx/Fj9rmv+ZLj2W/EM7AvoTTG0px+PkC+8MVD/CFig3YetvnxqP1eU8VCDlcAu0FL33J+EQB6c1f/NI4uTb5OFgnLiKR67kibCx8QpUWHzC3sAlPBVUEKBK+lA9KCxCNYOuWxgyg6eKATbcECFopfCKk9Zn7qyvAP6i/KR8sOc/MuteugHwALT54x+q71ChwLPZhpued1+nTWTnpCklvcxeK+dy/6y6KfM6zR9hFoEfIB2Dz3un6AG0i4bvlDgC68pCAuAB3nqEzD7MPOcAQUAqV613747LwnucMk9IpaudnHkRZyXNQCByLBeOKoTSyVI1hjwTvFn4oZ0qxAFduMJY9lsr9Kbteab/n8n2qLQI1QG/e+mwOi+EARvrS9YAeRZxSqx1PVtzLYnOcWhUHygW27c57i87/4jh5285xTu2Ad/aWzePi8y8Yl11YexWUAnC4wP+R7Y+O/RddOC5/09eNLa98xdh/Zu2IZ6976/JooZ3Mn4D9KNfZYm40RbuDfJTFKDTayRVI0fV8rt2t6vRB5nQULOdxyVmv1liCOhNjs8z1E8XJ9fVf5lgC91yrK3XuFUUzG/dYq9m8hyIQZWeVYnb9sK9iD6yD/Ro6l2ViEbAgRRSz5mm/KukJCjPRaeCC64CXiHPWPZ8bgYOCpwig5SkFeVmMgN4WqCxc1CHgwiSgHQWdieInOCwgiywAsLes9keLdryihNbfLj/oefXbniqPWxJs7KjFjm04uaLusQgfq7K0v1c7fG3ga1+ItSP+u25duC+LmNUTa8nixWhIOZS+xH+Peg/I9i7sQD5TjQHVAK3nIIwpPQQ7sCfQuT88L2aDMqQdhCDhrC8Io1gaCQZzL88iAIubBBPCP6y2QbcEO82ZdmjXHEswW5srPWPvu/mYp10tT/8y90lXOmaqd5ki0f21PncrclYgAiJxZQQIokQker6zE6kr0F0d8fEG1Dv7kHvOz9GVJNe0TtC/5q3gvE7hu4ZxzFz0f3bLw6I5B9tFwcy8T98AImNqvrqua1CygR/FUVvjbjJ3nAfs/WnPC15w4eJ9T9W/P9KXBdS1pnY98PB4qGrmn/LY9vHia64dr3r968bVVTXv9Kqw98SXvjAe/fTnxp1bK0307Nr58BvePK4tBfmUUgT2FtjLu//TYP906mafM2F49BGAjs882RXWOyXfGHH7eSV7IkyOZ3J8AD4192MU6ItkWiR2Y05D7cGhqXjpXhn7rnimzC+5lc18EsVvLIyd8cYIpnRzlO41iNv1Q7/CPbAO9mvoUDnwAMkCBaIWEyofLciC9xvfpD/pdBajY1CYwJ11ImUPmFoMgDw5ySKNLerQj9GuReISjHyVfOcWkld8rSySxx8tP2IJr72lWGxUbY2wUTSndrRDi59UFOXVZRX80c0fHp8pn/jZF15U6FbWWvkYOz3ts8WrehdmwcL1rIQhZsGfwEKxBH6PBbasC5eBfgfQfNY/gJ7VApj1kUh8Fh0WhECRQ09YECgsnKR9dd9ywFo/cgM4h3ImXsJ5AaOZAu1An89RSuZnONFz5rwc18+ff1v2/0rfrUSBdqt9vmeneOfPMzDnuWflIf8HhD1Pd2sEZAJYHRhCDzuGEpwqjJQ3MS3Zy33u/zwHFgeLZn2IPTH/zX3X7XEQAaZ3vOMdizVmrQAyLzUXKM/6SawM14E1Cay4xKyxyy+/chFs+lSlry6UolEb5BSdf6DYsl331k6M24s1u/HV481/+RvHxgLyuz/0x+Pej90ynqjd8h6q9bvtrDPHZV/3+vEyFe+qZr40PPUOMW5R7LpSGSat91mAPsWOYoU7Rnudw22oDwXOev4ou85lcff9G9zPeqEc63vrRd+FZu9sQHcHRXHuCuWyOZ/MjrgHUmuBPCMLs3+DdjIUyC3GQbZyPtH11yCS1w9dQw+sg/0JOqvTryxti09UviA1C4qlC1gAFJqS9o1qR/NbnKx6NfCVw1VnWhSya1oUBF+ibIG8hWlRWpz+TyCMRei7WGbeI4hj2dnPfttjj4w9JaR276lCJ2WBPFrBeu6zo1KKnty9c+HzvLUs+6r5Nracc0QAZIFHCBEclJFUx4vvUMlMYM8lQQhjLroL4Hjd2IVe2h5gIzAAPQuAksQq4+KwOQ53AWGESdEfhAklAxBE4IfCTeASi41CYDMRfn/WXPdbd+u5W9kdaI9n1R8PtJeBb++XGfxPpACkfTPY9/Z1C9L1+v/9fstYhnzX3/u9cv7snkgMQaj+OaDPeUAIeAFfIANoFWoh+AVOAoQ8v/MdE1rYMeZhKHxBatZSlLZeqjgxJpgn93WMeU0ZN09Z+4r4CPLDmEVxMacollilROZnLwScl/r4+x5+fBx67PHxwvMuGNdf9cKxR9rqrbfU1rf3j5MPWoMbxsaalxcUyF/2ypeXq+yGcfjKyxbBeocrABZzlr5LHwvgs2ZZ/x00yYHscZAtkx3n/OxA6XgxO2GxnENpcrxXtkgGqv4iR8is7lbKGgyV38F/mb99NXhivPMM2ckxmzdhBbQN+0JuYGjIumXrYTX3Wj/m2fXAOtivod/Qyl6AEOXOmlDS1iYhwJyvmz8ScKHqLUyTm4VKcPk9lCrhxqLoVBchFWrOfZ6tBryg3CrQyL0IPwKBZWTxffbTn1lE+7PQWUzAnvatPRa6Rcu/qt2ESChwEbnAU0AhSpWQnCnkDjbp1hk4PVMHJNfnZyfgReQT0pQpgoNCRUgQyq7D4tHeBOr1QLv4kmNtqGRIyaIgsIYiOGfgmmn1eTp8JQXSMsBdafqtdN+V2IZl36evl90jz+0986wzAPk+fv4Ae4CWZanPvcyTsFQs8WzOEwvVmFBczRmMV85Lm4FYtiUOfS2zRaop5gzYmR8BqYw7hcEayg565rf2pigNxRGz43fnUhSz/rTJGtAGSjpwDBW9iKhXArcK6+y8pxi8B6vIzt6KPai1tKEo/nOqAuV5lXd/ZvnfTxPUV7viHX5Bbb5z40vHC4ru31jbSY/aPS9ldLMukraY99SbyPbAwF5fdsve8yTAUF9gwYC49ez8rF8KMxD1HEmP6378KOZZe13p7crbV2K+e77MCW417CLDxnMykDwDhd17mMo1iOH1Q59lD6yD/Ro6Th58KsyxDKSiAfIPfvCDiyh8wXqC9ywYlrAFCLSyCQxgs1AJHb/Fkn+22vQzmt439H7GD2Wl1Otw8YoLS6KUAG36w9//g0WhHLS39vkurAJrGCUav6f22QNAGqCsAdY9hSeBSMu6sFuIs7XZFQDXIAAIKe4OBYfENlAA0PEEu2MIQkoLQSgWQv91yyRBZYSYZ1LPQGCTfQekEsYqDIjNSkgHv1lRWWmKdNZnJUA9HvuxkrU9W/InUhJmAb3MOp/BPf0Q1iPAEDdH0tpSWMn/rkuIpzwuwGFZZ3tb4+R6yfEH0kDen7RI4ydNNa6rWKTmnrFyD2vENX0O7WxuZI2EyUlAojmpHLV54xXGR8xGAvZkuCRAr7MVlMjPfeazC4r5Na+9aTEPj7kXCsRPqbbsvOOecW8pyAcr/e6Fl10+Xl4b6VxZCsYZVU9/b1n4ewrIHq3n2nrqSeP8V79y3PifvW1c+LIbjoB9WfYK9AXcjwS8HQngO1jMgP+ze2IC6fRJ0t+i8KdPKS8UGsyh/tEvZIn2U3oC8lkLmZN9/szzoLNeXwmgn9eBcaIIAn0sKOA33uYERsWzZJzWIIrXD30WPbAO9mvoNFQgYDRBWaAsdRQjmhA4oenliAMb6XcmNUqL5RyAtyiBardw19CElQ89AdgXT3AE9I9e4baiyQldFhMLSm66+vfiBrxYYIL6CB5C3dalsghEyEsHYvkTVisB/fEAM5Zk6EhAg+KTxghIfAb4/meRR/u385976k+0ruskMjnA776EuDRHCgl6V9Aki85rGcj3ti4TeMu+mwF4Buhlgrb31UoAfjxgPxHoz2PRLfZY7T1modPvPZ0qoJutawlr40LRjdWpLQFkCmz8wtkNLdH4jnMf5xo/L/eKYmks1VYQoJo2Ai0xLamSl2uFgo/PWnaLeWqNmRfGybW11856FHCKuPXJdx/wzDxwPUyX41/2ipcv5os2UAwXu0lW3v2erQ+O+yoY7/S9+8Y3v+Uvja//xgrEqzVx180fGXd//GNj531bx2M7K6amUvIuqSI7X/f2t42rau5uvqKU0UUw7ZE4hzAWB6vU7iK24cCRINsEuVFwKBr6CeAD/6RpJl3ONfSVdck9COwBJaUqxZGiDGWudHanz/2A/lfE0FiFAEumT/bD8G7MyB/uFX1vTqy0jlZxi/VDTtAD62C/hikC2NH3rASLE53sf2AIoICKgjv8zYSeyet79BplIIJwDbf8U5N/LYvheMcSgPyohEVeotcFMqncR+tmWaPaALz0QLtfyTwQLIQaT5BgB6GVAGmmmfO/4wk/10PfE3AEtqwFRTySOuV3CgnQIcCwD6yDbokmO4CgBBRS+KR6oXX9nzzllfo/AnC2jJcB+3wN564VjNcylquZM7HSAmqdgo8yZA6m+Ew2xwHgCbIK6ACYROnHWg5Axxfs/IxfLO0AafpjboM2pnqfY9xDLAnL33XRvY5J4FjAi9VtDbFizQWAh6IPZRzFRhtV28MUYNnsLwFQKRXAtfvQfdZu6zdxMa5tvvj+lAps3VfxLo9/+Z7aY2LXeNV1LxovvPKq8fC9940vlCtsUZK6mLJTzzxjnFFtP+/SS8aLXvXK8apv+abxJw/cN973wd8cW84+kvMvP3+hUJ1af+UCiR9df3Xffa+YaEy0zbu2xnWmb7CKCVR1rcTeJE1yVlAzHv37E7kJV5r381pezdzMMQF9CjmmgsFBUUHrA33G0Prrq9MD62C/hn4FhvxmFh2gA4SEE0FkwcUvZTGzTmittO4Ej63hVscO/UoBQr8OViJ7Zi9rkx38KAMEa4qZWIwC9/jCCSC/xf/pGqsB/NyrU6m+AyyoeWwIoQVwBOmh9Vltrk2xYtXwsxIYFCjsglen8yPUWA5qA4iVyC5rKeKy7JlPRGEuA/JZgM50aYBv2ffPZi50haL3YadiZxo+wG4O6rcEzeljfz0HW5uS1mjeApNYja4bOtrzJAaiu0XyuT9bn3fxE3dAAs7KSJtnABkIAHVja45RRq0jVqx3v1HywhaYg50pAqyi8P3uHHEb1iaavwcFRiFyreSDA3jtSS2Hs6tK3tm1lvfVfN9++51jT9XEP2lfWea7KiCuFKQtlVd/cQH8ZXWfTdUnu6to1cbNm8ZNf/1bx//6wQ+Mf/muf19Beictsl4E6y2UyaLWMl5RhJLFkH7RBvtrkCtoe+2jhADDKL3iDFj3iWPpBZfWOu8ynsvSODN3V5r/XbmbYz6ON8c9M6DnDkXvG0drGmOn/7/izOezWXB/wc5ZB/s1DKiJyQIhdExGwlAkvolKaFq8NFNCJgJpvvwy8Pbd/Jdc5v59BGxfYLFGRQYfESInfiCUKQHCOlqpfYSIZ8VUqPsfC4tlDxBSvjOCogP+MotgGZhGOBDCWAaR05QkGr8qfYoVYU5i1RB+dsVDu2o/4actAbgEGmkLASIjwu+KEgn+SzGWZaDZFZG0P+lj6e8T9+zTboLjHXsixWIlsAyYdrBI4Zv4yWOt95Ss+NXjD8480jdhPULDp7ZCKuF1OvjpufZ03ff5OdM27Yp13svsRjGOdU+ws74pzvz52gjQUwUvz6M91lkqv/V0wKyR5OpLDeUGMn/VwnCseaQfsq6iJGpHSuqmPxJLw+LcUql1Z5YL7LE77xl3f+qzi9TWG66+ZuHKu6yA/pJzzh2bBcNWTf07qkz1Y3t3jyve/KZxxpteN75UDNPnqjDPfeXb379/71ELvuJmylBIcZquIFF6+bb9JjPFmJAjKTpF7ugn7hDutu/6ru86FuyYuZ8xOt4cC6gn/a/LmHk8OwO30pzO+bObIMpdZ5wiJ3KsNRlq3/gY9+yIeSLmYTXrcf2Yp3tgHezXMBtY7iwE1k4mbUpvZrc2C/RElvy82LLoli2+ZYpA7h3F4QhoHtlic8OGI5XPenWxDlYEptgDVkGe43hdQPhiM1j7/KCAnzKTfel723u7ulJzPKtA2y1yiocyvbR7FKy0OywCxYQQlrXAtSC+wM5nrul/wNCFiuf2GyHSo5gJz4B9B/YZWFf6bVkfdYG6TIlbJnBXS/d3YM3zJWhuttY9F39vKHiKJ+CImyVFVbI1baz19FUsy8yTKGHL2h9rtCsZvWRtAvoC5onany3P5Ov7nvWNyTFG2txr+Pf5vxKApe/dGwhic2SUeNcXWAMA6T3P6BzPmQ1zsl6s3xSC0d+n1YY3WzYV3O/ZO3bc98A4XLT+SxXZKcv6THU0asvobejoWz8+7qh1cvf2qt1fNfPf8ve+b2yrc3/j939vfOGOOxdzMjUB8kwUK0ozRddc9uzaSVHVzxQhLGL88immo08FynInWjPcVgmwDLBm/vQ1mXHuFnxXDjpb1IF72dzvFv9skMwMQe4RhaTHCeQ6FHiMI3lqTDA75Mw64K8BoE5w6DrYTx20TGjnEMKCJW/SpnSkBRxLJMU8cny/VoRbFtxK2vQygbbM6u9FOfq1I8xiice6il8PfU9p4c883mvuB0Ai9VBtcwsTgwHwY9l7j7WV9q4EpF358BlQSVkE+Kx18QE23kHDy5UmxClTrCn3pnAQCtrAveAVEMp7ANDxzmMVAZFuqazFwl523kpj1b+PoOssQfq293GnQAOkPc3NdZLLrL96MJdnTd87JwVVYhkGZLoymTFYCdBnME8FtoD5DOoJlMzz9jnQ2YHcN/2Byv2P//E/LjI9UmEvADXPnyhKKylZ5uN/eP8vL0D99a993aLKZTaPobTmnt3twZe+YA+ORq56zr67onXDut+08bSx4cl94/pzXzBec9314/wzyq9ftP1DX7pjbC0F49F77h73lFV+964q2fziG8Yb/tq3jIcO7B8f+fznxv0lM6ThnVZld1MkR1S+PkvBIRZ7YifcH9j5jmI2B9E5R1yQ9ES++1yzp9B1kI986GM+KwVdOXgu8NLlQWRCl3ndlRO3Re6XUsbWbNwwUeafS5vWzz3SA+tgvwawZyXEL28Co/8ADiG1TAPNIst7hF7Xpmc/1/Gsl76AI0wjwEMN9trVAYBQqhaO8qOsBQFua3255wc+8IEF4POdE0QsE8KoA0mnSrsFsNL9sq2uNgF8AVtyo6U1qjiofwlAwK5/VD8j6AhplB8B/QwBXkI0AWcEqt0Ej+evT7+uZEXECjxRf61GeejWk/tlbAjsKGb6j+CnUHZrPXUPjKs+d05oeGMB5BM0t8wi7srFHLCXcqnZ6dB7AD4WZaeKl1l26Z/+jDnObwHbzBX3pLgZS8odBQZdn/GYWZC5f2eF1Pz+2Z/7FwsKf+eOJxZuHOectvHUY+uzr5sFMC3S4w4dqwyY+x97ljbop9XnH3z7d45vf8vXj7s/+dnxZO2At7P8+Lse3z727a2AxrrW/kq523LxBePKsv73n3nq+FRZ+ltrHE89XWDepgU1f4T9OzL2xs2YxffOJ89ip5wao7gvepqr84yP+h6yfGQFkU2x7tPXs7zpwZKrmavHM3xOtBb6790Y6SxS5n9SBdNec57Cpo0UOOt/Ne1dS5u+Fo9dB/s1jLpJCOyT/tX3dl42uSNEolF3bTogv4bbn/DQ3C+pSsnjTWEcrIRtcpXDtYACLmulyqQWspq4A7IrXvKwI5RmkO9CP/2R74AaWpSg414QdW8TIIF16vFb8IQbCz2lRRUGYgEI4pLxEEAm0AgGfcD/SRmjRLjH/JoFyGoEyrJjjndeFLvOtATY086efpVa47HWjSkhvvAfFzBkF8UUQZrBa55ruRfg7nu8UxL6Hveh3RMDkb7qltoMvr0/l7E5Hfxna9w8Ac7vfe97F0CHxbG2fL+S5d7BZ/6s3cZYiWT1Lt77i+85su/CC68c+6sa3sxq9LYfy4Mv6zsb0UQxUTo3z72hxuK1179kbKtA0Y//5u+WZf/EOKOi688sdmDLmVvGBeedO847/Yxx6Mk944BCQ6dvHO++/TPj9l07x+bafMoeFadtPMIcsOytP8W49L21CeRR+uZ75jl3TNL2tDmWMYUhMTUCWV1T2zvAdyt6mbzpx55QuHyFDtCveZ5kcGhbXFQZe89tPI1Ngii/UsrHV+hRnneXWQf7VQ5Ztsa0oEw+QJ9UukzC2X+dxWkCfzXA/URND41GcBAowJP1pJQsUNF+oBErThtXu6DQrwBfbr6FyhIBLPHXdZCIpbZSe4GdaHugLTeaz54QTOlcoKCdrPgU/2HdU1yAnwAmfZxAvVhnnpECYaxSEyDCZCXQjgBMXwQ8O/gtozz7deP/DdD2OIIUBzIOqZiWzV3cs9Pwnm2RtlX967euPGpnLLlY3vpo3su9A3xvTxS8gFq3HDtILwP0WXHrx/R+WNbXmZPuSxETnIeytvlRCuMs6+tZmci10xbXUvRKPAdq+3955/+8KLZz2sYjrJMtZTNuWY/PoLIrYn4xT2sf+sVcOroFbcZysVY2nDq2PfjAuP2WW8enfu9D46liD15e0eNXXHTJOPfMs8bZmJrtVUCmtpZ+aOsD48tVbe/dd5UfvzbX2VA1849so3tEEVWLX7Gn7/u+71tY+voA0Bu/AF2vaZB1mTmuPZQCvnsxBhT4pKWGgZlp8j5unrG7lpaN24nky3P5vcumgH5XiF07gc/ameqiz+WeX+vnroP9KmaAxSfdLBXwZj9aB7iAQwTKiS6/WnA90XVW8zsKnk8cqPJ5J3UOmIS+pRSsZFnN96AAEdKq63mxsp2fhey79M0M+B1UATirRkAOAS1ymrWiHSKOU85XEBMBCLTcWyU/oMnip4C5pmdJgJfPrPpQ+CtZ8n0M+jHHs+IDHD3qPMI1ud+UDWxQCqUkaC7Wur5Khbn4ieMSCbiFbk+0fSxyx/tbtp94guEyF6N4ZSziZllJ8Ul/ZIzCmsyWYFd65jmT8c5z5D1t0EeUMJkSsjC++7u/e8HELFMk5vGZgd//5p6dJxXP0ScCPBfFlPYd2QRpQ21Lu8xPvcyN1pXzkzceyXLZePLGsYEiUJb+E6Xobrvn/vHCiy4eb77pteOSzVvGvoceGbsrwGz77beNu8qHf0dtTvXZ2qPi97Y9MnacUf7+Avv0ozlMObZ2BKT642oyH1JJLwpgxiqMVfLpzQf9h2XjmrNerBNrOsf2NTf3WVdil82DfLdW1m81cmg+JjvqpQ6Ge6YOgXlCPmh/FN9nc4/1c9Z99iecAxYmuthEjGDuATPxi3eQXwYSy270Zwn0Kv8JzpMrH63Zs/XqXEk98pwW22pfqtT58zwEVwIVuxLUhX6/rmNSs4AA/LZv+7ZFKo5yvcBdVLX2pPBGrADKCeseCyBugO/SWARwgazvwwZ04bbaz7PiFkELTAPKqYKWoLle3zyCOtZ6Yg/0T/evmi/Jb491HjDPOf7v25OmDaGYu8XcYyaO96zHG98OAAHEDvbd/57rzIpdB/iuaET58K5k8z/6R/9o4cYxZl3B6NZ7gLK3OcfGIjQHf+RHfmTYnfLnf/7nj+RqHzpwjFVb0NplsY+jVnyUlYUSYH/5AvP87j1W/uL565fF+RXJd3j/gQVd/53f8m3jr1c0fO06NR74fG17WyC/t+oEUKTvqY2ntiuec8N149JX1857tTnOrqrCx7q35swB8SmeOymk2Tq216/wvPFtd1dL2m5OCHBkgFjbcYN033ifD30MZ8W2Mx+zpb9ambZambHsuIB+WDhzPOmUCa71vH8WCshzeY7/VM9dt+yPMzIWHWrMO2FrQWWidZD/86Do1zqhpLABEjuO9Vc246A9+/P/IgL5qH94tc8mfYqlol9EESdCeBng5/5RdvQvYGadAffQ79/8zd88/BHmFjlKPvSj6xOaUgK1m8D0XVLuCAzHA8tZIZutmrQjll+Ea4SN4/ULYZwo+OwZ3qlW7Qywz1uKBpASVJddDaNA5n0ZoLt/ADJ0ewfW9OdsaUcRWMmC7wL8eG6L3H9W2DowLzsmbof4xHvql/6ggIr7sJui555TI7sy3C3+rgS4Lxrc/Gbh/viP//hCYZTRsYwlKKg/VjK6r4N8P7/P68zvp9SfTXT/2uvfPN5Yu+HtffDhsaPiDfaXj3njgSMxFocrAO/kTWeMiysy/4pXv2rsOW/LeGT/k7UT5fbSDSqf/OxzFhkxb3jj1y0AzZxP1cK0Oz53cyrpjZ350Q/WNEbE5lSqTrL29ePMqCztC0V+Vvjr674fs1a5s9bjtTP1FMKAef74+o+kQ67eEFnr/f8iH78O9iuMLuGejVeSyjT7TS2COS3mz2uyHI8lOFFufYAEmBE6/kKb8ZcDptW8FDORL03Y8EHGVz1bdf1a7qOv3YPvXeWwhY+1rKjv//7vX9D62gU8KQMWeywV56hqKPdeLjL3BOD38tvLXvayhQBdyYIJqMdi79Z6QD0+dtdJQRfXD30fGr2DNGHkf21Obnun66MIJAc9UdKea86FXiakZ2VlBvPjuSJWstA6zbsSiM+A3v/vn2eQP1YXfrEBzMHF3NI/giwBlR0VKdU9Er5boMvmXm+jeYG2x+5w29hTAQiysKPwpM9ORE8/3ZdHAj1PSk4ekC8FZcEwFJV/av1/2elnjs213/1pe4v1K8v9rBrvczafOc7jYlGKd9/+sb+uceqVl4wnr7p83FuFde667/4FpS81UMXIy664/Ng2tXMmQFIvU/feM3T/dtgh7VQ8yHy2fkJ7z4p2+nGeL13J7WyHzzFuVlIYVyMXns0xqbfQrfzuyli37tfeq+tgP/VZhEj8rPGrmmgRxN33t/Yuf++HmD8AACAASURBVOYZXWitRrB3QT+D5kqCHH0v+Enw2/yalYQoOWIUCA0CR/AT0J8Vm4Byv+a73vWu8UM/9EML3yPAB6SxxgMCAev+7hilMlGRgEAAoI2F3va2ty2KbQBLQt1vsdQTrCQNUHVDljwBSDkA/NwAPkcpS+542kQJ6gVpEgnf68J7NscTuL0oTWj2gHpKyzomEfOpFhfKPYDa+2GlMe99GgHcx+p4AD8L9Xme5P/Z+pvBfJ6bnQ7O5/5MfZyzVnrkdZ7bfRY58VXW1rxi2SsLO7sfZms+yvasCJifNmn63u/93sWGTf/qX/2rxdjnfvPxs9XaFYHMlcRK9EIwAdeNp5QfvyL3n3ps2zjt8R3juouP+NyvKB/+6aUIbNxVPuZab4L5Hrd50AXnjSeLzr+/OIXH9+wel1991WL7a7Ul4qfvQJ97p5aB+6YftS/zOM/nf/0nWBYzJvYlpYFnxa0/awfyfE7fBOi7rFsLwB7P+FiNzIwBki2rE2Ssv9I/K8m71Vz/a/GYdbBfMurxw4Y+DtCbgLHCVjPRVprwJxKysUZWstACuqtdfKhSQMl/vVoFIdkHqU1PoKLaWa25f6wMYNhfNtP54R/+4YVV7byk/gWcZ4shfnsBVa973esWtKyiIXKvpVGx3LPnvd+yw5nzAKr+VC3NO5An/ET3Z7c83xvTWOk9aM5zZkc8/Zm8dffz10E8rpyeAue70P3plw4yGetuYa6ksM0AP0/Nec6tND/6vIvQzLHdgl/mYllpbvZjZ6Ug//fvU24X6Odz2uLdvFBHQaqluZLgvA7MJ1KEPFOq5tnKmBtJJL4qegk0nYF+BvaV/g/IZc72ubuh9rE/VTngUhYvOHDSuOmGl4y3vPFN45IXnD+eqCj8h2ru7qpqetsfeng8uq92sDv3nHHwxdePJys174z6fO0NL1owEJgI/drnn/uGts8zmO+JR4mi6rk6C6QfWPeuhTEwx6MU9z6Iu6YrAfN8TZ/EjZCMhKRlpi+WzePMvWX9vhaA7fPQ2sW0ebbEtEQOPVelYi1ter4fuw720wia+IstLo+WtyRQEvQSLf/ZDPosRLtV262kLji7IMr3XfOOxTdTb7196FF56wpvaP9aXp5bcGIKCQE+VkO26HXfRNB2q9+zsq4ETLGce0GbGfTig7OQATT2gf/9Qx/60KKMqn3pFQ9xX0AuzSjUXoSR7xTioSCg8wlJwpRPOCluWArt0Nfamqp8QMf5FBngHuo97yz1UPRJgeug1sduJfBdBtorCaneP3NfrTR2yxTP2fKe51/+Xw3gd2DoysKsVKR9AfX46nOPnt5nLgnOQ7m//e1vX8yxZYroDB6zQmS85dZ72QWP39o4xm+dfpjH5niKU193Af1Tq1jOIvizrPpFQZwC/E3lfgL215x3/rj2iqvGpipZve2+e6ua3j1jb1naT9bc314lcw9fctHY/PKXjHOuvWZh1V9x1ZUVyHr5QrGUgud17D7NP+/Ze8nj7u5JH0fhpiDI1WfdW+sCZVNbYu5D10w9gdTkiFLWlcOwHKmOmFTdpHqmKuda5cpaZFDaEwaObLZ2zR/rcn6tg//KvbsO9lPf9G0940NN4NVqLOl5snUhG6HX35f51bpFM58/C7suKLI4IzgsCkBvcYtuf7baNkqQ5UVxcE2gS6BGYHY6P8+PEbA1rvsTFhanF7pRtL3dzVyTMtFfLD1uAGVygcHP/uzPLt6BPUso5XGdk/KiBIAUJNH5oTjdT1sIBJ+Bumh/wK7trPNEuvcCM7FeArR9LDoI5PM8VscD/NDcfR51QF8GbB1oo2QsE3AdaHPcsrm3DOSXHd/vOysdc58sa1esxVifEdreExthrwUBdRQzSlmuMzNby+6X5wVqFEIKg/gN1R3Nz6zdnDv3eWc68rkrz53WjmV75P1IJgbA31Qx+lv2PzU27auKhlU7//DuSvOrtbbxwFPjjNrH/tTaAe/QBeeP/eefM85+0XXjhte/blxTaaLnlIWvdO6RPjqwmLORMYnjCNvlOQO283imj8OcmM8C9Vj13/7t374A+65ohd1KMCC5kH6agygzvxPXoo0B+bk4U6ovpixzn5/PFXz72Fvn5AXF3T2tae/rr9X1wDrYt34y4aNJZ/InJSr0VxbBibq3C9UZ3FcCe9fsi3NegH2xz/eP1h+KLUFndokTqAYkQ6f3tK9lz7FsgQJW1hewtqgJVIstQnFWJDyHOAFBWHzurHWWu2jhBNkR8I4J8NsExB/fK8EkQO8973nPosoaAUURA9T8+cmlD0BEyyf8uSxY5qz1XnGul3/tLE3GNkK/sxQdeLqV2IVQQMJ3JwLyEwFnB9l8jlCfFYNZqM7ndoCdP8/KQQf8leb2rADNik6/Zhix3LczDcbBZi/mhrLI5kOo7LSjr7eVlBzzELApzPOjP/qj48d+7McWUfnx685j1BW0Y+N6tCZ+YfMzAjn7eup0dmoYLMC5UvVOs2Xt7r1j9wMPjY1PHRjXXHrZuPaSy8Y5RcfvL7/+IwfLfVSlcq94be398OY3jovqtzNqa9z0Swd6wOV/6z5b9wZAoyimHztrks+OpZCz7hXOEjOTbCJrjeVv/VICUqFxnmOun/nc4xZ6fn/WUWpzzDUfUr76RDJytb/3ea3dnoM8oNyQQ7MbcbXX/Vo7bh3sj464CWWB0ZJj3Vs82et6taAYwdT9YNGe+3dzCpXfcu9QbKl3n+CczgL04JpeMSsL1EJAYwNaKT6hr3uueCyW1Sow2kFYAGgCAbD2nalmwPccrG2UvEWqQlgEEC1dMRx1+vvLDnsWsPZ70eI9g4JAIq7jYydogLn7e6dEsOApA7Hm429P3fhENcdSyn27UtX7Oopff65u/aXfZms+AnkG486ELLPYl4F1B+Gu7C1TCuZj+3zpgDnfe3Yd5Nj+XLN1vczansE/7Q1Qpb+Mhz3sKY+AmvDuykC3uue52e+BqbE5E6YIfS9zI6zBfM8+Vl2ZTbA9sO+vgH3WllK3CyuXv/5o/rd5BPBH5c+f8sSeccW5549vqLiT6wrQt93/wPjUZz81bn946zjzisvG67/1W8b1r7xxbKoCPKLxn6E0HKXu3Us/WDfa3+NjurLWZUcH/RT9EqODNdMfAm2tWWtIP/nfGgob4JmjzIQR7IGsKamdZ06GQOIKesnlXuApwalzUO+zBdg+7trvmSgwmDpyaH4tM1ie7b3/opy3DvZHR9Lk7wVmaKeE0lr8URFuAfWZyswizcINsCQgMEU14ucO2HdKsk/6LNIO4LEELDylQ4Gg3Hr3iuBaCKkSMH3zldVqx9rCsqZIeB5WNL9pt/C7hcuy4E/XFgvT69d+7dcWlCuBQGC7htx80fRYiES0A+eUyYzS4P76x3UJrmwU47soSRHsSY8zlv4ijHLdWCZ9E5iUD04+fPqppzl15SDBUxGe8aHO4NqBOsJj/q4D3gzss2We3/t9VgL0mU1YBuZpUwf44wnQ44H9rEzMgE1Bk7VhfYnET5ncAPSy9naGJc9u3vz0T//0sfLPP/ADP7CY752BiHIWUJvb0vtspvEX4FcgD7BE4Ic1i5IcP/5pZSicd/jk8aKLLxuvuPa6saHWxRcqA+bTt1eg3imHxksql/6mt37juKD8+nbZ6wxTQDO55Cke04G+K22ZB92A8F0UU21k9bLusXnuZaMhTArXWmrte+5uuXflI2Cfud/lRJcbofXzPHlPFkEAP3JnVh6PN9eWAWxYB8/LCDBvPA/3HiW/v9bB/k/34DrYV5+YGCYN4LDYTFKpQSsB4LKJNGvefTH2qNl8D5yS196rrwW0Ah6dDegCPkKra+OLAKKjNa9dx2LIvtDZhtezxS/dBU0AcTWauHawylgL2geoVwJ8z46aR9kCZylyytxSGGLFJNI4/a6tFAN/wJ6FLlJfWt48Jq6R9Jz0Z3bN4t9zT38+UxCSP59+zthE8PU687Fauo/S5ygOUQx6jn2KnxiXtDXCOsFQ83tXDmdQ74J+ttQzByIE+/Lu4Dh/v+z/zOmVBPBM4XeFZVY4envm6+kXYM+il3omEj9gHyXheGCf+wZ4baCjtoOAUDEAAar0Tb9/D25dBiY5J1b9QoEty30B7mXRZ44E/BcgVuV0zyjf/TmnbBzn1SY3rPyd2x5fVMs7UNV3Lrn26nHT179lXF7loE8v5SZzp88tc848NI9dO6Vi069d8cscyJyJchlm0LzWLmvM3hHWjw1zUh4749yt98iDKLRRZrIWOujHUJgt/MiPKM4B/hx/jCFRjbBk1LMF4w741jIZ5CXVct1/v9KsPvL9OthXJ1gwFoPJk8APE32Z4Dse0Heh3em1ADztuwNSrNLk9MeNkHO7hdQ/r0QlB/gIDQDnepQWAgSAoscBM187ITBbvlmwFvKJtG73QqXxtzuWVQ6co2ykvQSm4wTqiZZHJaIY9XfAt/sQTcoIokT7piCN/0Pdh7JnybEQPWf2b48PMWVp5yVgvAlFfyyEKFsUgigI2hcFwZhpo35NRH+uGYuoC7t8jmUTBSHfe89vsZriWggg6b/Mg56rPrt/uoWdMevWbACsg1+fwyca52WgHvDpoDy3owP33AbjpJytNDmBZObHsvP79WcFwHijqz/2sY8t6uqL6jdmAbs815y9oi1zoO3cb1GgfR8AjHLRA9aOgWJZ/ZtkulQZ3Ue2Pjie2Ll9nHbm5nHplVeMV930mnH9S188zi6K//SqqDfvbUDeuE8yVuLvnpWrWemb2UNzJAwht4i1ZuMrc9dLv7hmd0+EEQwQ9ziFzv4laHCm9HvQXleSM79j4afOxNyvx4em5b+G/fIs1gI5RwaREdyCqwmifjb3/YtwzjrY1ygS9ixNEwhgxV+8mgHutFpAPQI5AX9APqASgAP0vgvQWYzOT4RsrjsL2y60s3gjrNwv9e4tAtezgF3LAvRciWoP6AOdaOnRyr2vJo/V/QA3St81AD6lIkDl3eLzjAr7qGMP7LP1LjAlmLyn/CyGxTOE2YhbwjHu119RVrQ1AiZFbpI6l5x4SgGA6H/ZWzx155PXPI97aNIoCKkyGAZBX8et4N33ntmzGOPMg4CwPkn/aq8xiiJAyPrOs2UcOj3afaRRFGJxJqgtQDArnH1OZc504PbcHXRnZXPZb/M5mZ8rWW6eixL67ne/e/zET/zEgmru2w/3e2QcZqB3DAr/ne9850LAm3PqMWSud4BfBvauNwfc5ru0Py6yGfDzffp8AYCVlrfpaLGXPVVQZ8fOJ4r+31CR99cu6t9fePFF48wzjlRUzOZFfZ+NWOfGM27D3vfaFJBbxgJFeTXXrC9FptQauLu24jVXM68z/465IY7GHswKzTLrvccpzO7AfnzYwtk1lnWc+baM2l+NvE1fpH88O2YI04jFxDCuv5b3wNcE2B+PMqINsywI8hRSWYu10wXrTN0DNYIMAACrFHPxXTZMyU5oCQqcaftlw9YFU9eWoyzEEnVclAfXCYAAPmBvcbD2gV6n3zotfSJfvsUWa53VAvAJtPSF+2oDhYC1wX9IsSIsnRuFR5tjOQdUU6I2AUURWonmnzMnZmWrWwFzlkJXEKIIpV59lACKgb7CJkRJSNBfiumsJFjMOWOq7RmP7IJnPmRORDmIeyHKjr6I0tSjwQMIUdJiPUUhIFRnV0MUobgYYtHFCoorozMJYRPyW4T0MjBepiQsW0O+0167Goqa/7mf+7ljCm7W6Hz92cINGFNa+ettESvF0+Y3+s4YZn0E3Pp7t/z65/mYKAlZX32dPYPOP1qr/YzTjsSEWGOLks1F/1Nk/GU/9mSGRBHVF7HYYz135X6ZspU53Rme5KCjtK0vinVoe20JGxEZ0H3tAfGuACyz4DsNn/k4sxxzEF/mZORJLPzMs/TjauVt75v0m+88P8XG+EvjXG157681peBrAuyXDWqEF8uSwLUQ0dvRrE80EZZZ9AFqIGTiEeDd6gvIx+rr/vlZqK50/045Rlh164WQDuXs+x5dHkFB2BM4guMAPuAPo9Fzzvsi7dbFTJUBJmBOwABF0bHxQ6af/GZ/+ltvvXVhdaQYj3MD9N3yDU2XGtnuqd15/vgoYxU5zueewRC3SHzkM6jNVGiAJGARAdjpyi7AIrSTCRCFIEpj2ISwC65zPMVTe8IGdAXBPAqL4J3iGMUhGxiFDUm/uk8X5IBF/yUjoftU+2/GrSt+jovwD80bAA7gzEGKXWHt89gY6hOZFZ6B355FFsbGdTNHA3QBlKTARuET8Kk0roqLyionODMuqJUAv6+VjEVfU8vO60DfwT/zI2yM9RIF25jb64FSMm925DfrLOxCWJ3eV5FPUaS6stWt2mzWhcqmTFtb+jaBeDEm4ibSxh4A29mjrgzGPZX+WkkJSX/MyrT7RaHuzFQs/AB+2MlZphxPic486UyfdSE2gTJuu+z115/uga8psJ8FLSHKqrdoAd9qAzwCYLG8unXfC1f0QLGZ3nVchGTOny2kPlxdIHVQ6gAZIeC5IhwC9s6xOAKOFpdFSMFBiYYCSxW5UNuEUoSAaxAe0dB7fwIdAsc7AZeUvGjgwElEMB8rmtH/AY1Y8l1bTx934ZzfO6WZPkv/OC+CowvInJs+6H7wKAn9uz6mcSnkern/rBzEUgmtGYGXQD59ucytEOXAe2IQVrvN8Mwe6P/ZzZB5GPYgCkJ2F8tzab9+nGncKAl5nrgPMi+WxSv0WISuJGCSBNNRjFjmlOHuH14mpK2TbJSjzb/6q7+6uAZF3dj4zhyOoj4rjSsBf5+/OSf3D4hlPvVrZE4G4NIP7m8u+x7DJa3UmAZc+3sU17AuHey6Rb8S2DtGvwB26wrIC37VT1lPMSasWW0zt7LPRSpDxu3VlfywRwnWndfCrDz7Pf3X10DGtc+PxOHEeMi61L61WPiRvZ0R0g9YQ2A/R+evg//XcIAeAcGqYEGl7vtqJkQHkB5l77NrEazeE93Pok00OGHbd0/L+ccD+Q4oy0C+f2ehxR9ugaXwTBZnX7R5DsBNCPB1xcrXHwl2m4VAFmf8o7m/9wTL+Eyou25nO/j3b7nllkWwHiUr5/bAt2jts8Bb9n23AmdFYe7TZcK8g0KET2dsOq0dN0u+m1mCCJ8er9GvOY/dMiq0W0M99kA/5g9IprRvmIQwCydyuaRP41oI6FMOsEHeE6yY4NH879jM3SipEbSheGcaN/7bWHjezQsskOC8m266aTFnErdhDAnrKCx+Q00HCIEZmtq7V1wpnj+KSgCq0/CO7UpjB5VlANMp/T6/+zWiDIT10fcJkAM0ikhRQOL26e+J19A/y5S6Pvf///bO/tm6o6j359778y2uVfcKpoRAQqIGSQwYCAmagIBSUMYUEP5FpRCrLCUYgxBexAQICPIikRdBLPV3f7tV9/JZ8InfdHrWWvvsfZ48z9mzq07tfdaaNWumZ7q/3T09PaPf8DRAj4INPVi3Vva4hZdv5QF0AQTxutEW+NqzHswkadBoWvX0M+e8ypWKop40+SHpojchlw0Ee8cJ+lInH8dwjxymTMpPxoz5idJD+8npcYjysPedt3K5s7Lsc6AQJAgWrC6ALl3EawMqqKRm6dozWrUuaQQWQA+o8a4K9CNXp9ZuteQ7l30FEJgFgc03zGxgmPkDUkgLRDIZDI8rnz2rWCVY5oKIVr7rxBVIbQd0ANDpM2WhK4wnAEIDLHv23SPEaQ/90stRBZsKSVrtCaDpYfG69LMu21q9Onm/UwwqbbXs0mvgO3NJoXoMOu9PXktvQSoszkHfJw0yclrLiTlsDgGtxwxERHmrAYoIfATvno9LQ4IIioGxFi5NGY+S3gNPD9QzwvtwtQL2JMGhDfAI/WaeMC/oC21nHqGMUy/ziGvMbeaMAYwJxB2gpwWeZddAIOdaB/qpIOYSw//4b/99aR99hYfu+tlhN/ATnhwVNfrrLhjG0WWgBL6ci84Nxwg6Cb7IGngIsDffRHp1+G2+DuYJPEgOC07ng9a0y9gUvXeUy10HqSBXI8flNb0ILpmpgDtPDaI1CFiwr8ulzv063/fIYj0LlHWHEFvxmPfz818UOEuwB1zQhJmgglqdFIJBCoZOMMNErqma3Q1GU5lwS59WUY2QFpx8vwzGu9R0U+gkMyQzuv6HwKnC0N0A3HOLT2fd8BxWowluWNrILW1a+a49V8BUu0aYAwI8qzuNsghC1lo//elPL7ns3RYkWKZwS+FSrfwK+CMlQZquAXsVrjkPurGp93Pc0pqsQEG56g0weDI9RNIJmuR1lcNcyui8H7V9KimuL2tlp2UnIKWCUOMOACzmh/RaA0zGGZ5wtwWWO8ANLxA8RuyGLnjejbVP3azlk1IZ0AHsdYkzZ6kzXcAJupU/unuOTc6FqkR2Sp9KYuW1XKteAkb/78/lAKDG6ZIcdmOAJ6AqH+FxYyzorwpX8nQquBXsnffIF3iMwFh39eiB8eAneN0dPso4+sAhOSghBqMak5FLLXVss+85v5ifjI07gPitYl/nXS4NqQBUmesa/CGAn2v/vJM2YN3zDpSb+TlzsEfo8IdmzcTP9aJqAeZkSUtSoQxToWUL5oCcQJ/R97mHPr0DVZgkYFTwqNZJWv9GAfMeBGgGr1AP120PINNZqpRDWCHocfdhoSCIFVpGFSMgVC4qkNI33oOw5h1o15SnPQgUhNRTTz21HFtrbIFCTA29An19h+UT9Ksbv1r2I+DfA15ZV66t1rkxAsAcpw6YBA7HO/tVlw20krvro2tJz5xD9r3e12JVKGfMQbp+nQ+5dVEXNf2krSY8EvwFB3jEZQTaQYQ+HxRNeEnwSaW7o2MCQ3WzJ63z2Rxz6884jA70E/D8nUFpuvDhFaxKvBGCfB6V7FINyhOAq0exmzvJDyqe0MatZgbiwm/GZRivoeHBO1A+UKJIbkXQ4O/93u8t/OgOgJx3nbK4BZjIFuWfy13Os5xLuvVdJuj6rNyq3o5RG1Ipth/QB0Xo13/9Z/kNfnEA11YfzuH+2Vn2MCVWhlY9AmvNSslJkCDNbxgL60XG4n8sFv5yr3UNxkuNPUFX4ZGutKrlCrJ1ciKYeS/CFgavQWWUz1OjYCre7bv4bf+oA2EE0AP4CK4MHjOiuwpFhRPKhOuwtMUUppTHCvjMZz6zuGzNomdfqhKUYFTHCBpqRSTQp9DulASFZm17FXIdICR4dHV31xR6I2spwSyBOOeFv+u8SMu0rqsap+GyQkbMZ9n0NtSlpap0ZfzFFm3d5pnR/Ah7FUqDYekTcwKLn21qPEdbu08F7wTwBHrpVZWDpO/IiyQfdPOhvj/Hw90Q8Ir5Jpj38g1KgMtgyBzuaeVnO9PYSM8N73KbMIo0MoexA/BN/pTGBe2Bj1E8iB8gHwHlSFNNvATtof66LGW/5ZO9stHYgHTnV6Uod7eozCWd7buyaaRYV5ls0DHXNWw4Y8NEO+cA5Hv6eFZgz2SCIbDqYTTcW1tBTRWIBAFd9RXoATAsfZPlJNCnZ0DhlAzg/ue6p7UyRBVUMJVbcDx6VjBUsNtuPQ+03zXADvBd16uAb+Ae9DNILxUFGZb3QAsYEU8DgkdlgGh8XLZY+XoZah0jME1wTMCvlvwIeKXl6H4K21q2s4DWlIcUlAnM3fUUsglK/k7B7LXOklWIcs9xrcLRZRNjOvhO5UAFwbnj/7RBJVKlKulYaVEVkFzPRQlkTgCOrD0z5wF75mWCXFWWBJC8LrhzTYswy6kg5xhUb0b9P5W9+i7rpt7Fhf+Lw2voAx4xrXrjJDx90ch7gBYgcleL7avglnOdd+ANAeilEbIlc3gI9ij11IWiTqAagYIG4X7yk59cFBDc+af80FZ4OcFeXnJ8Mt6kA/vkN2XTlrKRc9L3UbexDLjyofv8nFk0vhYnzOD65N5JkMIArRnGA9BcDycwJIHeQL3cXqfAZgIz8XPLkVuVdJ2m0FbwaFnVtVzq4f1cZ1kChtO9Zbt9BmGNB8L2Uy49CrRNi5l6AXetFRPwGGikoEsmVUAZLYwwQqiZaAchBMhz7jauW2ipkK6uePudwt/fCsh8xvJ1TCt4JLCuKQXV4krATUG8Zw6lElHBfmTZZb0deCWIdQpEB4wCiksHOc8SbGivc6gqA/6fSoPAnm7VfN5xUuHjvVj3zBPmCMlQ+OTy06j/I8CvlndVmuo8TZ7292gO1bqln/Er8BwKDGAvuGvZA67co7+69vWOuYRYlbk6p5AneCRZDuEjH+eZD2ahVA7gxsbLgLJtAC4ubmJmHn/88YUnO+V2z3zuygj4qRA6L3Opai0+wHoPse5TOeV9yBtoQVwQCg+xR/NzZmCPRox7mcnGBACs9k52hTvgDVB6vjpMCMgDtqbC1do3j3oCA+/OKOpMYGLEqlGxWm6CfI309n8mONaRa6iCvQKsPk8fsAI87jIFsJaRgI8SgoBCiCE43JZn1j2tuepK5926GI2gNuCQ93JQByfZmSpVL4HvTaFbATnHrLMwk7GzbNaTVminHCSg1PtpIVZAqmBRLZORpdIBvm0cAXkqLfl8p8xU6zbLJChmPQpoLTO9BV6XnqlIOiddu+V/FV4TH+lRoF7mAuDInnT4Jq3BPW0cAX99dg3oq8LonBrRvSpK8hmg+ppf/nlQ6/981c/Pa9CN71ZK+up2O/k8AbGba9DQsyRUwky/nedrwEvQHZnC2jyeEpcPjLvgnSjafHOwlPM15/SWNb0GnFXBc245TjmnRjzmHFAurbVH2hvs6lzlvRgTKFMsY+yV89dZKTgbNz6DbQ52D045dFIz+Qw0gqmwSmFCI41RANzyktvceDdgpjWfAU+5j931TcrlWpqWlHta011G3brysMAr0KeFJujzTdvNxma2LeiRgVEKPbdDAfi4BA04wjJwW49CI9+hUgFd9FjwDoQSAXqsH9J2gf/ELwAAIABJREFUXXZ7La0O/Pcy6Zol39VRgb0CwKi+kfDs5tyWAtApFFzLOVLbVRWFkbBbUxLyXhXMo/8Vtil0aWv1Arh1i+umjVW4d/3t3leVndrebp74DgFe/nD+duOZ786lE/lUqxxL/pf/9//5+d76//WqF9NvI28Aey19fqvwqwDneFZlzZTbLnnB45kPwUBHjAvah3cP5QnFPHPUo7jTF2TWk08+efGBD3zgJfE0e3loq1zKgDR0pGP9Xqsvnx+V433QJBVF6IsHEeMOVz6G1Ll/zgbsYRQmOd9o124jOmQC6L438hSwBOix7N0CY3pKg0YUekbhCu6m0Mwz1rsUlbluyoQ2mYUJc6ifvNBMePqFdZSCTLeoDJj/0x93E/CdQXsIDbV09wRTP658t+RlQhCFZtXsaY/Zz1yj5BrbYwB7PCIp5NMboVXgtfy/AwYFdgULhYCCowp0gdH665zwvkJ9z5wReNasky2Q930pxLLtFai7e6M+JaB0v0fXqlJRy6WSkXQdKWiU0TMwAvl6PfudSkx6L+qYJ5jnHKtgn3OoU3a8xrsEe8aY3yjBer4AeJMfeQBOrt1nKuP6nhwzd9HA7ygGBuWZCAmgd8mQe8gTeJR25DG6xthIy6effnoBx/e+970vknekEO6Z7wnKVWnv5pKK6ogHfGYL7H2XHiWfg77QiLwOeCSh/bl/zgbsAWFchjLl3sA8JwgMbQAMDIi27Tq9bv1MIuIkZVIz8TLxickszFyV6/UKEAUX9WjZJ9CbMINv9i1TJ8+4J7lu0VKI5ZoofTK9r0GFKEO5jqtbHWGhAAPsFWqe2ma5DMriN/VjhSCQXMLgGgE0bAVii4xKRhXIFbwTMKpgqvcSIJPJK+iMgL1TGBTCndXcAVVXd9eWLdDfqrvSoquvuzaikf3shP9a3R1odYK+Lr3UduxpfwX8kXJSFTzBPb+zTPY5lZWMZ3A5Q6ucZ+Bxwd2ENbrxAWB+e7S0Zw2o/KYCUfshqKtcwO+Z0Ai+4hp8i0zznQn07gLIviHLSDv8vve9bwlUPvUnAb/jJT0kW+/dAnue12uUBpZLtLjyUbbIDnrun7MBe8EMxhMYDxl8I1/dJ6z73m12ate5jq7r3vW6zKbFb08sy6xSMkEKFyez7vvMJU8+aNqCNg8Da/3r8jfKWjDuwM49wibkcOuTCpHCWaGFBYOAMPBIxuqiuA1gRDmiHt3+gDzbY4gu1j1Zwb5r6xZYW8cI3LbGfGTdVIBPyyNBQaCs79FTcgiQJgiOQKi+e/T+Ub9HgL8HcPNd6ZpNwNqy3GrZPYrLSBHL9gg26ZUR4J0j6QEbzSv7Vdsp4Fu/S13mwtdl7+4Vc9KbkjbTxo7AXquedqIYuPzmIUla9Qa5UreR/soWAwO7cfjsZz+7bMd9//vfv3RP2o94YIt3uvvKjjpm3TwdvXcL8HmH8SCOqQoVqYShI8GK5/45C7BnArBeD6iZF/qQgWey5eEhaNu477HsAdpMTanl7Bo1DKiCkaegyYxOSvcgy5RpbcgwBjsZL0BZMtIheFAeAHsVAfPNqyBkBHUymkoF5WB8LQn+V6DRFt5tLm8P1GBt0PzktCUVC3+7NmtAowGALH0A9tAwg2sU0gmmdayqUEpBvSUwRkJ9TaCkoFwThGv3BI0EodqvkULRlduav4d4C9YUJO6l4lkB3v9HoFiFfG1X/p9zv76z0nav0lf5KC3O+rujafVW2E8Dzew/nq/MRaGF7Z56lGNkT+afh5/Swk3Xdsoct+eavAYeN02xy4aU4V28N09mND6g6xty68/+7M+WbXjE4myB6tac6+6vKVF769tql2v2yhHqNc8DchqDDLA/1Ju7t323SrmzAHv3oDNpAKq9OcEdRIDLSFdA1PSfrtWnVc/EA9BMSwoDwuQIgtS6ve/e+hR6aXEoiP2mLQbh4a3ATcX2EvPfIwhsj9/u9c9tgGmJKWR4L/V4kA/vsl16Bjwik74A9vRNoVW3aAn4LntQt+DB0gdgDy25PwL3up6vcE0hklbziPFSsNd3dS7hBJe91mkC4ZqA4l4FswqKW4pD9uFQYN8jnDoQrkDfAXyCV60j6ZzjuKUAVAVpDegT3OWZVCCNXenuJa9tKTWpCNN+rWoPvEl+1xPGPU/I07JPgM/fbq1TyaYPgr2GR67VmwjLOBqDgPmu45TjT3IrePGDH/zg7uRie+ZPLZNjdgg/7ZnnLkcqF3kGGYyRhZFBTBPJhTBMzvlzFmDvCXRoe4A934d8TPkJmFWrPpPnuPYMgMNkAr0nlWF9e9yjJ0Fp6dIeQT4neFqxlkEA8DyHytAe9igDmpmnWvDnOw+rSO1X4IX5bIeAnxH/CkiuQTuPaWWNUktCwE0tO617D1GBRrwLTwuKCoLGtTb7mmu6ae1p+dax64RHtfarIO8Ao/OqKICrsLItVSnYskJsuzEZFeTz/6oUXEZgjgRr7X+l7chSt7+pLHa/R2Bp/6oVP1KAarsqPyS9VAzTddxZ71yTV2tZ50lVTOzPyLJ3iUu3vVY+/+PCRzFGHnh+vNH4Ven2vfAtoM48oaweMpVxTy4E4HhG76H161EcRaFLR2TGxz/+8YuHH354ieC/WT9rfCXYu5zhXIIm0A05g+fi3A/GOQuw9zQogBbmO0SzZOLoEjdRDOvMuO9NlWtkPGUBMt6DFqlFD+O7Rq9FrzVcgT3/7xhP4cV7/uZv/ubFJB60Jc+xFuQVCgYPGsCnkBPoK+BbLtfC3N7iuewoTu5s4HnqdA91WvX8NhCQOhBgtJekFyw9GEyYgr0D6wSQvUIprbpR/Xvrqu9PAZR15/yqFrrlujlYn+v6u2bxH9KPWrZrZ7Y1wT8BKhXGrkwF99rvCqprykkqGnUt2HvMv/T0pOLoePmdynW9V2mf7eS3Hgx/V8veg2/gEQJa4RPPEAC8jY7v6qJdyCx4RrA2ODfBHn5XeTbiX2PCXT9pTIzmx7PPPrsEyv7RH/3RQbLxmPl26LNrYK+MNmUxddNvxgT6koqZ8eDchXP+nAXYe7ysJ30dMuBGlPuNBe2xtQBVKgLUCyN7opUWvQlojMp3v+sIzLUuRu1E0JBE5zvf+c7FO9/5zhej3RUEnkIl+Kdr3shdYwuqpQKTIGwymj+TovCbfrijgD4iaBLsK9AL9sY2wJxY9ATP4BnxXQpYhXCCTcfsavB5L0HLNnUKVLVsfXd9z1rd1crcUiK79mbb6vNdW7KM9Mk+1/YeMtdHwJzg3gF6up/r/ZGCVvtRQT95IPuZ/aljOAJz6+6Av1MaKs26trpmb389AyIj8fmNog/YZxa99OrVevjfoFb6Y0CrckaPHbyk8u15GMYBAfiCfVUguzkK/33sYx+7eNvb3rbk0H8lPyNQ3wP20MblRjM0Qj/AHprgyj/nz7UHeyYJYA+z6EY7ZMCNaqceGIx1eqx6080a/a5FAeMBfgK9R4Nq0fOd67WdpZZCq2NOrn3pS19aQPetb33r0haFgOvtbslJwLdMZ927Bul2IrfQ0RbX4lV4oJ+BRx3Ya93njgDoBP1M4AMdUVhop278CspVmCf45xjqEu9olXV0AC+odHWvCZgKYhVwbcvo+iFzsJsPa4rFqJ+HvDPnaIK9/e4UgAR63zUKtKtlOyVmpAxXJatT5jr3vMpf0qeLFs/7zova7wzQ47du9DwnHoUYix6wN8W02+CQA26z5R0J+vKsPJn5NVKhN4iWugz806tIew5JJPP8888ve9I/9KEPHTJNTl52C9RHPO5Sq7JEDyv0IDaI5849Iv/agz3MrKvYA1kOmaGm/VRp8DS3PNZWDVvXkRq92nwCfWbMWrPq1trI+zg5Dk0csPXsasHUaF1d+VoFKgIG7NXEP7TNPfYZyKSlL9jznMsUKDOeHJiKAW1MC19rRSXE3QyCfwfKVeh2NKkW4QgEq9WXYNyBRb6r1pkAkMpCfeYUoLs2D7r6s1+dIrln7nc0zWsd0FtvVQy2xmykzErXfH4PPbfmUa2X8v5lH0a0zf7pyufbDHnwBTxhXAvrxJ4nT5ncepf8lgF/GWFPmzK/Rgbiwpc8Z5a8zOdBO/a48JO+f/zHf3xx3333vXhOwZ65cuoyKl9dAKv9re9krAR7tw1LF8CeNXtkEcf8nvPn2oO9Ua1MFE+a2jvgBpspDMwn7/nRrtUzwSijC98tdrwvmVtNe80q29M23FLEDTzyyCOL1Z2BebrKE/i9L0OgDAjGde3ek6noT1o9dSsdffEwoQR7aeY2Qa17LXvAHuXEuAeuy6BVUAtWa4CgxVXBpgLdXgt/DUBHwHUoCGWbq5VaPQJ76u6UlU6Z6RSYHP9Kw+7/kZVvn6qikHVU+lnWNfZq3XeAv4c/Onp0AFHLdbTO8alKTgV7g/M8eMbDZ9x2Z2Itz5F3u22ecsl45Fq8QFYVdg0MZY5beM3pwXcHmGv0++Y3v7ksDT7xxBOHkPmkZZW1nZdopLwm2EsXaOoWRLJ1Qr977733JW29rDJ80g7fwMrOAuw9KQomPCQSP8Ge39Qj0LtvXMufMYPx0uLVleYa3SHvTkFUwY5kGESX3nXXXYuS0QXvGJiXkfgKDMHfyHzqSDd+deHSltxDj3VBGQP03NKiguD2QCP6M5IYuhGcB9jzm7agsBhJrYDvQChBsrO21+5Xy74T/lXYj5SyPZb9ISBdQTgF3t56sq3VUk3A3aqvo2sK3gTojt4dYGe57ncK3fr8WntHSuCWwpZzIceyPme7ci6uWfZa8yr5/E8UPta9+fHhlVyzF+j9Nr4FOnFNHlJR17I3ERUg73Y+fhuXdJl04LyTtXvc3RUYbxQmrYH9qA1G4+sRoQ7X7FGwsOyh35vf/OaDFaAb1e8b8Z5rD/YwBaACk8Jwh7i2BHvBjnr8w3KWEQUqA2XU7D3YRuY+xqLXhcXyAdGznFhl5jqt+1y317LnWoK8lrbWvQEttC3digpBrReD9CjPs7THbUUIN2nEdcpkJr8MLvI8AZZDPB0wlxP2AlW1IKsl0NF6zbrv3rs2Xlug2THvZZ5Jpe9UAmELDCsgd8ofZTIwLxWKNXAf3es8AgnEa4pXVWZGiuDWmKQSUK0+eTz7rCzhfeafgPeNuue3mfO8rss9M+iZaTPB3fV8FfmMvTHIlvcafe+JmYA9/HjZM9xJYf31r3/94qMf/egrEpmvwaDcyTEbWeLp3TRnR4K9lj1gf4wMPhX/vVL1nAXYE/HNIMOEh1jXghbPmliHutwzrjLAt4l00o2ma83c98cMshOdQBqY/aGHHlqqkzm0nk2hObLs062uV0JBlmBvWw0cSre/rneECi5Kz8UWtH0H35nDn7ahrHCmNkGFGTtQQW1k2a8BSQc+td7OehtZ9IeAc1fH6PkEFYMLj5kbl1EIBNJOgI6At6N9WvrWZd1r9WRdW+XqezvFogrxbEstXwFkNCdS2egUIAFJ0M3DrZQDgL3JtAB8wNgYHjPjVbCHj1DkqdelQnfYGIdDmUzeJdjneRuXnVN/+qd/uuy5J/h3BLCXrXvrOd7ndsLRmNY69IaoBFEHtGUMUHoAe2QWYH/Onwn2K6Nfwd4ANxPpGLjGN5MLJk7NPQ+8OFWqxr/+67++uOeee16S3lIG0dWXgJ+WfQbNZdIcGVqwT+EogOrG557WBsxEpDECjDooYxR/uu6zXexkYE8vFr5Kgd4FlRe+060v049AOQVxjcyvz3bWfVr19rcD6kPA/1AATqGaysCWd+EqLJWss/5OIO+8K2vKWFdv1rEF+lvPJyuPylYAz7HP+bc21tTBn8G2/HYXji58o+KJxjernta9a/am1Bb0+ZZ/9NrpITMzpmAvIGaSLt9pCuvLAhv5L5577rmLj3zkIwcZR5d9X1W+1sC+U/xS1hj/g+w1XooYJ+QJR91eBb+cot83oo5rD/YG6F3GsjfITMteK9WIcl3WapK5fmaGLL8P8SiMBt699R5LmQJJxUShYBtNqZlBeYKy6SXTRZku29xelHvhYSiEDooNYO955An2xgWkRYISQhQ+lr37603aIxNr0Xfgt2ahKYC3rLgOhDvL7lDmu4wisKYQXNaish0JnFvANeprB/RJX4FzpGClYO7GJ4E374+UiFrfVv1rikf2OQNRO2Uwx4m2ZWCernzjdQBa19Azqx6A7zZc+AVZMQJ72pBgnwG4Ln0l2Fsf3ybXOda4IGf+bbfddvH2t7/9UFY4qrwyFdpUYFZO5XVohRxzmQMZpPIF/ann29/+9kLvufXuGCl11LDemIdhCtbZ+Rzqxk+wd10og+EgnYICps9DbZhk5r3nuwP7QwU6eazRVu+///4XiZfgSBszc15u03HdXMsh987bjm6dzGu8x3cl2BOAhFVDHQJ3atqpfADwBObxh9ByP74JfrSsRlMyr1dB0IFFB6YKjEMt986rcAzrjJ6tlucxXFKFouBXFYJOQeroOwLPNUWrKh11nKpCkTyxRwGwzEhB6Cz8pGl6UdaAPp8xmFXg555R8QAMYK8b2W14ps/16FnBXtngcbe5pEa91bLX4HDp0Ihz44J04ytvLmPJQgdO0/zCF75w8eEPf/jgs0SOmbMG63bKSgf2GjlmCFUJ4nljif7hH/5h8a7MpDrHSKxjRvUGPcvgAzJ0E0Y8ROOtYK/b2XU0upBgL8DrDvd/GfmYLvNu0uM++OCDy8RNIHMIM1ClrvHZZi10vwVx3ZICrvWndW9f1aQ96Yv+pVXv/Uzww292M/z0pz9d8vib2tIdARXot6ztkRCvwFP7Q70p4K1nL/h3Ctro2jHjvfXslhAf3e/6u6Y4dQBf+7sF4CMlQ7CsAN+9s4K5ZbYUgu65CvbdnOiUu8oTKsK6881cZ8Ic03PnQVgeUKNMEOz9lhaCdU2oI6gZsOuyoe58YwUOSagjj+Tc4Dfn3RNvQJbOG/Ux7mcE9rQjvY/QQS8mMs4lVegB2CNf2FKIB9Iz7Q81sm5U36/6PdfejQ8A4j7mG8veSbRnwA3AYxC0Qrmm5er+YOpKgM9tbKkAbAnotcFm3Qn396OPPvqSYimosm01T77BcIKrIJ+BcMnsCjvB3nu+g/oRaggD+p6eAgSUAYIGMyKk2HLHUoTHDRsHkN6JdKlWoB7RZwusEtyroE+lqft91Qy4VX9n+XbPdHNrDfC3rPsOJHmmi8zvFK/6vPw2KluVtLVyqQx0z9V3jwC/zost7016vlRUct3epDZa7QKOW1TdfmcWPQE+3fnSiXvyqICfS3LKHIP9BP2tA3C25lveJ7YGA+Pxxx9fDKWr/Nhv5BR0TrD3nlZ78ikyRKPC9XroCT2gN15d3Ph33HHHAvjn/Ln2YM9EcZucARt7B1xgow5+aw1rQVdN2O0yAmQqAN0a1N528P5nnnlmWUO7++67Xwb2giLlcu1e172uP6PvtcITTBWa9jXBoFr3PE+d9AmGMn+3gJ/BRII9Y8CZAigsBOfZlmrZ1/VTGb2zvDuhv2Zlb1nvo3eMxmmPwrh3jLMv9ZlDgXyPMrBVZwe21jsC03q/9mkE6PV6tr/usOjevQbuqaCMFKeRMjhSIm0v3wn2JnLxCG3BHsue5S5PvTRKPPfYqyDYd6PxVYhzXdrEMRmN72l3Ju459Bjv0Tx98sknF+CsRsYh83pvWcYB2dF5QpVLuXWaaybrMi8+Y2JwHpY9MUIEHJI9D/qf8+fagz2D66ERHhSxd8CZTGqaCfZepx6tewExg3fSwjcN7d53ZznAkb3173rXu9pliARIATdTbAr6rqnrKkuvQF2b914KNn6rAMFcCCsEmZZ9Wv3pwof+uPABegDfhES2led8X34nDdaAOBWVDjiyL6ngZJ2HAv3ecVyzrveAcgeYe5/bepa2qbCMwN/7dYvgSBkYWdHduOypo46tfRpZ/lUBHCmEnWJSQb9TIiiTAJ/WPr/dZstvk9xg2QP2eBaxkJVDGgcZxGsbPEPD/BZ6E7XybQfP6sJ3/f5QObc2l1ly+9SnPrWcd08/ruLjHHPZlH7U+aiMSLDnGnLIEwK1/F0qQan6wQ9+sMict7zlLQedFXAV/Xyl6zwLsDdozQMj9hJdzVGhqFuN6zIhDGvgSO671c2XgJ8u0K4NI0vxa1/72jKp3/GOd7RbRxK0+S3TZHCPFoKAXwEwvRQGyVQLy/5TF+1BmKEt0y8D/7RAPLAD0Cdmgn31BOZxAE4yp0zs9js1eGluGzowXhP4W4pCV98ewF8DxzUQzv6MgLUDoArY+T9tcU7VuTMC0mzjFtiO+pogeMh71/pd27L1f6XVVvmRElLHzP4kbSkDyDg/0tsgnzsuWuiUB4gBHi17t+UJxpZxnz3PVrCX51xGNMeFa/YGBbsDwO2/nqw5Ujb3ykDKsd2Xz3ve854r3bqGzKC9XUIgDZqUocgyZImeW9qo8mNq9L//+79f5PNv/dZvXWnbD6HnK1X2LMBeVw/AjGa9BboJMEwoGV/G477gSZ0p8LRE/Bbs0xW+Z7Czzqeffno5nIIUudm2ZOQEfC1m99IL8G61y210CinBSKDP+nxPLmPAmAgUwV56uE0oM/jhmWB/vcl09LRk3IAgr7CjHbV/I6BKAEwLMsG7Wm17xmAEBJVmtVwVsN3/HfhvgW+nDKSSdpnnt+pc45U1heJQhSbHcPS7vq8CcgX0/D+f7frUKdqdAlEVnfTkqRSY894sbgAPyXWwjAGy6sYX7HXdU49KgyDHt4AvHypb3LdvRL7Av1fO8b6RocE9EmH9xV/8xcUf/MEfLP0YyaDL8FTWhVGAImRwYraJvktrr2tIeJaA3hToi1yCTl/+8pcXr4qpxU+h/BzTz1fy2bMAewY9s+gdkjIXgFR71/qUObgnwwkmCnGf4TvdfodONqLXOZwCrXrtk2DG7xQM6b7XAs/AvGQ4hUrWR5szfsE1e4SK62C+z10AuvFRCrDqsehdrwfs626ABPtUNLJta6CaSlaW6wB/dL+j72i81gB9BDpVKaxAuwes97w3aVYF/t7+VMB1zmd9e5SaQ2ia79xSJPbQYQTwLkk4Z3xvnSvpoq9jml6PrIdndM+7pu5Z9yTY6dz4mVTHunK7ru+WN1WSlS01eZepeA/N7bEG+JyyiSIP4F/FxwBiz9moPEqfU24r07XqaTv3TSwE4BMIjGWPoXTuwXnLHP8Zkf7fVQzezVQnE8WI/EO332npMpF0Ods3rX4jZzsBlKC/R9NOhuP33/3d3y0TWDdUZUj/r5ar7TYYLyPfVQbqGHndfqZCQH0AOf1x/dB84DxH/W7vM4MfQM9aPVY9gTIAPv+riSfAdx6FLWs8Ab4KY8GpCvK16a6ilnTZC2gdOI0AK8GmAn4F2a5fHRB3IJ4gNOLH2sZUWteUq64Na+3KepPOo3bXMVhTlLhXadopXCMlbKQAJb9m/ZUHcx7S7vTiuR0PXmHnCoCv5S2gKyMyMM0cHd0cl298rub08NlDwX5NZmMskWgHo+NXfuVXTi7ekQueJVIrTxe+8yh3+biMqucWTwq/SZPLjgISA50qYPHkHb+BFZ4F2ENPt60YxLKXxmrRgn0+xz2s+9zTWoVlru/tAfusH1D13PoMjhlp4F7PgLfc/65nIu9XDbqCrv0RyGEiz6DHqsftplWfB94YlAfQE+TDH5o2QoPnBePqyk+rvv4eKVOdEK+gvqXTrgn8fLYCaAfGe0ClA+LRtU4hGF0b9ePY6yNQrspp9qFbZ+0UqQ489/Zvj5JTQTuVEhWPNaVqRLtsYz7vb/plZj3jhTzbXte71irPJPibpMsdPSoQVTnzuoqCXoJ8bq+s2ypHkh1c+gTryb9btNmqk/vKjVG0fLrwKZ9WvfItrXq3CWIoQfdMQlbl3Snav6ePN0OZswF787Or/e0dZK1dmVIAUoBQL3XBbNXyT8HXCfIthvne9763JKEhCn/vZ2ThJ9BnOysIdmBPGbMQQj+XRAg8QkAZG+AOAO6jqeO+B+z55o86uOfSSLol08qXLiPA7qydKsArU6/RugrQjtZ1LNfet1a2e25NYVh7T23nCPhG/dnz/JqikW2TvvXa1vPZhk6Z23t/BNqd4pXzZ4sG9XkVk07hrso8QITcwNI0Sh83NYCPle/avu3hedftXX/O7Xl1ay/PZUyQa/8Cvff3yo6tcnjkOCTnkUceufjVX/3VreK77iNvkAvmHqgPKatS/tIOjAk9hPST+yYUgobECbFeT4rcU7V1V4du4kJnA/ZMGoCG78ukzU3XXDK6e+7dLqI1U4XcCOzX5gbn1uMy+7Vf+7WDplBnHWegTwYaJqD6XLrxaTfgDO30YMCcRuJzH6FGGSx2gR4r3j+sAcBfsM/Yh04Jyfbb8eoxqQK7A9gEoBEBO6Bfu7YGzB2wrIH7CMitR/f0GmCuKa2XvTcC7EOAe6uOtfuXVVrW6N/FLnRjWftYlfstxSnbDk/w8chbrXUD9gT8nNta5tQDjwFcgrj3MgBQuSToC3ydJ+AgITIojLXMktxjjz12iupezG5qattaqYG6jp+puvUuIqtUjKAznkY+JiEj42gX3a9sWOORk3TwJqrkbMAemrvly2Mm946DgNStgcGoTDyDcXKde8092b07y2/trV9rewVwJ7aCSys668h7VVkAqBFcMKSBd+4ZpizeDWgLmAvsftMPQZ7fPO8ngwHr0kIH+CmIK7gbTKWFV5WDDqj2uI+rktYBiqA8UhJ8z5YyUAFwJIhGykCdE1uCbOv+aI5tPbd1f0sRqM9vgf9eBayjf15LvnEe5bxZm1N5zzoNOgOAXEfOoD3W71me0yvIu9K6dxuZW/S08qsSwPuc/8kHGWC4V9ZtyRVk4cc+9rFlG/Ab3vCGo6qFPsgD3Pdd0DQ05X3KXX5rVLizSOXGvfXUg0Lwt3/7twtt77vvvqPaeJ0ePiuwZxJolXZRn6OBrZPudU44AAAgAElEQVSugiRA5Slwru2vWQ17JtDW3vo9dVQ3uIqI17vvBH3egasMV7yneWGtU49WCfdRBrgOwAPo0AI6qwDwjcXPNZMUQZ+6ZNABfvYzhX6NlK6WW+cJWBPcIyBO6zrLjIA9gayW75SLtXq6Md4DhHue25o/ewC7U6AuqyCs1bXW5xHQj+g6Ut4qT+fzWo9bNMs+MB8FM0CbJS9A2mh9s7wBSNzLffEZzW/QmkF4WvlG3Ne1eYFfxWFvm/eWYw5/9atfvfjnf/7niw996EN7H3tZOXgfWeE2xI7+eAz1UGgYuL7PPXnNNMUG4bH0+Y1vfOPigQceeMlWwUs39po8eFZgz5gBTEw0Ne2qzY/GtbqTLKcA92CXVCKqcF9TJqpAY2897vvXvva1R0012+C3/eisf16kYiPw4rJDi2Z/rfnt8YygjcN4ADhMq5veKFlz4wPyluN3aupuv6PvI8u+E/QK7D3Bj90YWGcCuYLjUBBPcK9A39VVQU0LMpWVtCoPBfcRSO8B773z9RhlYqsd3f0RHaVTAvhIaauKl88krbNfdTnuEMXGeYBx4dKhwayCl9a6OdzNm6+LXsAHyFzvN4DPZxPw06KvCs1RAqR5mHnyJ3/yJ0vgW7fEuDWPuI9hQB/X3PeUS6s+Y4MyAt/zAeQhrHqeffjhh1/W+q22nZpWN1N9Zwf2AA/ABGChVVbrdySMKMcEW9ujD/AZKHLMIO/dW3/Zd8gognvWAxirUcOQZL1zuxBpJwFxjuuETlrrRtibSMf/zVzoFjy+tWwS3KWtXoVRv1JAV8u+Cvk1JW4PoFfg7kB6ZFVWBWCrrqx7Dej3AM4WmO6dMyMQPAboO7qs9Wkv8Ku0WZ65sceLUueBz8gf3Fc5lle6Z3xfpY3BZ8x75I0JvZzHAJlWqctiyiUsetfhTZaTW+yow2czIM+6TwVqtR7/Z/86AcQf+chHlm5Xo6KbJ5ZBrvBZS7/bWfWCPXTl45KHSg/XME4IzGOr8gzMe+koXHuw7yYrLmc+uM8qo3ZacVrF3TpYCgn3i46CQvYI29wyciqmXXtvtl/3GErRj370oyXghehhAJw9qwgcrpmTmm//8gAcr7me77p/ZgYT3AXm+n+2ubNcEvxHQLJl6XaAXcF5zbK0bI7TCGw6YLNun18D671Avrfcnrk4Etp7FI/67KF9U+FYU6oq/ZN/O16uc6b2I+eiIJZlvJ9tsp31Hv+jAOP5Yk4gb7RUK+B7zj3fZoAD+AX4XKd3mx11uGdfT0DX58uO89ZzrN3fc889yyEzez/QAmUKoB/NB8EcJUaZkEAvrxjwqDeENmDVU/Z3fud3dmdK3dv2W73ctQd7ByiFsWer6zpLi3Ik/GV8rYjRwBsXcGgQoPXVvfUjzXrvxNtSFvK+TAbgc1IU99COoQneBrbP4XajXJ4hbdY8wd5tjgI+igJCjw9aeE1QlFZ4N14poPk9clleBkySjmugUu+lNZk0rG0YKQqdcnJo+/fOgcuWS2vtsnV09F2rK+mcwFuXOSpdR3TvwF9w7sZAPqdMuvLT2q/vGvEY11kCg2/gDcAeuVDlDUCtKzoz7CGf0tIX1DLhDu31xDv4ymWCU4zXVh0cHctZ8R/96EdX0+1aD0YWfSfeZzTXuZ9Lfa7VmwXU8dFD6G4F6sMY+cpXvrIsL3TLn1uycKu/t/r9swH7HCgmk9Y9E4+Jk1H0XbCXk7MmeOgmAIyNSx9gPHTbB64xJu2NOFKyazv946QowPn1r3/94iokIQ7XdCd6ZK558AV3rgv4fHsmQVr1Bikp8BTGKUwreFaAT4G2BqZrgNoBtAI+YwGk0RqYdGXWQH8EMmtgP3qmU44UiLVdnVK1JcAScEftS2DMMtXSTSC1XG3ToTSoYJ50Gilvdc50So3XXG7K94zmRNLS51GccVvzhyzwlEjuK3PSHW3ufA+0Aex18fMt/xioJ/08z17e6NrbtW9r/Lfuf/zjH7+48847h4lreB6ZQv/1blT5mnO4Aj39M/sn3/bL/udRwCT9QXF65zvfudXss7x/lmDPSGOZAvhoz4CyTK2wGDGLILUV/a33wMMv9s6uy+6t31v/Vrkf/vCHC2MC9Agc3G6kncRKZ63eVLl8C+5+pztfRQCr3iQ8uCdhxrSKaU8FV2mvUNaST4u+A+RO0Nf+dmCypjB0gFGB9xBg37Iqt4CkA9AK7ltjvAb6o3t7FIVRmS0A32rv2hjW8Rn9n3zdKUFV+djqb31PKo85RsgV5j+ponVfuxc8ZY4uaRVqLX23lKEEIKeQV3rHdN2bNyO3n6WCfCh9a/natxzPF154YYnOf+KJJ17mNuc5ZAP9t/0J7FUxBMzpk8qjCpFxRDlumSmQ6xhJeBoeeuihZdlxfl5OgbMFexiEgDO+ORUJDVE39hbgpxW6NqmMXkcj71JBVreSe+ux6jMF76km7pYbizV62nD77bcv9MAi/5d/+ZdFUKG0ALBa7KbP1crXlW9QngoAdVBWy8MAx4xKTvBPoE+Blb8T9EfgmMK4AmQK9g7otxSC7p0Z+6GnyL50luMIACvoHDP2W6DeAVS+rz6fdEyLPwW4vHOIUnJIn7uxq4r5moKmslWfyb7W3zm2ddwca5XPrh48XGxfxbjAUsebCFhVA8P1eQPO6il27tfXY+iZ9/AUsgsFHLnBfS3e5KdD59KWvLC+T3ziExe33XbbBQls/ADceDfpuzsRuvenB0SZkMG79CuTcCkHBHvqRMY888wzy6mgnFs/Pz0FzhbsIQfABOADxlitdbuNE6tOejXOGpmfQl2hAOjhBocJUSoUht1wfP3rX3/x3PpTT9g1xoWZ2DcLY7LWRdsRTB5Lm+77PDa3Ar2An8fcshzgDgUDiwTrXGNUKHHN39Ul6Xh0YJ8KWtKuCuc9QN4pAFsgtjauI+VizxgLTrVsNydH9XWgn8tWFay7/9fAcPT8SLhzXQVvSyFJcB7RIJWqOg5rY7nWPts4GtdUAChT/8/noTXAR6Q4vIascYuu/XdOZ8R9nmaHZezavuv4BvW5hs97PBPebHIZEJhK9Z65N5IZXjf/AN7AL37xi0tkPrIC8MWzybsBeg2Xrj6uuTQqDf3frbmpOCbYO7a8m3eSVjyXTfcqK3tocR3KnDXYMxkANBgRIIZBMlmDA9yBejLp1kSgTrawMYl5D0zafdhbf6NzOeNiw3rHakA7B6ihiafVwdAwMIoAf7rvPeWuuvK1/GF26Ep5hJPCSoDPxCECfIJ/egBSAUhFYATqadmNwMLro/XDTkmolnCWqYKlgnTXjjWgSwDtFJQtq3wPAI8s96QrZVKJre2qCnLXp739rO/1/5HCk/ezzJZC190XnLfetaZM1PmoB5D+w1co/QTrwQvIAb6lby5VuY/ebHuCuTtZ+B9+dX3fxDTcp/0mnoHHVAxShqVy5O/s/x4lqCopWPd4FIiCp4/IUv7olx7TfJd0zC12GlG2pXo+fEY5wf+kxSVIEK/C3Gq3jkRnC/YKMMCIc9b5/zWvec3i/qpWj9pkJWUG2GwBPvcBUbNGkaQm0+9e9d762j4sAPoNqLOPHuGDFe7JdFzXLZjWfCa20LKnLq15D8PheepLt6JBNe4LlmmNMtaS59u1O2hvOYVFNx4jgK8CZk1B6KzlETCsgffomQ7AOyC07g5k1+bZFqimhbQHlBPoFcAjQLa+kXJQ2z1q6552dTTYovnW/dqvTllbe28tX/uR1j38As9h4bu9zDnN3Fe5NYmO31r96e6HvzzJ06h8lyThT/iV8ioE/K7Gywjwc0zr+HMPEIfveR+giyudyHzO89D1TrlUqJNPnd9eS3AfAb0ygmdRnj7/+c8v8UXVfV95eY98vu5lzhbsGVjdUFigAB+aKICfGmYCS05UJ8Yos95o4gCGrIHDJC4fwIDPPffcAowkg7jKDxY3TILiAeOgdGC5m/PenQQICfpL/2izh91o3RuBL8hr0fMcdaHUQMd0Jwr2Chz/F9wVdAn2ubavZl/BPpUAaVfHqgr7/P8QIBgJ/BFIdXVvgfJeYKyKS633EEBNRWSPQpF1j37vVRD2vG+kZFwG+Pfw1yFjtDXGAh68A+/hzocHkDXG8jin/VYhdmtZKsryj0l53IMv6Lv3Ht6BbwV96s6lAb1rehXkrxw3lTfBnfrg8dz3ThuRI08++eSy2+Dd73738s7ky07pziDbqlikxyjpq6KCjCGYmf4Q45SG057xPccyZw/2TkLW7nE/MWkJoBHwuwlbmRtArNpyCs9OGGhF8x4mLFmf2DKyllXqmAkKKHsKHe01oxdM63GRuuj5pl3J2LrtjcbPbXda+GnVcw1rIg8AqSd4KdAUXoJ9uvPT0sm1ei0plQFoUwOpOuVsBPJ7Lbm9Y3AIWOyt81BAHtW7t20jBWavUlFB4zJKzJ53acWlNZfP1bHt6JJ1rCkWtT17FMVsF7zGkh47XgBGrGDXmasrPz1g/k4eSYUgXf26+L2mK11FPTPQZb0p6wR5yrrXPaPiKUv9pvJFafnJT35y8dRTTy0n4uEpFPC7GJvkW+dJBfxUPlJZoB1ss0OeAfRXJTMP5cubvfxZgz2DI1ADZrjScbGhcZs8xgnoZMv14xxcLfxOg3UyjwQDWZ9+/OMfX7zvfe9bGMstNKPynYuqXhOsc1scbTTYjt9GzhtZzzd0kKnV4NN1j8Co++wVIpTDfc+fkcMG5Rk9m1tmtCx02WvRpwBKyz6FUbVGku7V0l8DeO/lOFeLeYuJtwCggtEIlBRuI6HXvacuOR0C5N2cqfSoCkb3zEgJWWvL6F5e7+Z5KhCd8tABe45trd86fK5TLkbjNWqfdXVzC96CP8ilAR+9+tWvXv4ATsdfZbcD+PR+5X1d+1r5grD8luDKnHHvumCebnOBvvKE7Url3D5SP8rLn//5ny/Gywc+8IHFw5d8Sv+UnyrnVcZ186KWefbZZ5eAYnLfE4E/P/socPZg7yRnEgJ+MCEMAANimRqw5+SUaZiAuRbFJDUgJy3MFCajIfnc5z63aMJ33333ovUbtJJuOpnW9yaA+G5BWkbmugCqMBGs6Wu65AV2n00AVxnQqk+w9xhPPQQecOEpX+m6VyBJH9qXQUjVok9Lp1r1KWQ6cF+7plAdWf7ddendKWBc67Zj1rJ7Lcx9rPvyUnuBfs1yHYHpVt0dSMozgketew89RrTo2rMGyp1CMmpzVbZGCkBVCuW3LJ+Ar7yAV3Dns3TIfXbA4FHUO6iMyeWsVAB4pga4ZvxLWvm5DJBu8xwLZaD79RPsO4UmeUE+o26W7OjXpz71qQXsCfh1d4BtTr5MBX3vnGfH0ne+852L3/7t376466679j42y/2MAmcP9syCdGuxfg/gMxEBfCxUANAJnpZmaqnOJjVlGbcKiqrpAo648HFHCci8T6vb+hKgEvCrwFHz18XmWpYnzwnyCeb+dl0+LXnd97rojfT12zSW1EscAB8TCcngGWCkBwTPiVYNyyamF9blaL9yz20Kobyu4EpQ0eIdWSxZNp/vfidQdM91AJmAMbI2O8WhgtJIufCdnULRSbbOglp7f3dvZHXl9UqfDmS3JG++ewTgnSJR6+1Au9a3BfjOoz19rO/vwMxrKMzE7iBrkDEEmRG05yct+Po7XfnpDcvruYUvY2NS+Uj6VN4S+FMRqEpMKh28Gz6HlwF75MLjjz++JNRJJb6CvQpIp1RUenL4zre+9a2Le++996B8/Fvz7VzuT7D/2Ugz0TIghOAytG4mIoCEW8pJn2CfAS4p1FQOBOgEA4Ha7z17622fEa7pupV5del1Qh2g9nz5BPkMtDEIT6DXmnfLXQf2lDUil3gHysDsrEHSDtqkleHyAGuUHJzB0Zi44AD99JBchvGqJaJQqkDf/e/YKNzWlIyqQOR7eW5kGSVgVOUl7znOIwWn62eC6+h+VUZGQn4Elp0yk/N9ZKHn9bUy1uXcTUAaWX8jRWX0HmnjfcGlA/HRtbye8qID+VGfVFJoB25u5AzxQnjC3vCGNyzfyo208Kv7XpDP6zX2xXuZ3wKeXFOA062fv6ty7bjUuAL4GflJsB7LkvTJ0y6zP9nHTnGt4C/Qv+lNb7q47777FhrtURAuI0+u6zMT7H8xslXYA16e8uae2AR8gUwGU4hYBkbRY8CkTEBLICSg5Td+4zeOPre+m6C0BdD2jPl03We+aaN1MxVugru/85oWPdfwTlCHBwulkDE2gG1G73jHO85ina2zgBMw16zJDrx9toJ5KioqGx3gd8pDVUDSghspLp0yk3V3ioztSUVppHRlP21DKhUd3TpaJw3z+a26RmW7tthWPXUZoFsVkcr7PEt52glvkucCwCfN6xvf+MbFHS6Q5VJWXaNP135a9an4Vy9AxhzV8azgzn3lWC2bYJ3tQB4iLz/zmc8sII91j2xIoLcNXlsDbt77/PPPL1v7MBKw6tc8UtcVqE/Rrwn2v6BiZ1WZQY5JaTIchZZuqwyAScCXOcwC5WA5UXFbk56WSfz7v//7L1nzrRbO1kBX9xr/C8yZxtb19QR6AT4BvVr36bqv7n+CjXgHGj0xDsnAMDsuSvbA0se6xrammY8Ac4sWx9z3nccIk2pZHlPXzWy5pHegKh0j5SQVkZG3o1MYatk1ZaTycaeMJHClkpPPptLeXfd+7lgRxNMA4FoH9sknROgTcIZbH08isTue1+Hz6VHULZ9Wdd7vvABa4pbj/1S6pInfNQo//8/ndOXbFvqOsoJMwJ3/u7/7u4sCgyyo7U2lpOMT5A5LnAQvY81j1c/P5SkwwT5oVyc6/7O9AwsfhieIBib00wF+CqJ0u+vGlumwggnMAwyJKsXNXtezLgP6tNMtdBll7z74Dui17AXy6rI3qC+D+Kjb0+xqli6jcGFOQP7tb3/7S7TxY0FsSxEYuXIvzybbT669cw3wj6XFdsv+q8QplJlD3jcqe1V9PrTeVCKqgtJ5Q6qyYjwL69LwArKCb/73UBfjVQR85oK/tdp5NzxD2ln24GNY4O0j9kWZVN3lFfAT4Efu/2xDNUyqkqRFn99a+tImFYi07vmNJ+9LX/rS4vX7wz/8wxcDnS2nQmRCrRr/xHNE3fP91re+dVEY5uc4CkywL/RTgxWcmdisQbEtzzVpJrKBbzKZUa8yVOcCS8alLpiBJDoE5gCkfHKNsjJnHWq18wQa19Azgj4t9XS/d9Z87qNPZSGD+DzJirKev63Aoo+sx7Neh1Y/OuL3uGl7NU8fChY3Gsz2vG+PtySVj1P1+WpGZL3WQ9t+aPlD+4TMMM00u2qITDdlNLxsultBXuAXnAV8ZA2xL/fcc8/LgvZqQqrOuneZMNfVlVP5TvqXBokyCzql+17vpGUzaJiy9id3CBjY/Fd/9VcvRs57TobeUON53HWkvMPL8bWvfW0h/9ve9rYlqv9mUVQPnRM3U/kJ9mU0nOh1HypMDAN7Tn3muJe5UrvmWtWKBXsAku0jaPEAIkyQblHBOy19FYH8tuk+S/01053b8eq6e1rxBufprq/r9em6xx2HUOJjjn/AH0FGXn8Oo6BPo/z/N9Pkn22ZFDgVBTpFAj5hLR73PN9YqfBSF+8j4HMfsGOJD8BEcSbnO4DIO6pFX4PyEsz9naCfa/YG60GDzo2fho+KgMCfno9UJPL9eCa+8pWvLHIO5Z/6KJs7BZAbJgGCXshFjtTGi/rAAw+0p4WeaszOrZ4J9s2IC5qux6nRAnRMXNby0UoBfCa0wTZVUxe0BVwZislNBigsetx1eA5kOF2F/C+Ip7svLf8O7DMRju/lGyHidj4j7HOLXbd2n2v8Ps81mdaT/HDXk/2Pva8zbeW5iZDZ3z0U8IAp5AcWv0Gt8DiyJCPm4S+i9AE9ZAYR7fyx9Cf/C/KZmEo5Ub/TaMh7KVeUO3tA391GysVqgCgHPWfk05/+9OKlQHHRMDCnv3E+KEPf/e53lyUQyhGMN2XJnpm1v8wE+6BVauda5blODSPwP5H6MC0ACNijhQLgnUUOQ7keRp0oBjA6JzXdf//9y/+mp62BQzmMCfJ1Dbha9rkur8JiJr107yfop1Xv9Uywg/cB7wbvZvscVjyBd2jfM4vVfoabJScF4HfW97H4+eO33j0Ajux3fCNnXnjhhYXvMCwIcCWAj/t8MiiuehWVEVVu5PVcTqA+ZVWu3wvoKVPSePG+stNv34uCwt544p7e+973Lu9ACQDkAXz6TQAe99l2yLImSYauesnlHGfhBPuVUWciu8Yt6Ou+wp1vjmsYE8AH+GFEmcWqnfg8S6Qqe+uZ5FjCMHKNdE0XWac1Z5MzWC1dbWnhC97dGnzup09LXu8GXgcPzUHjfuihh5aAO8C+BtWcIwPNPk8KHEMB+Bce09UPwCNb4D/AEN4FCLH0Acnbb7/94nWve90SAGcSrroFry7/dTKE+tPN7zKCHsUE/EyhTXvS86nsqmvqygYD8Didjl0GgLn5OTCYiE/g2TvvvPPizW9+83TbHzOZNp6dYL9BILVYXd5quDwGOGrls96EtmrEvi6sdMu7XkWUKdorOfgB/WQmYwbyudpEtfNksIw1SKC33Rl4Vy1672WMAUoIAghFhr2taOWcVT06dGJq4lfIpbPqs6EA8gC+AwiRLfyfSwAsxcGDgL5JqZA1nas+rfiUFe5C0Jr3WS396tJXPmn4aARlEF8uOabXgTpp7w9+8IPFgme5D88mCgz9wlPBUib9IZi3egjOZuBvQEcn2P+MyFtAlYCfoK/2C0Oy5sRaHPex3omm9cQ3xpE6YEqYmNOh0HANfMu19dSUR4Cfbvz0ArjMoOve7wzOq+v1rsHLuIA8/YDxcNO///3vX7YGmjRki1Zb92/AnJ6vmBS4KShwLC/Am/Aif7j6kTHIDmQIdePax8oHMJE1gn61spUXWvPV45jr+Fr2LikqFzo3vsF66V3MrXVuO+QaffnkJz+5LHdi6HCPZQnSBOO+17PgOn1dqrwpBvQWb8QE+50DOAJ8rvMB5AVK3N78z8RGq4URccmhBJD2kYnNvlHKp7ac7nyBPhmpMoAauoBfAwutO8+aT0tfDwCMiCsRgcIa24MPPrgcZAHYjz7HCrKdZJ/FJgWuLQUO4SFkg0tqROsTvId1DOBiWLA9DdAHOFlKdBtbJz+MLRJgdecL9CmHqiGila8SoJzSbZ+7AyiDxxO5gpFBHgEUlyeeeGIB+dHx19d2wF/hjk2wP2AABNMKmKnhutcWVxygD9CixQKigD2pMe+4447FcjZ9rdZ1bmsRyJNZs6mpDPi7BhXWdrrFjvfAhCgbuAppI8sPpLP94Ac/OA+ZOGBOzKKTAjeCAlUxIGod0CeAD/c4/wPy7PAh7S5r+sgbo/w7SzlBPi36asWndV8NkhoAyH3kCd5OYg/4jSJAu/BCkPoWtz2xP7TZnQjuvb8RtDzXd0ywP3DkXRvPfeqCqoxAlTAMkxnAF/Rxv1GWbShGpVJWJSLXzDMy3zJdFL5LCZZPF75Ma/tkQtcCUThYKyOi/pFHHlm07fmZFJgUuLUowBo4VjOgj+WMbIK38SoC+hgaWNFcM2AuI/GVIRk7ZBBd5htJ+ZQKgRk2MSAwYHgWWcU7AXk8DrQDJQTl5Ktf/erFhz/84SUhF+/OtLm3FuVvrdZOsL/EeGUwXCacyW166RKDAfgjzzNWPO59FAEYwuxRedZ7asvdOlunhafGnQF6vI93a8VTH4E9xAwQVU/OabT/+ZkUmBS4tSmAXPI8D6L3cfsjCwBTZA7gampr/neLn8Dvbp5uydJYH7fwKtPcwcOzyDCClN2OrHfBUzBRNPA2fOITn1iWHQj45TmXHG5t6t/8rZ9gf8QYjdz6gq1KAeANU3z/+99fgmrcagNj8hvGce0/U0iagjfXwWRMI2INvssEQBmYR928Gy2bOAG2+5FrmnbMz6TApMD1pACyRwWfNXPljDk9aiY+DQytfAE/A3qVa9yzPECO4oD3QA8CgK8XgXKZ0hewZ/mBc0Gw7lUEchQOiWW4nqN3Nb2aYH8CulZ3eVr4RuGz9QTQNTDP/PIwoX+ucbm2rlXv2pqRrvwvoBuE53q/3gIUBLR4E+Cwh3XLTZ9MNhnuBBNjVjEpcAMosIdXkUOso/Pnkdc1eVZupctlxNyapycSr4DeAX4bFCiwu824O+kOkvzlX/7lohxg3c/PjaHABPsj6Syj8V1B3/9hFnI+494iWhZrO63v3AOvJe5JdNaR7nzexTOU8TqueNfIWCfjD1cZebXdNndkV+fjkwKTAteIAsqRNE5yy11u4auBeF1KXrP45YE4NQhQ8pGQ7Omnn7547LHHXnKSKPf3KC/XaBhuWFcm2J+Y1DWLHdUTmc/kJgofgM41Mde8DIhx7d3tdDxfk2BYBm0a7Zi1Mbf4zQNoTjygs7pJgTOigGCf+TtG24C7RD6HZNXkvHvc+I8++ugZUfiV6+oE+wNpXxNWjB7X0mfd/Xvf+96irZJMAld9TVSRAXW6460317xcz8d9xtoXXgJTZlp+asUHDugsPilwZhTYkhGCu1Z2yiJ+m0Of37lDaK3e7h4xSxyBy3ZfjJb5uVoKTLDfSd8tBlkDfdbrSY0LMKcFX9fIUpEwgMb9p/ld33VI2w4pu5M0s9ikwKTALUqBQ+TBIWXXyJH1cCIeCsO73/3uW5SCt06zJ9hf8VixB5agGNbPmdTpHlNzdl0r18WuuFmz+kmBSYFJgVecAng6SaP7nve8Z4kzmp+ro8AE+yugbWqu7HdlHR2X+/xMCkwKTApMCryUAl/84heXnUrTur/amTHB/oT0rev5rL8TnIcLfx7scEJCz6omBSYFrg0F2IFEsB4n4s38H1c3rBPsr462y/55AB/31KnWu66wubPqSYFJgUmBV4QCpNBFXk7r/urIP8H+RLTtwByrnsZxwPwAAAWuSURBVL3vbJGblv2JCD2rmRSYFLh2FCBYmcj8+++/f0kENj+np8AE+yNpOrLYyU6FpsoeeCLrM/nOBP4jiT4fnxSYFLh2FPjmN7+5HOTzrne969r17Wbo0AT7E44COajZg0owHgfdAPKAPp8ZoHdCQs+qJgUmBa4lBZ566qmLN73pTcthXfNzWgpMsD8hPX/0ox8t4H733Xcvh1CQKAKLnvUoXPnkp5+fSYFJgUmBSYGeAiQg+9d//dflyO3pAT3tLJlgfyJ6Auo//elPl0Mm7rrrruWbg2j4oAA899xzyx773/zN31xc+/MzKTApMClw7hTolkFJtIMMfd3rXncUeWZQ9EvJN8H+qOn00ocBe5Lo3HPPPUumvDwnHqBnEr/wwguL5U8SifmZFJgUmBSYFHgpBX74wx9e/PjHP16s++4zQfxyM2aC/eXo1j5FrmdS4z7wwAPLfQCeSfvv//7vC/iTz56DHzi0hr338zMpMCkwKTAp8HIKPPPMMxe33377y47lnkB/+dkywf7ytGuf/PznP7+46cllT/Y88uGTKILtJGzDm59JgUmBSYFJgXUK/OQnP7n4/ve/P0/EO+FEmWB/QmJSFcElBJn80i/90qKZYsXPz6TApMCkwKTAYRT4whe+sBhJd9555+4H0/KfXoCXkm2C/e5ptF7QYyFJDlGPnT3RK2Y1kwKTApMCZ0OBf/u3f7v4x3/8x+Ha/dkQ4kQdnWB/IkJSDevyfCbYn5Cos6pJgUmBs6XAs88+u6Qbf+Mb33i2NDhVxyfYn4qSP6uHk5uIwHd/6HQjnZC4s6pJgUmBa0mBNTlJ0PN3v/vdi4ceemjpu7IVDyr3kLnERBH47GfK3X6aTLA/Efsw+XThz2QQJyLqrGZSYFLg7Cnw7W9/e9nJxL57XPuk1AXkiYfif7Ltvf71rz97Om0RYIL9FoV23idxDqlyicKfn0mBSYFJgUmB01CAA8XIQnrbbbctlj1ufQL3/vM///OCrKWvfvWr59G4O0g9wX4HkbaK4DYC7EmJOz+TApMCkwKTAqejAOeMAOrscMKKR9ay6wm5i8WPkYUCMD/rFJhgf4IZQvIcJh4H38zPpMCkwKTApMBpKPC5z31uOT2UHCUAuxY94M4fuUyw8GsA31y3fzn9J9gfOSfnpDqSgPPxSYFJgUmBAQW+8Y1vLJY8cvZb3/rWxVve8paLe++998XSBO+x++mOO+6YB+dszKIJ9pPNJgUmBSYFJgVuegr8x3/8xwWJdh5++OFlnZ7Pl7/85SX1+Gtf+9qbvv2vdAMn2L/SIzDfPykwKTApMCmwiwL/9E//dPH8889fPPbYY0uM1Gc/+9nlLBJPGN1VyZkWmmB/5MDrxufbz9x6dyRR5+OTApMCkwINBZCzgD1r9a961asWF/6DDz74Ysm5rDqeNhPsJ0tNCkwKTApMCtxSFGArHnvsH3300WnV7xy5CfY7CTWLTQpMCkwKTApMCtyqFJhgf6uO3Gz3pMCkwKTApMCkwE4KTLDfSahZbFJgUmBSYFLgxlNgrsOfhuYT7E9Dx1nLpMCkwKTApMAVUmCC/nHEnWB/HP3m05MCkwKTApMCN4gCFfCnArCf8BPs99NqlpwUmBSYFJgUmBS4JSkwwf6WHLbZ6EmBSYFJgetPgctY7pd55vpT8uJigv05jPLs46TApMCkwKTAWVNggv1ZD//s/KTApMCkwKTAOVBggv05jPLs46TApMCkwKTAWVNggv1ZD//s/KTApMCkwKTAOVBggv05jPLs46TApMCkwKTAWVNggv1ZD//s/KTApMCkwKTAOVBggv05jPLs46TApMCkwKTAWVNggv1ZD//s/KTApMCkwKTAOVBggv05jPLs46TApMCkwKTAWVNggv1ZD//s/KTApMCkwKTAOVBggv05jPLs46TApMCkwKTAWVPg/wMv8JtzCvctigAAAABJRU5ErkJggg==;opacity=40;" vertex="1" parent="1">
          <mxGeometry x="16" y="-1765" width="817" height="609.13" as="geometry" />
        </mxCell>
        <mxCell id="XrCBsZc2MaONhhPfoXOV-4" value="&lt;div&gt;Forward Node&lt;/div&gt;" style="rounded=1;whiteSpace=wrap;html=1;fillColor=#dae8fc;strokeColor=#6c8ebf;" vertex="1" parent="1">
          <mxGeometry x="166" y="-1455" width="110" height="50" as="geometry" />
        </mxCell>
        <mxCell id="XrCBsZc2MaONhhPfoXOV-5" value="&lt;div&gt;HMI Node&lt;br&gt;&lt;/div&gt;(?)" style="rounded=1;whiteSpace=wrap;html=1;fillColor=#dae8fc;strokeColor=#6c8ebf;" vertex="1" parent="1">
          <mxGeometry x="236" y="-1535" width="110" height="50" as="geometry" />
        </mxCell>
        <mxCell id="XrCBsZc2MaONhhPfoXOV-6" value="Rear Node" style="rounded=1;whiteSpace=wrap;html=1;fillColor=#dae8fc;strokeColor=#6c8ebf;" vertex="1" parent="1">
          <mxGeometry x="486" y="-1455" width="110" height="50" as="geometry" />
        </mxCell>
        <mxCell id="XrCBsZc2MaONhhPfoXOV-7" value="Logger OR Live Telemetry" style="rounded=1;whiteSpace=wrap;html=1;fillColor=#fff2cc;strokeColor=#d6b656;" vertex="1" parent="1">
          <mxGeometry x="541" y="-1605" width="174" height="50" as="geometry" />
        </mxCell>
        <mxCell id="XrCBsZc2MaONhhPfoXOV-8" value="" style="endArrow=none;html=1;rounded=0;" edge="1" parent="1">
          <mxGeometry width="50" height="50" relative="1" as="geometry">
            <mxPoint x="476" y="-1365" as="sourcePoint" />
            <mxPoint x="526" y="-1415" as="targetPoint" />
          </mxGeometry>
        </mxCell>
        <mxCell id="XrCBsZc2MaONhhPfoXOV-9" value="" style="endArrow=none;html=1;rounded=0;" edge="1" parent="1">
          <mxGeometry width="50" height="50" relative="1" as="geometry">
            <mxPoint x="476" y="-1365" as="sourcePoint" />
            <mxPoint x="526" y="-1415" as="targetPoint" />
          </mxGeometry>
        </mxCell>
        <mxCell id="XrCBsZc2MaONhhPfoXOV-10" value="" style="endArrow=none;html=1;rounded=0;" edge="1" parent="1">
          <mxGeometry width="50" height="50" relative="1" as="geometry">
            <mxPoint x="476" y="-1365" as="sourcePoint" />
            <mxPoint x="526" y="-1415" as="targetPoint" />
          </mxGeometry>
        </mxCell>
        <mxCell id="XrCBsZc2MaONhhPfoXOV-12" value="" style="endArrow=none;html=1;rounded=0;fillColor=#dae8fc;strokeColor=#6c8ebf;" edge="1" parent="1">
          <mxGeometry width="50" height="50" relative="1" as="geometry">
            <mxPoint x="476" y="-1365" as="sourcePoint" />
            <mxPoint x="526" y="-1415" as="targetPoint" />
          </mxGeometry>
        </mxCell>
        <mxCell id="XrCBsZc2MaONhhPfoXOV-13" value="" style="endArrow=none;html=1;rounded=0;" edge="1" parent="1">
          <mxGeometry width="50" height="50" relative="1" as="geometry">
            <mxPoint x="466" y="-1365" as="sourcePoint" />
            <mxPoint x="516" y="-1415" as="targetPoint" />
          </mxGeometry>
        </mxCell>
        <mxCell id="XrCBsZc2MaONhhPfoXOV-14" value="" style="endArrow=none;html=1;rounded=0;" edge="1" parent="1">
          <mxGeometry width="50" height="50" relative="1" as="geometry">
            <mxPoint x="466" y="-1365" as="sourcePoint" />
            <mxPoint x="516" y="-1415" as="targetPoint" />
          </mxGeometry>
        </mxCell>
        <mxCell id="XrCBsZc2MaONhhPfoXOV-15" value="Dev Node 1" style="rounded=1;whiteSpace=wrap;html=1;fillColor=#f8cecc;strokeColor=#b85450;" vertex="1" parent="1">
          <mxGeometry x="66" y="-1555" width="100" height="50" as="geometry" />
        </mxCell>
        <mxCell id="XrCBsZc2MaONhhPfoXOV-16" value="Dev Node 2" style="rounded=1;whiteSpace=wrap;html=1;fillColor=#f8cecc;strokeColor=#b85450;" vertex="1" parent="1">
          <mxGeometry x="586" y="-1535" width="100" height="50" as="geometry" />
        </mxCell>
        <mxCell id="XrCBsZc2MaONhhPfoXOV-19" value="" style="endArrow=none;html=1;rounded=0;" edge="1" parent="1">
          <mxGeometry width="50" height="50" relative="1" as="geometry">
            <mxPoint x="466" y="-1365" as="sourcePoint" />
            <mxPoint x="516" y="-1415" as="targetPoint" />
          </mxGeometry>
        </mxCell>
        <mxCell id="XrCBsZc2MaONhhPfoXOV-20" value="" style="endArrow=none;html=1;rounded=0;" edge="1" parent="1">
          <mxGeometry width="50" height="50" relative="1" as="geometry">
            <mxPoint x="466" y="-1365" as="sourcePoint" />
            <mxPoint x="516" y="-1415" as="targetPoint" />
          </mxGeometry>
        </mxCell>
        <mxCell id="XrCBsZc2MaONhhPfoXOV-21" value="" style="endArrow=none;html=1;rounded=0;" edge="1" parent="1">
          <mxGeometry width="50" height="50" relative="1" as="geometry">
            <mxPoint x="466" y="-1365" as="sourcePoint" />
            <mxPoint x="516" y="-1415" as="targetPoint" />
          </mxGeometry>
        </mxCell>
        <mxCell id="XrCBsZc2MaONhhPfoXOV-23" value="" style="shape=link;html=1;rounded=0;" edge="1" parent="1">
          <mxGeometry width="100" relative="1" as="geometry">
            <mxPoint x="446" y="-1385" as="sourcePoint" />
            <mxPoint x="546" y="-1385" as="targetPoint" />
          </mxGeometry>
        </mxCell>
      </root>
    </mxGraphModel>
  </diagram>
</mxfile>
